<?xml version="1.0" encoding="utf-8" standalone="no"?>
<!DOCTYPE svg PUBLIC "-//W3C//DTD SVG 1.1//EN"
  "http://www.w3.org/Graphics/SVG/1.1/DTD/svg11.dtd">
<svg xmlns:xlink="http://www.w3.org/1999/xlink" width="636.48pt" height="420.48pt" viewBox="0 0 636.48 420.48" xmlns="http://www.w3.org/2000/svg" version="1.1">
 <metadata>
  <rdf:RDF xmlns:dc="http://purl.org/dc/elements/1.1/" xmlns:cc="http://creativecommons.org/ns#" xmlns:rdf="http://www.w3.org/1999/02/22-rdf-syntax-ns#">
   <cc:Work>
    <dc:type rdf:resource="http://purl.org/dc/dcmitype/StillImage"/>
    <dc:date>2025-04-21T12:26:24.139957</dc:date>
    <dc:format>image/svg+xml</dc:format>
    <dc:creator>
     <cc:Agent>
      <dc:title>Matplotlib v3.9.2, https://matplotlib.org/</dc:title>
     </cc:Agent>
    </dc:creator>
   </cc:Work>
  </rdf:RDF>
 </metadata>
 <defs>
  <style type="text/css">*{stroke-linejoin: round; stroke-linecap: butt}</style>
 </defs>
 <g id="figure_1">
  <g id="patch_1">
   <path d="M 0 420.48 
L 636.48 420.48 
L 636.48 0 
L 0 0 
z
" style="fill: #ffffff"/>
  </g>
  <g id="axes_1">
   <g id="patch_2">
    <path d="M 46.385746 381.026449 
L 629.28 381.026449 
L 629.28 7.2 
L 46.385746 7.2 
z
" style="fill: #ffffff"/>
   </g>
   <g id="patch_3">
    <path d="M 67.203398 381.026449 
L 108.838702 381.026449 
L 108.838702 381.026449 
L 67.203398 381.026449 
z
" clip-path="url(#pcbebc0375d)" style="fill: #1f77b4"/>
   </g>
   <g id="patch_4">
    <path d="M 150.474006 381.026449 
L 192.10931 381.026449 
L 192.10931 381.026449 
L 150.474006 381.026449 
z
" clip-path="url(#pcbebc0375d)" style="fill: #1f77b4"/>
   </g>
   <g id="patch_5">
    <path d="M 233.744614 381.026449 
L 275.379917 381.026449 
L 275.379917 381.026449 
L 233.744614 381.026449 
z
" clip-path="url(#pcbebc0375d)" style="fill: #1f77b4"/>
   </g>
   <g id="patch_6">
    <path d="M 317.015221 381.026449 
L 358.650525 381.026449 
L 358.650525 381.026449 
L 317.015221 381.026449 
z
" clip-path="url(#pcbebc0375d)" style="fill: #1f77b4"/>
   </g>
   <g id="patch_7">
    <path d="M 400.285829 381.026449 
L 441.921133 381.026449 
L 441.921133 381.026449 
L 400.285829 381.026449 
z
" clip-path="url(#pcbebc0375d)" style="fill: #1f77b4"/>
   </g>
   <g id="patch_8">
    <path d="M 483.556437 381.026449 
L 525.19174 381.026449 
L 525.19174 381.026449 
L 483.556437 381.026449 
z
" clip-path="url(#pcbebc0375d)" style="fill: #1f77b4"/>
   </g>
   <g id="patch_9">
    <path d="M 566.827044 381.026449 
L 608.462348 381.026449 
L 608.462348 377.466197 
L 566.827044 377.466197 
z
" clip-path="url(#pcbebc0375d)" style="fill: #1f77b4"/>
   </g>
   <g id="patch_10">
    <path d="M 67.203398 381.026449 
L 108.838702 381.026449 
L 108.838702 377.466197 
L 67.203398 377.466197 
z
" clip-path="url(#pcbebc0375d)" style="fill: #ff7f0e"/>
   </g>
   <g id="patch_11">
    <path d="M 150.474006 381.026449 
L 192.10931 381.026449 
L 192.10931 352.544434 
L 150.474006 352.544434 
z
" clip-path="url(#pcbebc0375d)" style="fill: #ff7f0e"/>
   </g>
   <g id="patch_12">
    <path d="M 233.744614 381.026449 
L 275.379917 381.026449 
L 275.379917 316.941915 
L 233.744614 316.941915 
z
" clip-path="url(#pcbebc0375d)" style="fill: #ff7f0e"/>
   </g>
   <g id="patch_13">
    <path d="M 317.015221 381.026449 
L 358.650525 381.026449 
L 358.650525 306.261159 
L 317.015221 306.261159 
z
" clip-path="url(#pcbebc0375d)" style="fill: #ff7f0e"/>
   </g>
   <g id="patch_14">
    <path d="M 400.285829 381.026449 
L 441.921133 381.026449 
L 441.921133 292.020152 
L 400.285829 292.020152 
z
" clip-path="url(#pcbebc0375d)" style="fill: #ff7f0e"/>
   </g>
   <g id="patch_15">
    <path d="M 483.556437 381.026449 
L 525.19174 381.026449 
L 525.19174 281.339396 
L 483.556437 281.339396 
z
" clip-path="url(#pcbebc0375d)" style="fill: #ff7f0e"/>
   </g>
   <g id="patch_16">
    <path d="M 566.827044 377.466197 
L 608.462348 377.466197 
L 608.462348 277.779144 
L 566.827044 277.779144 
z
" clip-path="url(#pcbebc0375d)" style="fill: #ff7f0e"/>
   </g>
   <g id="patch_17">
    <path d="M 67.203398 377.466197 
L 108.838702 377.466197 
L 108.838702 373.905945 
L 67.203398 373.905945 
z
" clip-path="url(#pcbebc0375d)" style="fill: #2ca02c"/>
   </g>
   <g id="patch_18">
    <path d="M 150.474006 352.544434 
L 192.10931 352.544434 
L 192.10931 348.984182 
L 150.474006 348.984182 
z
" clip-path="url(#pcbebc0375d)" style="fill: #2ca02c"/>
   </g>
   <g id="patch_19">
    <path d="M 233.744614 316.941915 
L 275.379917 316.941915 
L 275.379917 313.381663 
L 233.744614 313.381663 
z
" clip-path="url(#pcbebc0375d)" style="fill: #2ca02c"/>
   </g>
   <g id="patch_20">
    <path d="M 317.015221 306.261159 
L 358.650525 306.261159 
L 358.650525 302.700907 
L 317.015221 302.700907 
z
" clip-path="url(#pcbebc0375d)" style="fill: #2ca02c"/>
   </g>
   <g id="patch_21">
    <path d="M 400.285829 292.020152 
L 441.921133 292.020152 
L 441.921133 277.779144 
L 400.285829 277.779144 
z
" clip-path="url(#pcbebc0375d)" style="fill: #2ca02c"/>
   </g>
   <g id="patch_22">
    <path d="M 483.556437 281.339396 
L 525.19174 281.339396 
L 525.19174 259.977884 
L 483.556437 259.977884 
z
" clip-path="url(#pcbebc0375d)" style="fill: #2ca02c"/>
   </g>
   <g id="patch_23">
    <path d="M 566.827044 277.779144 
L 608.462348 277.779144 
L 608.462348 252.857381 
L 566.827044 252.857381 
z
" clip-path="url(#pcbebc0375d)" style="fill: #2ca02c"/>
   </g>
   <g id="patch_24">
    <path d="M 67.203398 381.026449 
L 108.838702 381.026449 
L 108.838702 381.026449 
L 67.203398 381.026449 
z
" clip-path="url(#pcbebc0375d)" style="fill: #d62728"/>
   </g>
   <g id="patch_25">
    <path d="M 150.474006 348.984182 
L 192.10931 348.984182 
L 192.10931 345.42393 
L 150.474006 345.42393 
z
" clip-path="url(#pcbebc0375d)" style="fill: #d62728"/>
   </g>
   <g id="patch_26">
    <path d="M 233.744614 313.381663 
L 275.379917 313.381663 
L 275.379917 309.821411 
L 233.744614 309.821411 
z
" clip-path="url(#pcbebc0375d)" style="fill: #d62728"/>
   </g>
   <g id="patch_27">
    <path d="M 317.015221 302.700907 
L 358.650525 302.700907 
L 358.650525 295.580403 
L 317.015221 295.580403 
z
" clip-path="url(#pcbebc0375d)" style="fill: #d62728"/>
   </g>
   <g id="patch_28">
    <path d="M 400.285829 277.779144 
L 441.921133 277.779144 
L 441.921133 267.098388 
L 400.285829 267.098388 
z
" clip-path="url(#pcbebc0375d)" style="fill: #d62728"/>
   </g>
   <g id="patch_29">
    <path d="M 483.556437 259.977884 
L 525.19174 259.977884 
L 525.19174 249.297129 
L 483.556437 249.297129 
z
" clip-path="url(#pcbebc0375d)" style="fill: #d62728"/>
   </g>
   <g id="patch_30">
    <path d="M 566.827044 252.857381 
L 608.462348 252.857381 
L 608.462348 238.616373 
L 566.827044 238.616373 
z
" clip-path="url(#pcbebc0375d)" style="fill: #d62728"/>
   </g>
   <g id="patch_31">
    <path d="M 67.203398 381.026449 
L 108.838702 381.026449 
L 108.838702 381.026449 
L 67.203398 381.026449 
z
" clip-path="url(#pcbebc0375d)" style="fill: #9467bd"/>
   </g>
   <g id="patch_32">
    <path d="M 150.474006 345.42393 
L 192.10931 345.42393 
L 192.10931 338.303426 
L 150.474006 338.303426 
z
" clip-path="url(#pcbebc0375d)" style="fill: #9467bd"/>
   </g>
   <g id="patch_33">
    <path d="M 233.744614 309.821411 
L 275.379917 309.821411 
L 275.379917 274.218892 
L 233.744614 274.218892 
z
" clip-path="url(#pcbebc0375d)" style="fill: #9467bd"/>
   </g>
   <g id="patch_34">
    <path d="M 317.015221 295.580403 
L 358.650525 295.580403 
L 358.650525 224.375366 
L 317.015221 224.375366 
z
" clip-path="url(#pcbebc0375d)" style="fill: #9467bd"/>
   </g>
   <g id="patch_35">
    <path d="M 400.285829 267.098388 
L 441.921133 267.098388 
L 441.921133 167.411335 
L 400.285829 167.411335 
z
" clip-path="url(#pcbebc0375d)" style="fill: #9467bd"/>
   </g>
   <g id="patch_36">
    <path d="M 483.556437 249.297129 
L 525.19174 249.297129 
L 525.19174 110.447305 
L 483.556437 110.447305 
z
" clip-path="url(#pcbebc0375d)" style="fill: #9467bd"/>
   </g>
   <g id="patch_37">
    <path d="M 566.827044 238.616373 
L 608.462348 238.616373 
L 608.462348 89.085794 
L 566.827044 89.085794 
z
" clip-path="url(#pcbebc0375d)" style="fill: #9467bd"/>
   </g>
   <g id="patch_38">
    <path d="M 67.203398 381.026449 
L 108.838702 381.026449 
L 108.838702 381.026449 
L 67.203398 381.026449 
z
" clip-path="url(#pcbebc0375d)" style="fill: #8c564b"/>
   </g>
   <g id="patch_39">
    <path d="M 150.474006 338.303426 
L 192.10931 338.303426 
L 192.10931 331.182922 
L 150.474006 331.182922 
z
" clip-path="url(#pcbebc0375d)" style="fill: #8c564b"/>
   </g>
   <g id="patch_40">
    <path d="M 233.744614 274.218892 
L 275.379917 274.218892 
L 275.379917 256.417633 
L 233.744614 256.417633 
z
" clip-path="url(#pcbebc0375d)" style="fill: #8c564b"/>
   </g>
   <g id="patch_41">
    <path d="M 317.015221 224.375366 
L 358.650525 224.375366 
L 358.650525 203.013854 
L 317.015221 203.013854 
z
" clip-path="url(#pcbebc0375d)" style="fill: #8c564b"/>
   </g>
   <g id="patch_42">
    <path d="M 400.285829 167.411335 
L 441.921133 167.411335 
L 441.921133 146.049824 
L 400.285829 146.049824 
z
" clip-path="url(#pcbebc0375d)" style="fill: #8c564b"/>
   </g>
   <g id="patch_43">
    <path d="M 483.556437 110.447305 
L 525.19174 110.447305 
L 525.19174 85.525542 
L 483.556437 85.525542 
z
" clip-path="url(#pcbebc0375d)" style="fill: #8c564b"/>
   </g>
   <g id="patch_44">
    <path d="M 566.827044 89.085794 
L 608.462348 89.085794 
L 608.462348 53.483275 
L 566.827044 53.483275 
z
" clip-path="url(#pcbebc0375d)" style="fill: #8c564b"/>
   </g>
   <g id="patch_45">
    <path d="M 67.203398 381.026449 
L 108.838702 381.026449 
L 108.838702 381.026449 
L 67.203398 381.026449 
z
" clip-path="url(#pcbebc0375d)" style="fill: #e377c2"/>
   </g>
   <g id="patch_46">
    <path d="M 150.474006 381.026449 
L 192.10931 381.026449 
L 192.10931 381.026449 
L 150.474006 381.026449 
z
" clip-path="url(#pcbebc0375d)" style="fill: #e377c2"/>
   </g>
   <g id="patch_47">
    <path d="M 233.744614 381.026449 
L 275.379917 381.026449 
L 275.379917 381.026449 
L 233.744614 381.026449 
z
" clip-path="url(#pcbebc0375d)" style="fill: #e377c2"/>
   </g>
   <g id="patch_48">
    <path d="M 317.015221 203.013854 
L 358.650525 203.013854 
L 358.650525 199.453602 
L 317.015221 199.453602 
z
" clip-path="url(#pcbebc0375d)" style="fill: #e377c2"/>
   </g>
   <g id="patch_49">
    <path d="M 400.285829 146.049824 
L 441.921133 146.049824 
L 441.921133 142.489572 
L 400.285829 142.489572 
z
" clip-path="url(#pcbebc0375d)" style="fill: #e377c2"/>
   </g>
   <g id="patch_50">
    <path d="M 483.556437 85.525542 
L 525.19174 85.525542 
L 525.19174 81.96529 
L 483.556437 81.96529 
z
" clip-path="url(#pcbebc0375d)" style="fill: #e377c2"/>
   </g>
   <g id="patch_51">
    <path d="M 566.827044 53.483275 
L 608.462348 53.483275 
L 608.462348 49.923023 
L 566.827044 49.923023 
z
" clip-path="url(#pcbebc0375d)" style="fill: #e377c2"/>
   </g>
   <g id="patch_52">
    <path d="M 67.203398 381.026449 
L 108.838702 381.026449 
L 108.838702 381.026449 
L 67.203398 381.026449 
z
" clip-path="url(#pcbebc0375d)" style="fill: #7f7f7f"/>
   </g>
   <g id="patch_53">
    <path d="M 150.474006 331.182922 
L 192.10931 331.182922 
L 192.10931 327.62267 
L 150.474006 327.62267 
z
" clip-path="url(#pcbebc0375d)" style="fill: #7f7f7f"/>
   </g>
   <g id="patch_54">
    <path d="M 233.744614 256.417633 
L 275.379917 256.417633 
L 275.379917 245.736877 
L 233.744614 245.736877 
z
" clip-path="url(#pcbebc0375d)" style="fill: #7f7f7f"/>
   </g>
   <g id="patch_55">
    <path d="M 317.015221 199.453602 
L 358.650525 199.453602 
L 358.650525 188.772847 
L 317.015221 188.772847 
z
" clip-path="url(#pcbebc0375d)" style="fill: #7f7f7f"/>
   </g>
   <g id="patch_56">
    <path d="M 400.285829 142.489572 
L 441.921133 142.489572 
L 441.921133 121.128061 
L 400.285829 121.128061 
z
" clip-path="url(#pcbebc0375d)" style="fill: #7f7f7f"/>
   </g>
   <g id="patch_57">
    <path d="M 483.556437 81.96529 
L 525.19174 81.96529 
L 525.19174 60.603778 
L 483.556437 60.603778 
z
" clip-path="url(#pcbebc0375d)" style="fill: #7f7f7f"/>
   </g>
   <g id="patch_58">
    <path d="M 566.827044 49.923023 
L 608.462348 49.923023 
L 608.462348 28.561511 
L 566.827044 28.561511 
z
" clip-path="url(#pcbebc0375d)" style="fill: #7f7f7f"/>
   </g>
   <g id="patch_59">
    <path d="M 67.203398 381.026449 
L 108.838702 381.026449 
L 108.838702 381.026449 
L 67.203398 381.026449 
z
" clip-path="url(#pcbebc0375d)" style="fill: #bcbd22"/>
   </g>
   <g id="patch_60">
    <path d="M 150.474006 381.026449 
L 192.10931 381.026449 
L 192.10931 381.026449 
L 150.474006 381.026449 
z
" clip-path="url(#pcbebc0375d)" style="fill: #bcbd22"/>
   </g>
   <g id="patch_61">
    <path d="M 233.744614 381.026449 
L 275.379917 381.026449 
L 275.379917 381.026449 
L 233.744614 381.026449 
z
" clip-path="url(#pcbebc0375d)" style="fill: #bcbd22"/>
   </g>
   <g id="patch_62">
    <path d="M 317.015221 188.772847 
L 358.650525 188.772847 
L 358.650525 185.212595 
L 317.015221 185.212595 
z
" clip-path="url(#pcbebc0375d)" style="fill: #bcbd22"/>
   </g>
   <g id="patch_63">
    <path d="M 400.285829 121.128061 
L 441.921133 121.128061 
L 441.921133 117.567809 
L 400.285829 117.567809 
z
" clip-path="url(#pcbebc0375d)" style="fill: #bcbd22"/>
   </g>
   <g id="patch_64">
    <path d="M 483.556437 60.603778 
L 525.19174 60.603778 
L 525.19174 57.043527 
L 483.556437 57.043527 
z
" clip-path="url(#pcbebc0375d)" style="fill: #bcbd22"/>
   </g>
   <g id="patch_65">
    <path d="M 566.827044 28.561511 
L 608.462348 28.561511 
L 608.462348 25.001259 
L 566.827044 25.001259 
z
" clip-path="url(#pcbebc0375d)" style="fill: #bcbd22"/>
   </g>
   <g id="matplotlib.axis_1">
    <g id="xtick_1">
     <g id="line2d_1">
      <path d="M 88.02105 381.026449 
L 88.02105 7.2 
" clip-path="url(#pcbebc0375d)" style="fill: none; stroke-dasharray: 0.4,0.66; stroke-dashoffset: 0; stroke: #808080; stroke-width: 0.4"/>
     </g>
     <g id="line2d_2">
      <defs>
       <path id="m4c53db1a7e" d="M 0 0 
L 0 3.5 
" style="stroke: #000000; stroke-width: 0.8"/>
      </defs>
      <g>
       <use xlink:href="#m4c53db1a7e" x="88.02105" y="381.026449" style="stroke: #000000; stroke-width: 0.8"/>
      </g>
     </g>
     <g id="text_1">
      <!-- 2019 -->
      <g transform="translate(76.31507 396.328629) scale(0.12 -0.12)">
       <defs>
        <path id="CMR17-32" d="M 2669 990 
L 2554 990 
C 2490 537 2438 460 2413 422 
C 2381 371 1920 371 1830 371 
L 602 371 
C 832 620 1280 1073 1824 1596 
C 2214 1966 2669 2400 2669 3033 
C 2669 3788 2067 4224 1395 4224 
C 691 4224 262 3603 262 3027 
C 262 2777 448 2745 525 2745 
C 589 2745 781 2783 781 3007 
C 781 3206 614 3264 525 3264 
C 486 3264 448 3257 422 3244 
C 544 3788 915 4057 1306 4057 
C 1862 4057 2227 3616 2227 3033 
C 2227 2477 1901 1998 1536 1583 
L 262 147 
L 262 0 
L 2515 0 
L 2669 990 
z
" transform="scale(0.015625)"/>
        <path id="CMR17-30" d="M 2688 2038 
C 2688 2430 2682 3099 2413 3613 
C 2176 4063 1798 4224 1466 4224 
C 1158 4224 768 4082 525 3620 
C 269 3137 243 2539 243 2038 
C 243 1671 250 1112 448 623 
C 723 -39 1216 -128 1466 -128 
C 1760 -128 2208 -7 2470 604 
C 2662 1048 2688 1568 2688 2038 
z
M 1466 -26 
C 1056 -26 813 328 723 816 
C 653 1196 653 1749 653 2109 
C 653 2604 653 3015 736 3407 
C 858 3954 1216 4121 1466 4121 
C 1728 4121 2067 3947 2189 3420 
C 2272 3054 2278 2623 2278 2109 
C 2278 1691 2278 1176 2202 797 
C 2067 96 1690 -26 1466 -26 
z
" transform="scale(0.015625)"/>
        <path id="CMR17-31" d="M 1702 4083 
C 1702 4217 1696 4224 1606 4224 
C 1357 3927 979 3833 621 3820 
C 602 3820 570 3820 563 3808 
C 557 3795 557 3782 557 3648 
C 755 3648 1088 3686 1344 3839 
L 1344 467 
C 1344 243 1331 166 781 166 
L 589 166 
L 589 0 
C 896 6 1216 12 1523 12 
C 1830 12 2150 6 2458 0 
L 2458 166 
L 2266 166 
C 1715 166 1702 236 1702 467 
L 1702 4083 
z
" transform="scale(0.015625)"/>
        <path id="CMR17-39" d="M 2253 1871 
C 2253 448 1670 25 1190 25 
C 1043 25 685 43 538 281 
C 704 256 826 345 826 505 
C 826 678 685 736 595 736 
C 538 736 365 710 365 492 
C 365 68 742 -128 1203 -128 
C 1939 -128 2688 665 2688 2090 
C 2688 3857 1971 4224 1485 4224 
C 851 4224 243 3664 243 2800 
C 243 2000 762 1408 1414 1408 
C 1952 1408 2189 1910 2253 2122 
L 2253 1871 
z
M 1427 1510 
C 1254 1510 1011 1542 813 1929 
C 678 2181 678 2477 678 2793 
C 678 3174 678 3438 858 3722 
C 947 3857 1114 4076 1485 4076 
C 2240 4076 2240 2909 2240 2651 
C 2240 2193 2035 1510 1427 1510 
z
" transform="scale(0.015625)"/>
       </defs>
       <use xlink:href="#CMR17-32" transform="scale(0.996264)"/>
       <use xlink:href="#CMR17-30" transform="translate(45.690477 0) scale(0.996264)"/>
       <use xlink:href="#CMR17-31" transform="translate(91.380954 0) scale(0.996264)"/>
       <use xlink:href="#CMR17-39" transform="translate(137.071431 0) scale(0.996264)"/>
      </g>
     </g>
    </g>
    <g id="xtick_2">
     <g id="line2d_3">
      <path d="M 171.291658 381.026449 
L 171.291658 7.2 
" clip-path="url(#pcbebc0375d)" style="fill: none; stroke-dasharray: 0.4,0.66; stroke-dashoffset: 0; stroke: #808080; stroke-width: 0.4"/>
     </g>
     <g id="line2d_4">
      <g>
       <use xlink:href="#m4c53db1a7e" x="171.291658" y="381.026449" style="stroke: #000000; stroke-width: 0.8"/>
      </g>
     </g>
     <g id="text_2">
      <!-- 2020 -->
      <g transform="translate(159.585677 396.328629) scale(0.12 -0.12)">
       <use xlink:href="#CMR17-32" transform="scale(0.996264)"/>
       <use xlink:href="#CMR17-30" transform="translate(45.690477 0) scale(0.996264)"/>
       <use xlink:href="#CMR17-32" transform="translate(91.380954 0) scale(0.996264)"/>
       <use xlink:href="#CMR17-30" transform="translate(137.071431 0) scale(0.996264)"/>
      </g>
     </g>
    </g>
    <g id="xtick_3">
     <g id="line2d_5">
      <path d="M 254.562265 381.026449 
L 254.562265 7.2 
" clip-path="url(#pcbebc0375d)" style="fill: none; stroke-dasharray: 0.4,0.66; stroke-dashoffset: 0; stroke: #808080; stroke-width: 0.4"/>
     </g>
     <g id="line2d_6">
      <g>
       <use xlink:href="#m4c53db1a7e" x="254.562265" y="381.026449" style="stroke: #000000; stroke-width: 0.8"/>
      </g>
     </g>
     <g id="text_3">
      <!-- 2021 -->
      <g transform="translate(242.856285 396.328629) scale(0.12 -0.12)">
       <use xlink:href="#CMR17-32" transform="scale(0.996264)"/>
       <use xlink:href="#CMR17-30" transform="translate(45.690477 0) scale(0.996264)"/>
       <use xlink:href="#CMR17-32" transform="translate(91.380954 0) scale(0.996264)"/>
       <use xlink:href="#CMR17-31" transform="translate(137.071431 0) scale(0.996264)"/>
      </g>
     </g>
    </g>
    <g id="xtick_4">
     <g id="line2d_7">
      <path d="M 337.832873 381.026449 
L 337.832873 7.2 
" clip-path="url(#pcbebc0375d)" style="fill: none; stroke-dasharray: 0.4,0.66; stroke-dashoffset: 0; stroke: #808080; stroke-width: 0.4"/>
     </g>
     <g id="line2d_8">
      <g>
       <use xlink:href="#m4c53db1a7e" x="337.832873" y="381.026449" style="stroke: #000000; stroke-width: 0.8"/>
      </g>
     </g>
     <g id="text_4">
      <!-- 2022 -->
      <g transform="translate(326.126893 396.328629) scale(0.12 -0.12)">
       <use xlink:href="#CMR17-32" transform="scale(0.996264)"/>
       <use xlink:href="#CMR17-30" transform="translate(45.690477 0) scale(0.996264)"/>
       <use xlink:href="#CMR17-32" transform="translate(91.380954 0) scale(0.996264)"/>
       <use xlink:href="#CMR17-32" transform="translate(137.071431 0) scale(0.996264)"/>
      </g>
     </g>
    </g>
    <g id="xtick_5">
     <g id="line2d_9">
      <path d="M 421.103481 381.026449 
L 421.103481 7.2 
" clip-path="url(#pcbebc0375d)" style="fill: none; stroke-dasharray: 0.4,0.66; stroke-dashoffset: 0; stroke: #808080; stroke-width: 0.4"/>
     </g>
     <g id="line2d_10">
      <g>
       <use xlink:href="#m4c53db1a7e" x="421.103481" y="381.026449" style="stroke: #000000; stroke-width: 0.8"/>
      </g>
     </g>
     <g id="text_5">
      <!-- 2023 -->
      <g transform="translate(409.3975 396.328629) scale(0.12 -0.12)">
       <defs>
        <path id="CMR17-33" d="M 1414 2176 
C 1984 2176 2234 1673 2234 1094 
C 2234 322 1824 25 1453 25 
C 1114 25 563 193 390 691 
C 422 678 454 678 486 678 
C 640 678 755 780 755 947 
C 755 1132 614 1216 486 1216 
C 378 1216 211 1164 211 927 
C 211 335 787 -128 1466 -128 
C 2176 -128 2720 432 2720 1087 
C 2720 1718 2208 2176 1600 2246 
C 2086 2347 2554 2776 2554 3353 
C 2554 3856 2048 4224 1472 4224 
C 890 4224 378 3862 378 3347 
C 378 3123 544 3084 627 3084 
C 762 3084 877 3167 877 3334 
C 877 3500 762 3584 627 3584 
C 602 3584 570 3584 544 3571 
C 730 3999 1235 4076 1459 4076 
C 1683 4076 2106 3966 2106 3347 
C 2106 3167 2080 2851 1862 2574 
C 1670 2329 1453 2316 1242 2297 
C 1210 2297 1062 2284 1037 2284 
C 992 2278 966 2272 966 2227 
C 966 2182 973 2176 1101 2176 
L 1414 2176 
z
" transform="scale(0.015625)"/>
       </defs>
       <use xlink:href="#CMR17-32" transform="scale(0.996264)"/>
       <use xlink:href="#CMR17-30" transform="translate(45.690477 0) scale(0.996264)"/>
       <use xlink:href="#CMR17-32" transform="translate(91.380954 0) scale(0.996264)"/>
       <use xlink:href="#CMR17-33" transform="translate(137.071431 0) scale(0.996264)"/>
      </g>
     </g>
    </g>
    <g id="xtick_6">
     <g id="line2d_11">
      <path d="M 504.374088 381.026449 
L 504.374088 7.2 
" clip-path="url(#pcbebc0375d)" style="fill: none; stroke-dasharray: 0.4,0.66; stroke-dashoffset: 0; stroke: #808080; stroke-width: 0.4"/>
     </g>
     <g id="line2d_12">
      <g>
       <use xlink:href="#m4c53db1a7e" x="504.374088" y="381.026449" style="stroke: #000000; stroke-width: 0.8"/>
      </g>
     </g>
     <g id="text_6">
      <!-- 2024 -->
      <g transform="translate(492.668108 396.328629) scale(0.12 -0.12)">
       <defs>
        <path id="CMR17-34" d="M 2150 4147 
C 2150 4281 2144 4288 2029 4288 
L 128 1254 
L 128 1088 
L 1779 1088 
L 1779 460 
C 1779 230 1766 166 1318 166 
L 1197 166 
L 1197 0 
C 1402 12 1747 12 1965 12 
C 2182 12 2528 12 2733 0 
L 2733 166 
L 2611 166 
C 2163 166 2150 230 2150 460 
L 2150 1088 
L 2803 1088 
L 2803 1254 
L 2150 1254 
L 2150 4147 
z
M 1798 3723 
L 1798 1254 
L 256 1254 
L 1798 3723 
z
" transform="scale(0.015625)"/>
       </defs>
       <use xlink:href="#CMR17-32" transform="scale(0.996264)"/>
       <use xlink:href="#CMR17-30" transform="translate(45.690477 0) scale(0.996264)"/>
       <use xlink:href="#CMR17-32" transform="translate(91.380954 0) scale(0.996264)"/>
       <use xlink:href="#CMR17-34" transform="translate(137.071431 0) scale(0.996264)"/>
      </g>
     </g>
    </g>
    <g id="xtick_7">
     <g id="line2d_13">
      <path d="M 587.644696 381.026449 
L 587.644696 7.2 
" clip-path="url(#pcbebc0375d)" style="fill: none; stroke-dasharray: 0.4,0.66; stroke-dashoffset: 0; stroke: #808080; stroke-width: 0.4"/>
     </g>
     <g id="line2d_14">
      <g>
       <use xlink:href="#m4c53db1a7e" x="587.644696" y="381.026449" style="stroke: #000000; stroke-width: 0.8"/>
      </g>
     </g>
     <g id="text_7">
      <!-- 2025 -->
      <g transform="translate(575.938716 396.328629) scale(0.12 -0.12)">
       <defs>
        <path id="CMR17-35" d="M 730 3750 
C 794 3724 1056 3641 1325 3641 
C 1920 3641 2246 3961 2432 4140 
C 2432 4191 2432 4224 2394 4224 
C 2387 4224 2374 4224 2323 4198 
C 2099 4102 1837 4032 1517 4032 
C 1325 4032 1037 4055 723 4191 
C 653 4224 640 4224 634 4224 
C 602 4224 595 4217 595 4090 
L 595 2231 
C 595 2113 595 2080 659 2080 
C 691 2080 704 2093 736 2139 
C 941 2435 1222 2560 1542 2560 
C 1766 2560 2246 2415 2246 1293 
C 2246 1087 2246 716 2054 422 
C 1894 159 1645 25 1370 25 
C 947 25 518 319 403 812 
C 429 806 480 793 506 793 
C 589 793 749 838 749 1036 
C 749 1209 627 1280 506 1280 
C 358 1280 262 1190 262 1011 
C 262 454 704 -128 1382 -128 
C 2042 -128 2669 441 2669 1267 
C 2669 2054 2170 2662 1549 2662 
C 1222 2662 947 2540 730 2304 
L 730 3750 
z
" transform="scale(0.015625)"/>
       </defs>
       <use xlink:href="#CMR17-32" transform="scale(0.996264)"/>
       <use xlink:href="#CMR17-30" transform="translate(45.690477 0) scale(0.996264)"/>
       <use xlink:href="#CMR17-32" transform="translate(91.380954 0) scale(0.996264)"/>
       <use xlink:href="#CMR17-35" transform="translate(137.071431 0) scale(0.996264)"/>
      </g>
     </g>
    </g>
    <g id="xtick_8">
     <g id="line2d_15">
      <path d="M 54.712807 381.026449 
L 54.712807 7.2 
" clip-path="url(#pcbebc0375d)" style="fill: none; stroke-dasharray: 0.4,0.66; stroke-dashoffset: 0; stroke: #808080; stroke-width: 0.4"/>
     </g>
     <g id="line2d_16">
      <defs>
       <path id="mcdb7fc168f" d="M 0 0 
L 0 2 
" style="stroke: #000000; stroke-width: 0.6"/>
      </defs>
      <g>
       <use xlink:href="#mcdb7fc168f" x="54.712807" y="381.026449" style="stroke: #000000; stroke-width: 0.6"/>
      </g>
     </g>
    </g>
    <g id="xtick_9">
     <g id="line2d_17">
      <path d="M 71.366929 381.026449 
L 71.366929 7.2 
" clip-path="url(#pcbebc0375d)" style="fill: none; stroke-dasharray: 0.4,0.66; stroke-dashoffset: 0; stroke: #808080; stroke-width: 0.4"/>
     </g>
     <g id="line2d_18">
      <g>
       <use xlink:href="#mcdb7fc168f" x="71.366929" y="381.026449" style="stroke: #000000; stroke-width: 0.6"/>
      </g>
     </g>
    </g>
    <g id="xtick_10">
     <g id="line2d_19">
      <path d="M 104.675172 381.026449 
L 104.675172 7.2 
" clip-path="url(#pcbebc0375d)" style="fill: none; stroke-dasharray: 0.4,0.66; stroke-dashoffset: 0; stroke: #808080; stroke-width: 0.4"/>
     </g>
     <g id="line2d_20">
      <g>
       <use xlink:href="#mcdb7fc168f" x="104.675172" y="381.026449" style="stroke: #000000; stroke-width: 0.6"/>
      </g>
     </g>
    </g>
    <g id="xtick_11">
     <g id="line2d_21">
      <path d="M 121.329293 381.026449 
L 121.329293 7.2 
" clip-path="url(#pcbebc0375d)" style="fill: none; stroke-dasharray: 0.4,0.66; stroke-dashoffset: 0; stroke: #808080; stroke-width: 0.4"/>
     </g>
     <g id="line2d_22">
      <g>
       <use xlink:href="#mcdb7fc168f" x="121.329293" y="381.026449" style="stroke: #000000; stroke-width: 0.6"/>
      </g>
     </g>
    </g>
    <g id="xtick_12">
     <g id="line2d_23">
      <path d="M 137.983415 381.026449 
L 137.983415 7.2 
" clip-path="url(#pcbebc0375d)" style="fill: none; stroke-dasharray: 0.4,0.66; stroke-dashoffset: 0; stroke: #808080; stroke-width: 0.4"/>
     </g>
     <g id="line2d_24">
      <g>
       <use xlink:href="#mcdb7fc168f" x="137.983415" y="381.026449" style="stroke: #000000; stroke-width: 0.6"/>
      </g>
     </g>
    </g>
    <g id="xtick_13">
     <g id="line2d_25">
      <path d="M 154.637536 381.026449 
L 154.637536 7.2 
" clip-path="url(#pcbebc0375d)" style="fill: none; stroke-dasharray: 0.4,0.66; stroke-dashoffset: 0; stroke: #808080; stroke-width: 0.4"/>
     </g>
     <g id="line2d_26">
      <g>
       <use xlink:href="#mcdb7fc168f" x="154.637536" y="381.026449" style="stroke: #000000; stroke-width: 0.6"/>
      </g>
     </g>
    </g>
    <g id="xtick_14">
     <g id="line2d_27">
      <path d="M 187.945779 381.026449 
L 187.945779 7.2 
" clip-path="url(#pcbebc0375d)" style="fill: none; stroke-dasharray: 0.4,0.66; stroke-dashoffset: 0; stroke: #808080; stroke-width: 0.4"/>
     </g>
     <g id="line2d_28">
      <g>
       <use xlink:href="#mcdb7fc168f" x="187.945779" y="381.026449" style="stroke: #000000; stroke-width: 0.6"/>
      </g>
     </g>
    </g>
    <g id="xtick_15">
     <g id="line2d_29">
      <path d="M 204.599901 381.026449 
L 204.599901 7.2 
" clip-path="url(#pcbebc0375d)" style="fill: none; stroke-dasharray: 0.4,0.66; stroke-dashoffset: 0; stroke: #808080; stroke-width: 0.4"/>
     </g>
     <g id="line2d_30">
      <g>
       <use xlink:href="#mcdb7fc168f" x="204.599901" y="381.026449" style="stroke: #000000; stroke-width: 0.6"/>
      </g>
     </g>
    </g>
    <g id="xtick_16">
     <g id="line2d_31">
      <path d="M 221.254022 381.026449 
L 221.254022 7.2 
" clip-path="url(#pcbebc0375d)" style="fill: none; stroke-dasharray: 0.4,0.66; stroke-dashoffset: 0; stroke: #808080; stroke-width: 0.4"/>
     </g>
     <g id="line2d_32">
      <g>
       <use xlink:href="#mcdb7fc168f" x="221.254022" y="381.026449" style="stroke: #000000; stroke-width: 0.6"/>
      </g>
     </g>
    </g>
    <g id="xtick_17">
     <g id="line2d_33">
      <path d="M 237.908144 381.026449 
L 237.908144 7.2 
" clip-path="url(#pcbebc0375d)" style="fill: none; stroke-dasharray: 0.4,0.66; stroke-dashoffset: 0; stroke: #808080; stroke-width: 0.4"/>
     </g>
     <g id="line2d_34">
      <g>
       <use xlink:href="#mcdb7fc168f" x="237.908144" y="381.026449" style="stroke: #000000; stroke-width: 0.6"/>
      </g>
     </g>
    </g>
    <g id="xtick_18">
     <g id="line2d_35">
      <path d="M 271.216387 381.026449 
L 271.216387 7.2 
" clip-path="url(#pcbebc0375d)" style="fill: none; stroke-dasharray: 0.4,0.66; stroke-dashoffset: 0; stroke: #808080; stroke-width: 0.4"/>
     </g>
     <g id="line2d_36">
      <g>
       <use xlink:href="#mcdb7fc168f" x="271.216387" y="381.026449" style="stroke: #000000; stroke-width: 0.6"/>
      </g>
     </g>
    </g>
    <g id="xtick_19">
     <g id="line2d_37">
      <path d="M 287.870509 381.026449 
L 287.870509 7.2 
" clip-path="url(#pcbebc0375d)" style="fill: none; stroke-dasharray: 0.4,0.66; stroke-dashoffset: 0; stroke: #808080; stroke-width: 0.4"/>
     </g>
     <g id="line2d_38">
      <g>
       <use xlink:href="#mcdb7fc168f" x="287.870509" y="381.026449" style="stroke: #000000; stroke-width: 0.6"/>
      </g>
     </g>
    </g>
    <g id="xtick_20">
     <g id="line2d_39">
      <path d="M 304.52463 381.026449 
L 304.52463 7.2 
" clip-path="url(#pcbebc0375d)" style="fill: none; stroke-dasharray: 0.4,0.66; stroke-dashoffset: 0; stroke: #808080; stroke-width: 0.4"/>
     </g>
     <g id="line2d_40">
      <g>
       <use xlink:href="#mcdb7fc168f" x="304.52463" y="381.026449" style="stroke: #000000; stroke-width: 0.6"/>
      </g>
     </g>
    </g>
    <g id="xtick_21">
     <g id="line2d_41">
      <path d="M 321.178752 381.026449 
L 321.178752 7.2 
" clip-path="url(#pcbebc0375d)" style="fill: none; stroke-dasharray: 0.4,0.66; stroke-dashoffset: 0; stroke: #808080; stroke-width: 0.4"/>
     </g>
     <g id="line2d_42">
      <g>
       <use xlink:href="#mcdb7fc168f" x="321.178752" y="381.026449" style="stroke: #000000; stroke-width: 0.6"/>
      </g>
     </g>
    </g>
    <g id="xtick_22">
     <g id="line2d_43">
      <path d="M 354.486995 381.026449 
L 354.486995 7.2 
" clip-path="url(#pcbebc0375d)" style="fill: none; stroke-dasharray: 0.4,0.66; stroke-dashoffset: 0; stroke: #808080; stroke-width: 0.4"/>
     </g>
     <g id="line2d_44">
      <g>
       <use xlink:href="#mcdb7fc168f" x="354.486995" y="381.026449" style="stroke: #000000; stroke-width: 0.6"/>
      </g>
     </g>
    </g>
    <g id="xtick_23">
     <g id="line2d_45">
      <path d="M 371.141116 381.026449 
L 371.141116 7.2 
" clip-path="url(#pcbebc0375d)" style="fill: none; stroke-dasharray: 0.4,0.66; stroke-dashoffset: 0; stroke: #808080; stroke-width: 0.4"/>
     </g>
     <g id="line2d_46">
      <g>
       <use xlink:href="#mcdb7fc168f" x="371.141116" y="381.026449" style="stroke: #000000; stroke-width: 0.6"/>
      </g>
     </g>
    </g>
    <g id="xtick_24">
     <g id="line2d_47">
      <path d="M 387.795238 381.026449 
L 387.795238 7.2 
" clip-path="url(#pcbebc0375d)" style="fill: none; stroke-dasharray: 0.4,0.66; stroke-dashoffset: 0; stroke: #808080; stroke-width: 0.4"/>
     </g>
     <g id="line2d_48">
      <g>
       <use xlink:href="#mcdb7fc168f" x="387.795238" y="381.026449" style="stroke: #000000; stroke-width: 0.6"/>
      </g>
     </g>
    </g>
    <g id="xtick_25">
     <g id="line2d_49">
      <path d="M 404.449359 381.026449 
L 404.449359 7.2 
" clip-path="url(#pcbebc0375d)" style="fill: none; stroke-dasharray: 0.4,0.66; stroke-dashoffset: 0; stroke: #808080; stroke-width: 0.4"/>
     </g>
     <g id="line2d_50">
      <g>
       <use xlink:href="#mcdb7fc168f" x="404.449359" y="381.026449" style="stroke: #000000; stroke-width: 0.6"/>
      </g>
     </g>
    </g>
    <g id="xtick_26">
     <g id="line2d_51">
      <path d="M 437.757602 381.026449 
L 437.757602 7.2 
" clip-path="url(#pcbebc0375d)" style="fill: none; stroke-dasharray: 0.4,0.66; stroke-dashoffset: 0; stroke: #808080; stroke-width: 0.4"/>
     </g>
     <g id="line2d_52">
      <g>
       <use xlink:href="#mcdb7fc168f" x="437.757602" y="381.026449" style="stroke: #000000; stroke-width: 0.6"/>
      </g>
     </g>
    </g>
    <g id="xtick_27">
     <g id="line2d_53">
      <path d="M 454.411724 381.026449 
L 454.411724 7.2 
" clip-path="url(#pcbebc0375d)" style="fill: none; stroke-dasharray: 0.4,0.66; stroke-dashoffset: 0; stroke: #808080; stroke-width: 0.4"/>
     </g>
     <g id="line2d_54">
      <g>
       <use xlink:href="#mcdb7fc168f" x="454.411724" y="381.026449" style="stroke: #000000; stroke-width: 0.6"/>
      </g>
     </g>
    </g>
    <g id="xtick_28">
     <g id="line2d_55">
      <path d="M 471.065845 381.026449 
L 471.065845 7.2 
" clip-path="url(#pcbebc0375d)" style="fill: none; stroke-dasharray: 0.4,0.66; stroke-dashoffset: 0; stroke: #808080; stroke-width: 0.4"/>
     </g>
     <g id="line2d_56">
      <g>
       <use xlink:href="#mcdb7fc168f" x="471.065845" y="381.026449" style="stroke: #000000; stroke-width: 0.6"/>
      </g>
     </g>
    </g>
    <g id="xtick_29">
     <g id="line2d_57">
      <path d="M 487.719967 381.026449 
L 487.719967 7.2 
" clip-path="url(#pcbebc0375d)" style="fill: none; stroke-dasharray: 0.4,0.66; stroke-dashoffset: 0; stroke: #808080; stroke-width: 0.4"/>
     </g>
     <g id="line2d_58">
      <g>
       <use xlink:href="#mcdb7fc168f" x="487.719967" y="381.026449" style="stroke: #000000; stroke-width: 0.6"/>
      </g>
     </g>
    </g>
    <g id="xtick_30">
     <g id="line2d_59">
      <path d="M 521.02821 381.026449 
L 521.02821 7.2 
" clip-path="url(#pcbebc0375d)" style="fill: none; stroke-dasharray: 0.4,0.66; stroke-dashoffset: 0; stroke: #808080; stroke-width: 0.4"/>
     </g>
     <g id="line2d_60">
      <g>
       <use xlink:href="#mcdb7fc168f" x="521.02821" y="381.026449" style="stroke: #000000; stroke-width: 0.6"/>
      </g>
     </g>
    </g>
    <g id="xtick_31">
     <g id="line2d_61">
      <path d="M 537.682332 381.026449 
L 537.682332 7.2 
" clip-path="url(#pcbebc0375d)" style="fill: none; stroke-dasharray: 0.4,0.66; stroke-dashoffset: 0; stroke: #808080; stroke-width: 0.4"/>
     </g>
     <g id="line2d_62">
      <g>
       <use xlink:href="#mcdb7fc168f" x="537.682332" y="381.026449" style="stroke: #000000; stroke-width: 0.6"/>
      </g>
     </g>
    </g>
    <g id="xtick_32">
     <g id="line2d_63">
      <path d="M 554.336453 381.026449 
L 554.336453 7.2 
" clip-path="url(#pcbebc0375d)" style="fill: none; stroke-dasharray: 0.4,0.66; stroke-dashoffset: 0; stroke: #808080; stroke-width: 0.4"/>
     </g>
     <g id="line2d_64">
      <g>
       <use xlink:href="#mcdb7fc168f" x="554.336453" y="381.026449" style="stroke: #000000; stroke-width: 0.6"/>
      </g>
     </g>
    </g>
    <g id="xtick_33">
     <g id="line2d_65">
      <path d="M 570.990575 381.026449 
L 570.990575 7.2 
" clip-path="url(#pcbebc0375d)" style="fill: none; stroke-dasharray: 0.4,0.66; stroke-dashoffset: 0; stroke: #808080; stroke-width: 0.4"/>
     </g>
     <g id="line2d_66">
      <g>
       <use xlink:href="#mcdb7fc168f" x="570.990575" y="381.026449" style="stroke: #000000; stroke-width: 0.6"/>
      </g>
     </g>
    </g>
    <g id="xtick_34">
     <g id="line2d_67">
      <path d="M 604.298818 381.026449 
L 604.298818 7.2 
" clip-path="url(#pcbebc0375d)" style="fill: none; stroke-dasharray: 0.4,0.66; stroke-dashoffset: 0; stroke: #808080; stroke-width: 0.4"/>
     </g>
     <g id="line2d_68">
      <g>
       <use xlink:href="#mcdb7fc168f" x="604.298818" y="381.026449" style="stroke: #000000; stroke-width: 0.6"/>
      </g>
     </g>
    </g>
    <g id="xtick_35">
     <g id="line2d_69">
      <path d="M 620.952939 381.026449 
L 620.952939 7.2 
" clip-path="url(#pcbebc0375d)" style="fill: none; stroke-dasharray: 0.4,0.66; stroke-dashoffset: 0; stroke: #808080; stroke-width: 0.4"/>
     </g>
     <g id="line2d_70">
      <g>
       <use xlink:href="#mcdb7fc168f" x="620.952939" y="381.026449" style="stroke: #000000; stroke-width: 0.6"/>
      </g>
     </g>
    </g>
    <g id="text_8">
     <!-- Year -->
     <g transform="translate(326.128968 410.955404) scale(0.12 -0.12)">
      <defs>
       <path id="CMR17-59" d="M 3706 3784 
C 3955 4178 4301 4185 4416 4185 
L 4416 4352 
C 4269 4339 4102 4339 3942 4339 
C 3782 4339 3526 4339 3373 4352 
L 3373 4185 
C 3533 4178 3616 4096 3616 3975 
C 3616 3898 3584 3847 3533 3764 
L 2381 1924 
L 1120 3930 
C 1075 4007 1069 4013 1069 4057 
C 1069 4185 1293 4185 1382 4185 
L 1382 4352 
C 1178 4339 864 4339 653 4339 
C 486 4339 166 4339 13 4352 
L 13 4185 
C 378 4185 480 4166 595 3981 
L 2010 1739 
L 2010 453 
C 2010 166 1939 166 1498 166 
L 1498 0 
C 1683 12 2016 12 2214 12 
C 2413 12 2752 12 2938 0 
L 2938 166 
C 2477 166 2419 166 2419 478 
L 2419 1739 
L 3706 3784 
z
" transform="scale(0.015625)"/>
       <path id="CMR17-65" d="M 2438 1503 
C 2464 1529 2464 1542 2464 1606 
C 2464 2251 2118 2816 1389 2816 
C 710 2816 173 2175 173 1394 
C 173 554 781 -64 1459 -64 
C 2176 -64 2458 619 2458 755 
C 2458 800 2419 800 2406 800 
C 2362 800 2355 787 2330 709 
C 2189 270 1837 51 1504 51 
C 1229 51 954 206 781 490 
C 582 819 582 1200 582 1503 
L 2438 1503 
z
M 589 1600 
C 634 2511 1126 2713 1382 2713 
C 1818 2713 2112 2308 2118 1600 
L 589 1600 
z
" transform="scale(0.015625)"/>
       <path id="CMR17-61" d="M 2304 1656 
C 2304 2048 2304 2275 2035 2534 
C 1798 2751 1523 2816 1306 2816 
C 800 2816 435 2408 435 1977 
C 435 1740 627 1728 666 1728 
C 749 1728 896 1779 896 1958 
C 896 2118 774 2188 666 2188 
C 640 2188 608 2182 589 2176 
C 723 2594 1069 2713 1293 2713 
C 1613 2713 1965 2421 1965 1875 
L 1965 1632 
C 1587 1619 1133 1568 774 1373 
C 371 1147 256 822 256 576 
C 256 77 832 -64 1171 -64 
C 1523 -64 1850 135 1990 505 
C 2003 219 2182 -39 2464 -39 
C 2598 -39 2938 51 2938 563 
L 2938 926 
L 2822 926 
L 2822 557 
C 2822 161 2650 109 2566 109 
C 2304 109 2304 446 2304 732 
L 2304 1656 
z
M 1965 887 
C 1965 323 1568 38 1216 38 
C 896 38 646 278 646 576 
C 646 771 730 1114 1101 1322 
C 1408 1497 1760 1523 1965 1536 
L 1965 887 
z
" transform="scale(0.015625)"/>
       <path id="CMR17-72" d="M 960 1517 
C 960 2134 1222 2713 1702 2713 
C 1747 2713 1792 2707 1837 2687 
C 1837 2687 1696 2642 1696 2475 
C 1696 2321 1818 2257 1914 2257 
C 1990 2257 2131 2302 2131 2482 
C 2131 2687 1926 2816 1709 2816 
C 1222 2816 1011 2340 947 2115 
L 941 2115 
L 941 2816 
L 198 2745 
L 198 2578 
C 576 2578 634 2540 634 2231 
L 634 443 
C 634 198 608 166 198 166 
L 198 0 
C 352 12 646 12 813 12 
C 998 12 1325 12 1498 0 
L 1498 166 
C 1037 166 960 166 960 455 
L 960 1517 
z
" transform="scale(0.015625)"/>
      </defs>
      <use xlink:href="#CMR17-59" transform="scale(0.996264)"/>
      <use xlink:href="#CMR17-65" transform="translate(61.265174 0) scale(0.996264)"/>
      <use xlink:href="#CMR17-61" transform="translate(101.750835 0) scale(0.996264)"/>
      <use xlink:href="#CMR17-72" transform="translate(147.441312 0) scale(0.996264)"/>
     </g>
    </g>
   </g>
   <g id="matplotlib.axis_2">
    <g id="ytick_1">
     <g id="line2d_71">
      <path d="M 46.385746 381.026449 
L 629.28 381.026449 
" clip-path="url(#pcbebc0375d)" style="fill: none; stroke-dasharray: 0.4,0.66; stroke-dashoffset: 0; stroke: #808080; stroke-width: 0.4"/>
     </g>
     <g id="line2d_72">
      <defs>
       <path id="mcdb24b4d2e" d="M 0 0 
L -3.5 0 
" style="stroke: #000000; stroke-width: 0.8"/>
      </defs>
      <g>
       <use xlink:href="#mcdb24b4d2e" x="46.385746" y="381.026449" style="stroke: #000000; stroke-width: 0.8"/>
      </g>
     </g>
     <g id="text_9">
      <!-- $\mathdefault{0}$ -->
      <g transform="translate(33.532756 385.177539) scale(0.12 -0.12)">
       <use xlink:href="#CMR17-30" transform="scale(0.996264)"/>
      </g>
     </g>
    </g>
    <g id="ytick_2">
     <g id="line2d_73">
      <path d="M 46.385746 309.821411 
L 629.28 309.821411 
" clip-path="url(#pcbebc0375d)" style="fill: none; stroke-dasharray: 0.4,0.66; stroke-dashoffset: 0; stroke: #808080; stroke-width: 0.4"/>
     </g>
     <g id="line2d_74">
      <g>
       <use xlink:href="#mcdb24b4d2e" x="46.385746" y="309.821411" style="stroke: #000000; stroke-width: 0.8"/>
      </g>
     </g>
     <g id="text_10">
      <!-- $\mathdefault{20}$ -->
      <g transform="translate(27.679766 313.972501) scale(0.12 -0.12)">
       <use xlink:href="#CMR17-32" transform="scale(0.996264)"/>
       <use xlink:href="#CMR17-30" transform="translate(45.690477 0) scale(0.996264)"/>
      </g>
     </g>
    </g>
    <g id="ytick_3">
     <g id="line2d_75">
      <path d="M 46.385746 238.616373 
L 629.28 238.616373 
" clip-path="url(#pcbebc0375d)" style="fill: none; stroke-dasharray: 0.4,0.66; stroke-dashoffset: 0; stroke: #808080; stroke-width: 0.4"/>
     </g>
     <g id="line2d_76">
      <g>
       <use xlink:href="#mcdb24b4d2e" x="46.385746" y="238.616373" style="stroke: #000000; stroke-width: 0.8"/>
      </g>
     </g>
     <g id="text_11">
      <!-- $\mathdefault{40}$ -->
      <g transform="translate(27.679766 242.767463) scale(0.12 -0.12)">
       <use xlink:href="#CMR17-34" transform="scale(0.996264)"/>
       <use xlink:href="#CMR17-30" transform="translate(45.690477 0) scale(0.996264)"/>
      </g>
     </g>
    </g>
    <g id="ytick_4">
     <g id="line2d_77">
      <path d="M 46.385746 167.411335 
L 629.28 167.411335 
" clip-path="url(#pcbebc0375d)" style="fill: none; stroke-dasharray: 0.4,0.66; stroke-dashoffset: 0; stroke: #808080; stroke-width: 0.4"/>
     </g>
     <g id="line2d_78">
      <g>
       <use xlink:href="#mcdb24b4d2e" x="46.385746" y="167.411335" style="stroke: #000000; stroke-width: 0.8"/>
      </g>
     </g>
     <g id="text_12">
      <!-- $\mathdefault{60}$ -->
      <g transform="translate(27.679766 171.562425) scale(0.12 -0.12)">
       <defs>
        <path id="CMR17-36" d="M 678 2198 
C 678 3712 1395 4076 1811 4076 
C 1946 4076 2272 4049 2400 3782 
C 2298 3782 2106 3782 2106 3558 
C 2106 3385 2246 3328 2336 3328 
C 2394 3328 2566 3353 2566 3571 
C 2566 3987 2246 4224 1805 4224 
C 1043 4224 243 3411 243 2011 
C 243 257 966 -128 1478 -128 
C 2099 -128 2688 431 2688 1295 
C 2688 2101 2170 2688 1517 2688 
C 1126 2688 838 2430 678 1979 
L 678 2198 
z
M 1478 25 
C 691 25 691 1212 691 1450 
C 691 1914 909 2585 1504 2585 
C 1613 2585 1926 2585 2138 2140 
C 2253 1889 2253 1624 2253 1302 
C 2253 954 2253 696 2118 438 
C 1978 173 1773 25 1478 25 
z
" transform="scale(0.015625)"/>
       </defs>
       <use xlink:href="#CMR17-36" transform="scale(0.996264)"/>
       <use xlink:href="#CMR17-30" transform="translate(45.690477 0) scale(0.996264)"/>
      </g>
     </g>
    </g>
    <g id="ytick_5">
     <g id="line2d_79">
      <path d="M 46.385746 96.206297 
L 629.28 96.206297 
" clip-path="url(#pcbebc0375d)" style="fill: none; stroke-dasharray: 0.4,0.66; stroke-dashoffset: 0; stroke: #808080; stroke-width: 0.4"/>
     </g>
     <g id="line2d_80">
      <g>
       <use xlink:href="#mcdb24b4d2e" x="46.385746" y="96.206297" style="stroke: #000000; stroke-width: 0.8"/>
      </g>
     </g>
     <g id="text_13">
      <!-- $\mathdefault{80}$ -->
      <g transform="translate(27.679766 100.357387) scale(0.12 -0.12)">
       <defs>
        <path id="CMR17-38" d="M 1741 2289 
C 2144 2494 2554 2803 2554 3298 
C 2554 3884 1990 4224 1472 4224 
C 890 4224 378 3800 378 3215 
C 378 3054 416 2777 666 2533 
C 730 2469 998 2276 1171 2154 
C 883 2006 211 1652 211 945 
C 211 282 838 -128 1459 -128 
C 2144 -128 2720 366 2720 1022 
C 2720 1607 2330 1877 2074 2051 
L 1741 2289 
z
M 902 2855 
C 851 2887 595 3086 595 3388 
C 595 3781 998 4076 1459 4076 
C 1965 4076 2336 3716 2336 3298 
C 2336 2700 1670 2359 1638 2359 
C 1632 2359 1626 2359 1574 2398 
L 902 2855 
z
M 2080 1536 
C 2176 1466 2483 1253 2483 861 
C 2483 385 2010 25 1472 25 
C 890 25 448 443 448 951 
C 448 1459 838 1884 1280 2083 
L 2080 1536 
z
" transform="scale(0.015625)"/>
       </defs>
       <use xlink:href="#CMR17-38" transform="scale(0.996264)"/>
       <use xlink:href="#CMR17-30" transform="translate(45.690477 0) scale(0.996264)"/>
      </g>
     </g>
    </g>
    <g id="ytick_6">
     <g id="line2d_81">
      <path d="M 46.385746 25.001259 
L 629.28 25.001259 
" clip-path="url(#pcbebc0375d)" style="fill: none; stroke-dasharray: 0.4,0.66; stroke-dashoffset: 0; stroke: #808080; stroke-width: 0.4"/>
     </g>
     <g id="line2d_82">
      <g>
       <use xlink:href="#mcdb24b4d2e" x="46.385746" y="25.001259" style="stroke: #000000; stroke-width: 0.8"/>
      </g>
     </g>
     <g id="text_14">
      <!-- $\mathdefault{100}$ -->
      <g transform="translate(21.826776 29.152349) scale(0.12 -0.12)">
       <use xlink:href="#CMR17-31" transform="scale(0.996264)"/>
       <use xlink:href="#CMR17-30" transform="translate(45.690477 0) scale(0.996264)"/>
       <use xlink:href="#CMR17-30" transform="translate(91.380954 0) scale(0.996264)"/>
      </g>
     </g>
    </g>
    <g id="ytick_7">
     <g id="line2d_83">
      <path d="M 46.385746 363.225189 
L 629.28 363.225189 
" clip-path="url(#pcbebc0375d)" style="fill: none; stroke-dasharray: 0.4,0.66; stroke-dashoffset: 0; stroke: #808080; stroke-width: 0.4"/>
     </g>
     <g id="line2d_84">
      <defs>
       <path id="m621023203a" d="M 0 0 
L -2 0 
" style="stroke: #000000; stroke-width: 0.6"/>
      </defs>
      <g>
       <use xlink:href="#m621023203a" x="46.385746" y="363.225189" style="stroke: #000000; stroke-width: 0.6"/>
      </g>
     </g>
    </g>
    <g id="ytick_8">
     <g id="line2d_85">
      <path d="M 46.385746 345.42393 
L 629.28 345.42393 
" clip-path="url(#pcbebc0375d)" style="fill: none; stroke-dasharray: 0.4,0.66; stroke-dashoffset: 0; stroke: #808080; stroke-width: 0.4"/>
     </g>
     <g id="line2d_86">
      <g>
       <use xlink:href="#m621023203a" x="46.385746" y="345.42393" style="stroke: #000000; stroke-width: 0.6"/>
      </g>
     </g>
    </g>
    <g id="ytick_9">
     <g id="line2d_87">
      <path d="M 46.385746 327.62267 
L 629.28 327.62267 
" clip-path="url(#pcbebc0375d)" style="fill: none; stroke-dasharray: 0.4,0.66; stroke-dashoffset: 0; stroke: #808080; stroke-width: 0.4"/>
     </g>
     <g id="line2d_88">
      <g>
       <use xlink:href="#m621023203a" x="46.385746" y="327.62267" style="stroke: #000000; stroke-width: 0.6"/>
      </g>
     </g>
    </g>
    <g id="ytick_10">
     <g id="line2d_89">
      <path d="M 46.385746 292.020152 
L 629.28 292.020152 
" clip-path="url(#pcbebc0375d)" style="fill: none; stroke-dasharray: 0.4,0.66; stroke-dashoffset: 0; stroke: #808080; stroke-width: 0.4"/>
     </g>
     <g id="line2d_90">
      <g>
       <use xlink:href="#m621023203a" x="46.385746" y="292.020152" style="stroke: #000000; stroke-width: 0.6"/>
      </g>
     </g>
    </g>
    <g id="ytick_11">
     <g id="line2d_91">
      <path d="M 46.385746 274.218892 
L 629.28 274.218892 
" clip-path="url(#pcbebc0375d)" style="fill: none; stroke-dasharray: 0.4,0.66; stroke-dashoffset: 0; stroke: #808080; stroke-width: 0.4"/>
     </g>
     <g id="line2d_92">
      <g>
       <use xlink:href="#m621023203a" x="46.385746" y="274.218892" style="stroke: #000000; stroke-width: 0.6"/>
      </g>
     </g>
    </g>
    <g id="ytick_12">
     <g id="line2d_93">
      <path d="M 46.385746 256.417633 
L 629.28 256.417633 
" clip-path="url(#pcbebc0375d)" style="fill: none; stroke-dasharray: 0.4,0.66; stroke-dashoffset: 0; stroke: #808080; stroke-width: 0.4"/>
     </g>
     <g id="line2d_94">
      <g>
       <use xlink:href="#m621023203a" x="46.385746" y="256.417633" style="stroke: #000000; stroke-width: 0.6"/>
      </g>
     </g>
    </g>
    <g id="ytick_13">
     <g id="line2d_95">
      <path d="M 46.385746 220.815114 
L 629.28 220.815114 
" clip-path="url(#pcbebc0375d)" style="fill: none; stroke-dasharray: 0.4,0.66; stroke-dashoffset: 0; stroke: #808080; stroke-width: 0.4"/>
     </g>
     <g id="line2d_96">
      <g>
       <use xlink:href="#m621023203a" x="46.385746" y="220.815114" style="stroke: #000000; stroke-width: 0.6"/>
      </g>
     </g>
    </g>
    <g id="ytick_14">
     <g id="line2d_97">
      <path d="M 46.385746 203.013854 
L 629.28 203.013854 
" clip-path="url(#pcbebc0375d)" style="fill: none; stroke-dasharray: 0.4,0.66; stroke-dashoffset: 0; stroke: #808080; stroke-width: 0.4"/>
     </g>
     <g id="line2d_98">
      <g>
       <use xlink:href="#m621023203a" x="46.385746" y="203.013854" style="stroke: #000000; stroke-width: 0.6"/>
      </g>
     </g>
    </g>
    <g id="ytick_15">
     <g id="line2d_99">
      <path d="M 46.385746 185.212595 
L 629.28 185.212595 
" clip-path="url(#pcbebc0375d)" style="fill: none; stroke-dasharray: 0.4,0.66; stroke-dashoffset: 0; stroke: #808080; stroke-width: 0.4"/>
     </g>
     <g id="line2d_100">
      <g>
       <use xlink:href="#m621023203a" x="46.385746" y="185.212595" style="stroke: #000000; stroke-width: 0.6"/>
      </g>
     </g>
    </g>
    <g id="ytick_16">
     <g id="line2d_101">
      <path d="M 46.385746 149.610076 
L 629.28 149.610076 
" clip-path="url(#pcbebc0375d)" style="fill: none; stroke-dasharray: 0.4,0.66; stroke-dashoffset: 0; stroke: #808080; stroke-width: 0.4"/>
     </g>
     <g id="line2d_102">
      <g>
       <use xlink:href="#m621023203a" x="46.385746" y="149.610076" style="stroke: #000000; stroke-width: 0.6"/>
      </g>
     </g>
    </g>
    <g id="ytick_17">
     <g id="line2d_103">
      <path d="M 46.385746 131.808816 
L 629.28 131.808816 
" clip-path="url(#pcbebc0375d)" style="fill: none; stroke-dasharray: 0.4,0.66; stroke-dashoffset: 0; stroke: #808080; stroke-width: 0.4"/>
     </g>
     <g id="line2d_104">
      <g>
       <use xlink:href="#m621023203a" x="46.385746" y="131.808816" style="stroke: #000000; stroke-width: 0.6"/>
      </g>
     </g>
    </g>
    <g id="ytick_18">
     <g id="line2d_105">
      <path d="M 46.385746 114.007557 
L 629.28 114.007557 
" clip-path="url(#pcbebc0375d)" style="fill: none; stroke-dasharray: 0.4,0.66; stroke-dashoffset: 0; stroke: #808080; stroke-width: 0.4"/>
     </g>
     <g id="line2d_106">
      <g>
       <use xlink:href="#m621023203a" x="46.385746" y="114.007557" style="stroke: #000000; stroke-width: 0.6"/>
      </g>
     </g>
    </g>
    <g id="ytick_19">
     <g id="line2d_107">
      <path d="M 46.385746 78.405038 
L 629.28 78.405038 
" clip-path="url(#pcbebc0375d)" style="fill: none; stroke-dasharray: 0.4,0.66; stroke-dashoffset: 0; stroke: #808080; stroke-width: 0.4"/>
     </g>
     <g id="line2d_108">
      <g>
       <use xlink:href="#m621023203a" x="46.385746" y="78.405038" style="stroke: #000000; stroke-width: 0.6"/>
      </g>
     </g>
    </g>
    <g id="ytick_20">
     <g id="line2d_109">
      <path d="M 46.385746 60.603778 
L 629.28 60.603778 
" clip-path="url(#pcbebc0375d)" style="fill: none; stroke-dasharray: 0.4,0.66; stroke-dashoffset: 0; stroke: #808080; stroke-width: 0.4"/>
     </g>
     <g id="line2d_110">
      <g>
       <use xlink:href="#m621023203a" x="46.385746" y="60.603778" style="stroke: #000000; stroke-width: 0.6"/>
      </g>
     </g>
    </g>
    <g id="ytick_21">
     <g id="line2d_111">
      <path d="M 46.385746 42.802519 
L 629.28 42.802519 
" clip-path="url(#pcbebc0375d)" style="fill: none; stroke-dasharray: 0.4,0.66; stroke-dashoffset: 0; stroke: #808080; stroke-width: 0.4"/>
     </g>
     <g id="line2d_112">
      <g>
       <use xlink:href="#m621023203a" x="46.385746" y="42.802519" style="stroke: #000000; stroke-width: 0.6"/>
      </g>
     </g>
    </g>
    <g id="ytick_22">
     <g id="line2d_113">
      <path d="M 46.385746 7.2 
L 629.28 7.2 
" clip-path="url(#pcbebc0375d)" style="fill: none; stroke-dasharray: 0.4,0.66; stroke-dashoffset: 0; stroke: #808080; stroke-width: 0.4"/>
     </g>
     <g id="line2d_114">
      <g>
       <use xlink:href="#m621023203a" x="46.385746" y="7.2" style="stroke: #000000; stroke-width: 0.6"/>
      </g>
     </g>
    </g>
    <g id="text_15">
     <!-- Number of Works -->
     <g transform="translate(15.50218 239.502265) rotate(-90) scale(0.12 -0.12)">
      <defs>
       <path id="CMR17-4e" d="M 1312 4275 
C 1267 4345 1261 4352 1139 4352 
L 326 4352 
L 326 4185 
L 448 4185 
C 704 4185 819 4153 838 4147 
L 838 624 
C 838 465 838 166 326 166 
L 326 0 
C 474 12 742 12 902 12 
C 1062 12 1331 12 1478 0 
L 1478 166 
C 966 166 966 465 966 624 
L 966 4057 
C 1011 4019 1011 4007 1056 3943 
L 3430 76 
C 3475 0 3494 0 3526 0 
C 3590 0 3590 19 3590 140 
L 3590 3726 
C 3590 3885 3590 4185 4102 4185 
L 4102 4352 
C 3955 4339 3686 4339 3526 4339 
C 3366 4339 3098 4339 2950 4352 
L 2950 4185 
C 3462 4185 3462 3885 3462 3726 
L 3462 777 
L 1312 4275 
z
" transform="scale(0.015625)"/>
       <path id="CMR17-75" d="M 1882 2745 
L 1882 2579 
C 2259 2579 2317 2540 2317 2229 
L 2317 1053 
C 2317 510 2029 38 1555 38 
C 1030 38 986 355 986 691 
L 986 2816 
L 211 2745 
L 211 2579 
C 467 2579 640 2579 646 2320 
L 646 1079 
C 646 646 646 368 813 187 
C 896 103 1056 -64 1517 -64 
C 2061 -64 2272 400 2323 536 
L 2330 536 
L 2330 -64 
L 3091 -13 
L 3091 154 
C 2714 154 2656 193 2656 503 
L 2656 2816 
L 1882 2745 
z
" transform="scale(0.015625)"/>
       <path id="CMR17-6d" d="M 4326 1954 
C 4326 2276 4269 2816 3507 2816 
C 3072 2816 2771 2520 2656 2173 
L 2650 2173 
C 2573 2700 2195 2816 1837 2816 
C 1331 2816 1069 2424 973 2166 
L 966 2166 
L 966 2816 
L 211 2745 
L 211 2578 
C 589 2578 646 2540 646 2231 
L 646 443 
C 646 198 621 166 211 166 
L 211 0 
C 365 12 646 12 813 12 
C 979 12 1267 12 1421 0 
L 1421 166 
C 1011 166 986 192 986 443 
L 986 1678 
C 986 2269 1344 2713 1792 2713 
C 2266 2713 2317 2289 2317 1980 
L 2317 443 
C 2317 198 2291 166 1882 166 
L 1882 0 
C 2035 12 2317 12 2483 12 
C 2650 12 2938 12 3091 0 
L 3091 166 
C 2682 166 2656 192 2656 443 
L 2656 1678 
C 2656 2269 3014 2713 3462 2713 
C 3936 2713 3987 2289 3987 1980 
L 3987 443 
C 3987 198 3962 166 3552 166 
L 3552 0 
C 3706 12 3987 12 4154 12 
C 4320 12 4608 12 4762 0 
L 4762 166 
C 4352 166 4326 192 4326 443 
L 4326 1954 
z
" transform="scale(0.015625)"/>
       <path id="CMR17-62" d="M 960 4416 
L 198 4345 
L 198 4179 
C 576 4179 634 4141 634 3843 
L 634 -13 
L 749 -13 
L 934 445 
C 1120 141 1395 -64 1766 -64 
C 2406 -64 3053 503 3053 1382 
C 3053 2209 2477 2816 1830 2816 
C 1434 2816 1152 2603 960 2351 
L 960 4416 
z
M 973 2022 
C 973 2138 973 2157 1062 2293 
C 1312 2681 1670 2713 1792 2713 
C 1984 2713 2643 2610 2643 1388 
C 2643 109 1888 38 1734 38 
C 1536 38 1248 115 1043 490 
C 973 613 973 626 973 742 
L 973 2022 
z
" transform="scale(0.015625)"/>
       <path id="CMR17-6f" d="M 2758 1356 
C 2758 2176 2163 2816 1466 2816 
C 768 2816 173 2176 173 1356 
C 173 550 768 -64 1466 -64 
C 2163 -64 2758 550 2758 1356 
z
M 1466 51 
C 1165 51 909 230 762 480 
C 602 768 582 1126 582 1408 
C 582 1676 595 2009 762 2297 
C 890 2508 1139 2713 1466 2713 
C 1754 2713 1997 2553 2150 2329 
C 2349 2028 2349 1606 2349 1408 
C 2349 1158 2336 774 2163 467 
C 1984 172 1709 51 1466 51 
z
" transform="scale(0.015625)"/>
       <path id="CMR17-66" d="M 979 2585 
L 1709 2585 
L 1709 2752 
L 966 2752 
L 966 3539 
C 966 4076 1235 4377 1510 4377 
C 1594 4377 1690 4363 1754 4339 
C 1702 4326 1568 4281 1568 4121 
C 1568 3955 1696 3904 1786 3904 
C 1875 3904 2003 3955 2003 4121 
C 2003 4353 1773 4480 1517 4480 
C 1152 4480 653 4211 653 3526 
L 653 2752 
L 141 2752 
L 141 2585 
L 653 2585 
L 653 441 
C 653 198 627 166 218 166 
L 218 0 
C 371 12 666 12 832 12 
C 1018 12 1344 12 1517 0 
L 1517 166 
C 1056 166 979 166 979 454 
L 979 2585 
z
" transform="scale(0.015625)"/>
       <path id="CMR17-57" d="M 5523 3775 
C 5581 3948 5677 4173 6048 4185 
L 6048 4352 
C 5939 4345 5715 4339 5600 4339 
C 5440 4339 5158 4339 5005 4352 
L 5005 4185 
C 5293 4179 5414 4019 5414 3865 
C 5414 3820 5408 3794 5382 3724 
L 4390 557 
L 3347 3890 
C 3328 3955 3322 3980 3322 4006 
C 3322 4185 3603 4185 3725 4185 
L 3725 4352 
C 3539 4339 3219 4339 3021 4339 
C 2861 4339 2573 4339 2426 4352 
L 2426 4185 
C 2720 4185 2797 4166 2861 4051 
C 2886 3993 2989 3660 2989 3640 
C 2989 3615 2976 3576 2970 3557 
L 2029 564 
L 986 3890 
C 954 3980 954 3993 954 4006 
C 954 4185 1235 4185 1363 4185 
L 1363 4352 
C 1178 4339 858 4339 659 4339 
C 493 4339 211 4339 58 4352 
L 58 4185 
C 442 4185 467 4147 531 3942 
L 1779 -20 
C 1811 -116 1811 -128 1869 -128 
C 1920 -128 1939 -116 1965 -26 
L 3053 3448 
L 4141 -26 
C 4166 -116 4186 -128 4237 -128 
C 4294 -128 4294 -116 4326 -20 
L 5523 3775 
z
" transform="scale(0.015625)"/>
       <path id="CMR17-6b" d="M 1670 1679 
C 1664 1692 1632 1730 1632 1749 
C 1632 1762 2086 2175 2144 2226 
C 2509 2532 2739 2563 2906 2570 
L 2906 2735 
C 2867 2735 2854 2735 2848 2729 
L 2534 2722 
C 2355 2722 2080 2722 1907 2735 
L 1907 2570 
C 1997 2563 2061 2513 2061 2423 
C 2061 2296 1933 2175 1926 2175 
L 960 1298 
L 960 4416 
L 198 4345 
L 198 4179 
C 576 4179 634 4141 634 3835 
L 634 439 
C 634 198 608 166 198 166 
L 198 0 
C 352 12 634 12 794 12 
C 954 12 1235 12 1389 0 
L 1389 166 
C 979 166 954 191 954 439 
L 954 1139 
L 1395 1540 
L 2042 586 
C 2118 471 2182 382 2182 299 
C 2182 185 2067 166 1990 166 
L 1990 0 
C 2144 12 2419 12 2579 12 
C 2694 12 2931 6 3040 0 
L 3040 166 
C 2739 166 2669 223 2477 503 
L 1670 1679 
z
" transform="scale(0.015625)"/>
       <path id="CMR17-73" d="M 1978 2688 
C 1978 2803 1971 2809 1933 2809 
C 1907 2809 1901 2803 1824 2707 
C 1805 2681 1747 2617 1728 2592 
C 1523 2809 1235 2816 1126 2816 
C 416 2816 160 2444 160 2073 
C 160 1497 813 1363 998 1324 
C 1402 1241 1542 1216 1677 1100 
C 1760 1024 1901 883 1901 652 
C 1901 384 1747 38 1158 38 
C 602 38 403 460 288 1024 
C 269 1113 269 1120 218 1120 
C 166 1120 160 1113 160 985 
L 160 64 
C 160 -52 166 -58 205 -58 
C 237 -58 243 -52 275 0 
C 314 57 410 211 448 275 
C 576 102 800 -64 1158 -64 
C 1792 -64 2131 281 2131 780 
C 2131 1107 1958 1280 1875 1356 
C 1683 1555 1459 1600 1190 1651 
C 838 1728 390 1817 390 2208 
C 390 2374 480 2726 1126 2726 
C 1811 2726 1850 2086 1862 1881 
C 1869 1849 1901 1843 1920 1843 
C 1978 1843 1978 1862 1978 1971 
L 1978 2688 
z
" transform="scale(0.015625)"/>
      </defs>
      <use xlink:href="#CMR17-4e" transform="scale(0.996264)"/>
      <use xlink:href="#CMR17-75" transform="translate(69.07243 0) scale(0.996264)"/>
      <use xlink:href="#CMR17-6d" transform="translate(119.9678 0) scale(0.996264)"/>
      <use xlink:href="#CMR17-62" transform="translate(194.284936 0) scale(0.996264)"/>
      <use xlink:href="#CMR17-65" transform="translate(247.782744 0) scale(0.996264)"/>
      <use xlink:href="#CMR17-72" transform="translate(288.268404 0) scale(0.996264)"/>
      <use xlink:href="#CMR17-6f" transform="translate(353.625139 0) scale(0.996264)"/>
      <use xlink:href="#CMR17-66" transform="translate(399.315616 0) scale(0.996264)"/>
      <use xlink:href="#CMR17-57" transform="translate(456.865095 0) scale(0.996264)"/>
      <use xlink:href="#CMR17-6f" transform="translate(544.154489 0) scale(0.996264)"/>
      <use xlink:href="#CMR17-72" transform="translate(589.844966 0) scale(0.996264)"/>
      <use xlink:href="#CMR17-6b" transform="translate(625.125734 0) scale(0.996264)"/>
      <use xlink:href="#CMR17-73" transform="translate(673.41865 0) scale(0.996264)"/>
     </g>
    </g>
   </g>
   <g id="patch_66">
    <path d="M 46.385746 381.026449 
L 46.385746 7.2 
" style="fill: none; stroke: #000000; stroke-width: 0.8; stroke-linejoin: miter; stroke-linecap: square"/>
   </g>
   <g id="patch_67">
    <path d="M 629.28 381.026449 
L 629.28 7.2 
" style="fill: none; stroke: #000000; stroke-width: 0.8; stroke-linejoin: miter; stroke-linecap: square"/>
   </g>
   <g id="patch_68">
    <path d="M 46.385746 381.026449 
L 629.28 381.026449 
" style="fill: none; stroke: #000000; stroke-width: 0.8; stroke-linejoin: miter; stroke-linecap: square"/>
   </g>
   <g id="patch_69">
    <path d="M 46.385746 7.2 
L 629.28 7.2 
" style="fill: none; stroke: #000000; stroke-width: 0.8; stroke-linejoin: miter; stroke-linecap: square"/>
   </g>
   <g id="text_16">
    <!-- 2 -->
    <g transform="translate(85.094555 369.801223) scale(0.12 -0.12)">
     <use xlink:href="#CMR17-32" transform="scale(0.996264)"/>
    </g>
   </g>
   <g id="text_17">
    <!-- 15 -->
    <g transform="translate(165.438668 323.517949) scale(0.12 -0.12)">
     <use xlink:href="#CMR17-31" transform="scale(0.996264)"/>
     <use xlink:href="#CMR17-35" transform="translate(45.690477 0) scale(0.996264)"/>
    </g>
   </g>
   <g id="text_18">
    <!-- 38 -->
    <g transform="translate(248.709275 241.632155) scale(0.12 -0.12)">
     <use xlink:href="#CMR17-33" transform="scale(0.996264)"/>
     <use xlink:href="#CMR17-38" transform="translate(45.690477 0) scale(0.996264)"/>
    </g>
   </g>
   <g id="text_19">
    <!-- 55 -->
    <g transform="translate(331.979883 181.107873) scale(0.12 -0.12)">
     <use xlink:href="#CMR17-35" transform="scale(0.996264)"/>
     <use xlink:href="#CMR17-35" transform="translate(45.690477 0) scale(0.996264)"/>
    </g>
   </g>
   <g id="text_20">
    <!-- 74 -->
    <g transform="translate(415.250491 113.463087) scale(0.12 -0.12)">
     <defs>
      <path id="CMR17-37" d="M 2886 3955 
L 2886 4096 
L 1382 4096 
C 634 4096 621 4166 595 4288 
L 480 4288 
L 294 3104 
L 410 3104 
C 429 3226 474 3552 550 3673 
C 589 3724 1062 3724 1171 3724 
L 2579 3724 
L 1869 2670 
C 1395 1961 1069 1003 1069 166 
C 1069 89 1069 -128 1299 -128 
C 1530 -128 1530 89 1530 172 
L 1530 466 
C 1530 1514 1709 2204 2003 2644 
L 2886 3955 
z
" transform="scale(0.015625)"/>
     </defs>
     <use xlink:href="#CMR17-37" transform="scale(0.996264)"/>
     <use xlink:href="#CMR17-34" transform="translate(45.690477 0) scale(0.996264)"/>
    </g>
   </g>
   <g id="text_21">
    <!-- 91 -->
    <g transform="translate(498.521098 52.938805) scale(0.12 -0.12)">
     <use xlink:href="#CMR17-39" transform="scale(0.996264)"/>
     <use xlink:href="#CMR17-31" transform="translate(45.690477 0) scale(0.996264)"/>
    </g>
   </g>
   <g id="text_22">
    <!-- 100 -->
    <g transform="translate(578.865211 20.896538) scale(0.12 -0.12)">
     <use xlink:href="#CMR17-31" transform="scale(0.996264)"/>
     <use xlink:href="#CMR17-30" transform="translate(45.690477 0) scale(0.996264)"/>
     <use xlink:href="#CMR17-30" transform="translate(91.380954 0) scale(0.996264)"/>
    </g>
   </g>
   <g id="legend_1">
    <g id="patch_70">
     <path d="M 54.785746 167.321362 
L 245.680374 167.321362 
Q 248.080374 167.321362 248.080374 164.921362 
L 248.080374 15.6 
Q 248.080374 13.2 245.680374 13.2 
L 54.785746 13.2 
Q 52.385746 13.2 52.385746 15.6 
L 52.385746 164.921362 
Q 52.385746 167.321362 54.785746 167.321362 
z
" style="fill: #ffffff; opacity: 0.8; stroke: #cccccc; stroke-linejoin: miter"/>
    </g>
    <g id="patch_71">
     <path d="M 57.185746 26.4 
L 81.185746 26.4 
L 81.185746 18 
L 57.185746 18 
z
" style="fill: #1f77b4"/>
    </g>
    <g id="text_23">
     <!-- Books -->
     <g transform="translate(90.785746 26.4) scale(0.12 -0.12)">
      <defs>
       <path id="CMR17-42" d="M 333 4352 
L 333 4185 
C 774 4185 845 4185 845 3897 
L 845 451 
C 845 166 774 166 333 166 
L 333 0 
L 2534 0 
C 3354 0 3885 578 3885 1155 
C 3885 1726 3360 2214 2675 2259 
C 3290 2380 3718 2790 3718 3276 
C 3718 3808 3194 4352 2368 4352 
L 333 4352 
z
M 1248 2304 
L 1248 3936 
C 1248 4153 1261 4185 1517 4185 
L 2336 4185 
C 2970 4185 3251 3673 3251 3276 
C 3251 2790 2861 2304 2170 2304 
L 1248 2304 
z
M 1517 166 
C 1261 166 1248 198 1248 413 
L 1248 2201 
L 2432 2201 
C 3091 2201 3411 1624 3411 1161 
C 3411 698 3046 166 2349 166 
L 1517 166 
z
" transform="scale(0.015625)"/>
      </defs>
      <use xlink:href="#CMR17-42" transform="scale(0.996264)"/>
      <use xlink:href="#CMR17-6f" transform="translate(65.188754 0) scale(0.996264)"/>
      <use xlink:href="#CMR17-6f" transform="translate(113.48167 0) scale(0.996264)"/>
      <use xlink:href="#CMR17-6b" transform="translate(159.172147 0) scale(0.996264)"/>
      <use xlink:href="#CMR17-73" transform="translate(207.465063 0) scale(0.996264)"/>
     </g>
    </g>
    <g id="patch_72">
     <path d="M 57.185746 43.124596 
L 81.185746 43.124596 
L 81.185746 34.724596 
L 57.185746 34.724596 
z
" style="fill: #ff7f0e"/>
    </g>
    <g id="text_24">
     <!-- Conference Papers -->
     <g transform="translate(90.785746 43.124596) scale(0.12 -0.12)">
      <defs>
       <path id="CMR17-43" d="M 3974 4351 
C 3974 4467 3968 4473 3930 4473 
C 3904 4473 3898 4467 3853 4390 
L 3571 3849 
C 3258 4249 2874 4480 2381 4480 
C 1286 4480 294 3507 294 2179 
C 294 837 1286 -128 2387 -128 
C 3366 -128 3974 741 3974 1482 
C 3974 1547 3974 1573 3917 1573 
C 3866 1573 3866 1553 3859 1495 
C 3808 592 3168 38 2477 38 
C 1824 38 781 502 781 2179 
C 781 3862 1843 4313 2464 4313 
C 3187 4313 3712 3681 3834 2785 
C 3846 2707 3846 2695 3904 2695 
C 3974 2695 3974 2707 3974 2824 
L 3974 4351 
z
" transform="scale(0.015625)"/>
       <path id="CMR17-6e" d="M 2656 1954 
C 2656 2282 2592 2816 1837 2816 
C 1331 2816 1069 2424 973 2166 
L 966 2166 
L 966 2816 
L 211 2745 
L 211 2578 
C 589 2578 646 2540 646 2231 
L 646 443 
C 646 198 621 166 211 166 
L 211 0 
C 365 12 646 12 813 12 
C 979 12 1267 12 1421 0 
L 1421 166 
C 1011 166 986 192 986 443 
L 986 1678 
C 986 2269 1344 2713 1792 2713 
C 2266 2713 2317 2289 2317 1980 
L 2317 443 
C 2317 198 2291 166 1882 166 
L 1882 0 
C 2035 12 2317 12 2483 12 
C 2650 12 2938 12 3091 0 
L 3091 166 
C 2682 166 2656 192 2656 443 
L 2656 1954 
z
" transform="scale(0.015625)"/>
       <path id="CMR17-63" d="M 2234 2240 
C 2112 2240 1933 2240 1933 2015 
C 1933 1836 2080 1785 2163 1785 
C 2208 1785 2394 1804 2394 2028 
C 2394 2476 1958 2816 1466 2816 
C 787 2816 211 2201 211 1379 
C 211 521 813 -64 1466 -64 
C 2259 -64 2458 676 2458 747 
C 2458 773 2451 792 2406 792 
C 2362 792 2355 786 2330 702 
C 2163 180 1798 51 1523 51 
C 1114 51 621 431 621 1385 
C 621 2358 1094 2700 1472 2700 
C 1722 2700 2093 2582 2234 2240 
z
" transform="scale(0.015625)"/>
       <path id="CMR17-50" d="M 1267 2048 
L 2291 2048 
C 3117 2048 3718 2583 3718 3187 
C 3718 3791 3130 4352 2291 4352 
L 333 4352 
L 333 4185 
C 774 4185 845 4185 845 3899 
L 845 453 
C 845 166 774 166 333 166 
L 333 0 
C 518 12 858 12 1056 12 
C 1254 12 1594 12 1779 0 
L 1779 166 
C 1338 166 1267 166 1267 453 
L 1267 2048 
z
M 1254 2182 
L 1254 3937 
C 1254 4153 1267 4185 1523 4185 
L 2170 4185 
C 2995 4185 3232 3715 3232 3187 
C 3232 2608 2950 2182 2170 2182 
L 1254 2182 
z
" transform="scale(0.015625)"/>
       <path id="CMR17-70" d="M 1408 -1114 
C 998 -1114 973 -1088 973 -834 
L 973 380 
C 1158 109 1427 -64 1766 -64 
C 2406 -64 3053 503 3053 1382 
C 3053 2196 2496 2816 1837 2816 
C 1453 2816 1139 2603 960 2345 
L 960 2816 
L 198 2745 
L 198 2577 
C 576 2577 634 2539 634 2228 
L 634 -834 
C 634 -1081 608 -1114 198 -1114 
L 198 -1280 
C 352 -1268 634 -1268 800 -1268 
C 966 -1268 1254 -1268 1408 -1280 
L 1408 -1114 
z
M 973 2015 
C 973 2106 973 2241 1222 2481 
C 1254 2506 1472 2700 1792 2700 
C 2259 2700 2643 2112 2643 1376 
C 2643 639 2234 38 1728 38 
C 1498 38 1248 148 1056 451 
C 973 594 973 632 973 736 
L 973 2015 
z
" transform="scale(0.015625)"/>
      </defs>
      <use xlink:href="#CMR17-43" transform="scale(0.996264)"/>
      <use xlink:href="#CMR17-6f" transform="translate(66.509881 0) scale(0.996264)"/>
      <use xlink:href="#CMR17-6e" transform="translate(112.200358 0) scale(0.996264)"/>
      <use xlink:href="#CMR17-66" transform="translate(163.095727 0) scale(0.996264)"/>
      <use xlink:href="#CMR17-65" transform="translate(190.56924 0) scale(0.996264)"/>
      <use xlink:href="#CMR17-72" transform="translate(231.0549 0) scale(0.996264)"/>
      <use xlink:href="#CMR17-65" transform="translate(266.335668 0) scale(0.996264)"/>
      <use xlink:href="#CMR17-6e" transform="translate(306.821329 0) scale(0.996264)"/>
      <use xlink:href="#CMR17-63" transform="translate(357.716698 0) scale(0.996264)"/>
      <use xlink:href="#CMR17-65" transform="translate(398.202359 0) scale(0.996264)"/>
      <use xlink:href="#CMR17-50" transform="translate(468.763986 0) scale(0.996264)"/>
      <use xlink:href="#CMR17-61" transform="translate(528.747832 0) scale(0.996264)"/>
      <use xlink:href="#CMR17-70" transform="translate(574.438309 0) scale(0.996264)"/>
      <use xlink:href="#CMR17-65" transform="translate(627.936118 0) scale(0.996264)"/>
      <use xlink:href="#CMR17-72" transform="translate(668.421778 0) scale(0.996264)"/>
      <use xlink:href="#CMR17-73" transform="translate(703.702546 0) scale(0.996264)"/>
     </g>
    </g>
    <g id="patch_73">
     <path d="M 57.185746 59.849192 
L 81.185746 59.849192 
L 81.185746 51.449192 
L 57.185746 51.449192 
z
" style="fill: #2ca02c"/>
    </g>
    <g id="text_25">
     <!-- Doctoral Theses -->
     <g transform="translate(90.785746 59.849192) scale(0.12 -0.12)">
      <defs>
       <path id="CMR17-44" d="M 333 4352 
L 333 4185 
C 774 4185 845 4185 845 3898 
L 845 453 
C 845 166 774 166 333 166 
L 333 0 
L 2368 0 
C 3398 0 4224 943 4224 2140 
C 4224 3344 3411 4352 2368 4352 
L 333 4352 
z
M 1523 166 
C 1267 166 1254 198 1254 414 
L 1254 3936 
C 1254 4153 1267 4185 1523 4185 
L 2240 4185 
C 2771 4185 3750 3873 3750 2140 
C 3750 1242 3488 879 3366 707 
C 3213 510 2848 166 2240 166 
L 1523 166 
z
" transform="scale(0.015625)"/>
       <path id="CMR17-74" d="M 966 2585 
L 1862 2585 
L 1862 2752 
L 966 2752 
L 966 3968 
L 851 3968 
C 838 3292 614 2700 70 2687 
L 70 2585 
L 627 2585 
L 627 778 
C 627 655 627 -64 1370 -64 
C 1747 -64 1965 308 1965 784 
L 1965 1151 
L 1850 1151 
L 1850 790 
C 1850 347 1677 51 1408 51 
C 1222 51 966 179 966 765 
L 966 2585 
z
" transform="scale(0.015625)"/>
       <path id="CMR17-6c" d="M 979 4416 
L 218 4345 
L 218 4179 
C 595 4179 653 4141 653 3835 
L 653 439 
C 653 198 627 166 218 166 
L 218 0 
C 371 12 653 12 813 12 
C 979 12 1261 12 1414 0 
L 1414 166 
C 1005 166 979 191 979 439 
L 979 4416 
z
" transform="scale(0.015625)"/>
       <path id="CMR17-54" d="M 3981 4332 
L 288 4332 
L 179 2924 
L 294 2924 
C 378 3981 467 4166 1453 4166 
C 1568 4166 1754 4166 1805 4159 
C 1926 4140 1926 4064 1926 3917 
L 1926 465 
C 1926 236 1907 166 1376 166 
L 1197 166 
L 1197 0 
C 1504 6 1824 12 2138 12 
C 2451 12 2771 6 3078 0 
L 3078 166 
L 2899 166 
C 2368 166 2349 236 2349 465 
L 2349 3917 
C 2349 4057 2349 4134 2464 4159 
C 2515 4166 2701 4166 2816 4166 
C 3795 4166 3891 3981 3974 2924 
L 4090 2924 
L 3981 4332 
z
" transform="scale(0.015625)"/>
       <path id="CMR17-68" d="M 2656 1954 
C 2656 2282 2592 2816 1837 2816 
C 1312 2816 1056 2392 979 2179 
L 973 2179 
L 973 4416 
L 211 4345 
L 211 4179 
C 589 4179 646 4141 646 3843 
L 646 443 
C 646 198 621 166 211 166 
L 211 0 
C 365 12 646 12 813 12 
C 979 12 1267 12 1421 0 
L 1421 166 
C 1011 166 986 192 986 443 
L 986 1678 
C 986 2269 1344 2713 1792 2713 
C 2266 2713 2317 2289 2317 1980 
L 2317 443 
C 2317 198 2291 166 1882 166 
L 1882 0 
C 2035 12 2317 12 2483 12 
C 2650 12 2938 12 3091 0 
L 3091 166 
C 2682 166 2656 192 2656 443 
L 2656 1954 
z
" transform="scale(0.015625)"/>
      </defs>
      <use xlink:href="#CMR17-44" transform="scale(0.996264)"/>
      <use xlink:href="#CMR17-6f" transform="translate(70.393556 0) scale(0.996264)"/>
      <use xlink:href="#CMR17-63" transform="translate(118.686472 0) scale(0.996264)"/>
      <use xlink:href="#CMR17-74" transform="translate(159.172132 0) scale(0.996264)"/>
      <use xlink:href="#CMR17-6f" transform="translate(194.4529 0) scale(0.996264)"/>
      <use xlink:href="#CMR17-72" transform="translate(240.143377 0) scale(0.996264)"/>
      <use xlink:href="#CMR17-61" transform="translate(275.424145 0) scale(0.996264)"/>
      <use xlink:href="#CMR17-6c" transform="translate(321.114622 0) scale(0.996264)"/>
      <use xlink:href="#CMR17-54" transform="translate(376.061647 0) scale(0.996264)"/>
      <use xlink:href="#CMR17-68" transform="translate(442.571527 0) scale(0.996264)"/>
      <use xlink:href="#CMR17-65" transform="translate(493.466897 0) scale(0.996264)"/>
      <use xlink:href="#CMR17-73" transform="translate(533.952558 0) scale(0.996264)"/>
      <use xlink:href="#CMR17-65" transform="translate(569.753895 0) scale(0.996264)"/>
      <use xlink:href="#CMR17-73" transform="translate(610.239556 0) scale(0.996264)"/>
     </g>
    </g>
    <g id="patch_74">
     <path d="M 57.185746 76.573787 
L 81.185746 76.573787 
L 81.185746 68.173787 
L 57.185746 68.173787 
z
" style="fill: #d62728"/>
    </g>
    <g id="text_26">
     <!-- Final Graduation Projects -->
     <g transform="translate(90.785746 76.573787) scale(0.12 -0.12)">
      <defs>
       <path id="CMR17-46" d="M 3482 4339 
L 326 4339 
L 326 4172 
C 768 4172 838 4172 838 3883 
L 838 450 
C 838 166 768 166 326 166 
L 326 0 
C 512 12 870 12 1069 12 
C 1331 12 1638 12 1901 0 
L 1901 166 
L 1760 166 
C 1274 166 1261 229 1261 456 
L 1261 2073 
L 1837 2073 
C 2432 2073 2490 1865 2490 1334 
L 2605 1334 
L 2605 2991 
L 2490 2991 
C 2490 2451 2432 2240 1837 2240 
L 1261 2240 
L 1261 3922 
C 1261 4140 1274 4172 1530 4172 
L 2355 4172 
C 3322 4172 3430 3774 3520 2920 
L 3635 2920 
L 3482 4339 
z
" transform="scale(0.015625)"/>
       <path id="CMR17-69" d="M 992 3961 
C 992 4102 877 4224 730 4224 
C 589 4224 467 4108 467 3961 
C 467 3820 582 3699 730 3699 
C 870 3699 992 3814 992 3961 
z
M 243 2745 
L 243 2579 
C 602 2579 653 2540 653 2231 
L 653 443 
C 653 198 627 166 218 166 
L 218 0 
C 371 12 646 12 806 12 
C 960 12 1222 12 1370 0 
L 1370 166 
C 992 166 979 205 979 436 
L 979 2816 
L 243 2745 
z
" transform="scale(0.015625)"/>
       <path id="CMR17-47" d="M 3974 1258 
C 3974 1503 3994 1536 4390 1536 
L 4390 1702 
C 4237 1689 3891 1689 3718 1689 
C 3539 1689 3040 1696 2797 1702 
L 2797 1536 
L 2989 1536 
C 3539 1536 3552 1464 3552 1232 
L 3552 806 
C 3552 96 2720 38 2522 38 
C 1862 38 781 496 781 2179 
C 781 3862 1843 4313 2464 4313 
C 3187 4313 3712 3681 3834 2785 
C 3846 2708 3846 2695 3904 2695 
C 3974 2695 3974 2708 3974 2824 
L 3974 4351 
C 3974 4467 3968 4473 3930 4473 
C 3904 4473 3898 4467 3853 4390 
L 3571 3849 
C 3258 4249 2874 4480 2381 4480 
C 1286 4480 294 3507 294 2179 
C 294 858 1267 -128 2394 -128 
C 2912 -128 3418 57 3616 425 
C 3725 161 3904 -20 3936 -20 
C 3968 -20 3974 -13 3974 102 
L 3974 1258 
z
" transform="scale(0.015625)"/>
       <path id="CMR17-64" d="M 1869 4345 
L 1869 4179 
C 2246 4179 2304 4141 2304 3843 
L 2304 2371 
C 2278 2403 2016 2816 1498 2816 
C 845 2816 211 2228 211 1376 
C 211 529 806 -64 1434 -64 
C 1978 -64 2259 361 2291 406 
L 2291 -64 
L 3066 -13 
L 3066 154 
C 2688 154 2630 193 2630 503 
L 2630 4416 
L 1869 4345 
z
M 2291 762 
C 2291 568 2176 393 2029 264 
C 1811 70 1594 38 1472 38 
C 1286 38 621 135 621 1369 
C 621 2636 1363 2713 1530 2713 
C 1824 2713 2061 2545 2208 2313 
C 2291 2177 2291 2157 2291 2041 
L 2291 762 
z
" transform="scale(0.015625)"/>
       <path id="CMR17-6a" d="M 1165 3961 
C 1165 4102 1050 4224 902 4224 
C 762 4224 640 4108 640 3961 
C 640 3820 755 3699 902 3699 
C 1043 3699 1165 3814 1165 3961 
z
M 365 2745 
L 365 2579 
C 787 2579 838 2533 838 2221 
L 838 -410 
C 838 -735 781 -1242 403 -1242 
C 358 -1242 186 -1236 45 -1145 
C 90 -1138 250 -1093 250 -911 
C 250 -787 166 -677 19 -677 
C -122 -677 -211 -774 -211 -917 
C -211 -1177 70 -1344 397 -1344 
C 838 -1344 1165 -937 1165 -384 
L 1165 2816 
L 365 2745 
z
" transform="scale(0.015625)"/>
      </defs>
      <use xlink:href="#CMR17-46" transform="scale(0.996264)"/>
      <use xlink:href="#CMR17-69" transform="translate(59.983847 0) scale(0.996264)"/>
      <use xlink:href="#CMR17-6e" transform="translate(84.854905 0) scale(0.996264)"/>
      <use xlink:href="#CMR17-61" transform="translate(135.750275 0) scale(0.996264)"/>
      <use xlink:href="#CMR17-6c" transform="translate(181.440752 0) scale(0.996264)"/>
      <use xlink:href="#CMR17-47" transform="translate(236.387777 0) scale(0.996264)"/>
      <use xlink:href="#CMR17-72" transform="translate(308.743123 0) scale(0.996264)"/>
      <use xlink:href="#CMR17-61" transform="translate(344.023891 0) scale(0.996264)"/>
      <use xlink:href="#CMR17-64" transform="translate(389.714368 0) scale(0.996264)"/>
      <use xlink:href="#CMR17-75" transform="translate(440.609737 0) scale(0.996264)"/>
      <use xlink:href="#CMR17-61" transform="translate(491.505107 0) scale(0.996264)"/>
      <use xlink:href="#CMR17-74" transform="translate(537.195584 0) scale(0.996264)"/>
      <use xlink:href="#CMR17-69" transform="translate(572.476352 0) scale(0.996264)"/>
      <use xlink:href="#CMR17-6f" transform="translate(597.347411 0) scale(0.996264)"/>
      <use xlink:href="#CMR17-6e" transform="translate(643.037888 0) scale(0.996264)"/>
      <use xlink:href="#CMR17-50" transform="translate(724.009224 0) scale(0.996264)"/>
      <use xlink:href="#CMR17-72" transform="translate(786.595524 0) scale(0.996264)"/>
      <use xlink:href="#CMR17-6f" transform="translate(821.876292 0) scale(0.996264)"/>
      <use xlink:href="#CMR17-6a" transform="translate(872.771571 0) scale(0.996264)"/>
      <use xlink:href="#CMR17-65" transform="translate(900.245083 0) scale(0.996264)"/>
      <use xlink:href="#CMR17-63" transform="translate(940.730744 0) scale(0.996264)"/>
      <use xlink:href="#CMR17-74" transform="translate(981.216404 0) scale(0.996264)"/>
      <use xlink:href="#CMR17-73" transform="translate(1016.497172 0) scale(0.996264)"/>
     </g>
    </g>
    <g id="patch_75">
     <path d="M 57.185746 93.298383 
L 81.185746 93.298383 
L 81.185746 84.898383 
L 57.185746 84.898383 
z
" style="fill: #9467bd"/>
    </g>
    <g id="text_27">
     <!-- Journal Articles -->
     <g transform="translate(90.785746 93.298383) scale(0.12 -0.12)">
      <defs>
       <path id="CMR17-4a" d="M 1888 902 
C 1888 316 1568 -26 1242 -26 
C 1075 -26 691 49 525 428 
C 550 422 582 415 608 415 
C 730 415 883 499 883 691 
C 883 844 774 960 614 960 
C 461 960 339 863 339 678 
C 339 254 730 -128 1254 -128 
C 1754 -128 2214 223 2291 755 
C 2298 799 2298 812 2298 1030 
L 2298 3734 
C 2298 3844 2298 4024 2310 4063 
C 2336 4185 2483 4185 2682 4185 
L 2682 4352 
C 2669 4352 2214 4339 2054 4339 
C 1786 4339 1491 4339 1222 4352 
L 1222 4185 
L 1376 4185 
C 1875 4185 1888 4114 1888 3883 
L 1888 902 
z
" transform="scale(0.015625)"/>
       <path id="CMR17-41" d="M 2323 4441 
C 2291 4524 2278 4544 2214 4544 
C 2150 4544 2138 4524 2106 4441 
L 749 580 
C 627 236 371 166 147 166 
L 147 0 
C 262 12 518 12 640 12 
C 800 12 1056 12 1210 0 
L 1210 166 
C 909 179 864 382 864 459 
C 864 516 877 548 890 586 
L 1229 1536 
L 2906 1536 
L 3290 453 
C 3322 376 3322 363 3322 338 
C 3322 166 3046 166 2925 166 
L 2925 0 
C 3110 12 3443 12 3642 12 
C 3808 12 4128 12 4282 0 
L 4282 166 
C 3942 166 3827 166 3744 402 
L 2323 4441 
z
M 2067 3924 
L 2848 1702 
L 1286 1702 
L 2067 3924 
z
" transform="scale(0.015625)"/>
      </defs>
      <use xlink:href="#CMR17-4a" transform="scale(0.996264)"/>
      <use xlink:href="#CMR17-6f" transform="translate(46.97179 0) scale(0.996264)"/>
      <use xlink:href="#CMR17-75" transform="translate(92.662267 0) scale(0.996264)"/>
      <use xlink:href="#CMR17-72" transform="translate(143.557637 0) scale(0.996264)"/>
      <use xlink:href="#CMR17-6e" transform="translate(178.838404 0) scale(0.996264)"/>
      <use xlink:href="#CMR17-61" transform="translate(229.733774 0) scale(0.996264)"/>
      <use xlink:href="#CMR17-6c" transform="translate(275.424251 0) scale(0.996264)"/>
      <use xlink:href="#CMR17-41" transform="translate(330.371276 0) scale(0.996264)"/>
      <use xlink:href="#CMR17-72" transform="translate(399.443706 0) scale(0.996264)"/>
      <use xlink:href="#CMR17-74" transform="translate(434.724474 0) scale(0.996264)"/>
      <use xlink:href="#CMR17-69" transform="translate(470.005242 0) scale(0.996264)"/>
      <use xlink:href="#CMR17-63" transform="translate(494.8763 0) scale(0.996264)"/>
      <use xlink:href="#CMR17-6c" transform="translate(535.361961 0) scale(0.996264)"/>
      <use xlink:href="#CMR17-65" transform="translate(560.233019 0) scale(0.996264)"/>
      <use xlink:href="#CMR17-73" transform="translate(600.718679 0) scale(0.996264)"/>
     </g>
    </g>
    <g id="patch_76">
     <path d="M 57.185746 110.022979 
L 81.185746 110.022979 
L 81.185746 101.622979 
L 57.185746 101.622979 
z
" style="fill: #8c564b"/>
    </g>
    <g id="text_28">
     <!-- Master's Degree Dissertations -->
     <g transform="translate(90.785746 110.022979) scale(0.12 -0.12)">
      <defs>
       <path id="CMR17-4d" d="M 1338 4249 
C 1299 4345 1293 4352 1158 4352 
L 339 4352 
L 339 4185 
C 781 4185 851 4185 851 3898 
L 851 624 
C 851 465 851 166 339 166 
L 339 0 
C 486 12 755 12 915 12 
C 1075 12 1344 12 1491 0 
L 1491 166 
C 979 166 979 465 979 624 
L 979 4159 
L 986 4159 
L 2490 102 
C 2515 38 2528 0 2579 0 
C 2630 0 2643 38 2669 102 
L 4186 4191 
L 4192 4191 
L 4192 453 
C 4192 166 4122 166 3680 166 
L 3680 0 
C 3853 12 4198 12 4384 12 
C 4570 12 4922 12 5094 0 
L 5094 166 
C 4653 166 4582 166 4582 453 
L 4582 3898 
C 4582 4185 4653 4185 5094 4185 
L 5094 4352 
L 4282 4352 
C 4147 4352 4141 4345 4102 4249 
L 2720 516 
L 1338 4249 
z
" transform="scale(0.015625)"/>
       <path id="CMR17-27" d="M 1024 4012 
C 1037 3942 1043 3916 1043 3810 
C 1043 3418 883 3058 634 2803 
C 608 2777 595 2758 595 2732 
C 595 2707 621 2681 646 2681 
C 691 2681 1146 3120 1146 3804 
C 1146 3942 1133 4416 800 4416 
C 659 4416 538 4319 538 4153 
C 538 3987 659 3891 800 3891 
C 858 3891 966 3910 1024 4012 
z
" transform="scale(0.015625)"/>
       <path id="CMR17-67" d="M 710 1165 
C 832 1068 1043 960 1299 960 
C 1805 960 2240 1359 2240 1895 
C 2240 2063 2189 2321 1997 2521 
C 2176 2713 2438 2777 2586 2777 
C 2611 2777 2650 2777 2682 2758 
C 2656 2751 2598 2726 2598 2623 
C 2598 2540 2656 2483 2739 2483 
C 2835 2483 2886 2547 2886 2630 
C 2886 2751 2790 2880 2586 2880 
C 2330 2880 2106 2758 1926 2591 
C 1734 2764 1504 2828 1299 2828 
C 794 2828 358 2431 358 1895 
C 358 1527 570 1294 634 1230 
C 442 1004 442 742 442 710 
C 442 544 506 300 723 166 
C 390 82 128 -184 128 -517 
C 128 -996 736 -1344 1466 -1344 
C 2170 -1344 2803 -1009 2803 -510 
C 2803 384 1856 384 1363 384 
C 1216 384 954 384 922 390 
C 723 422 589 601 589 825 
C 589 883 589 1024 710 1165 
z
M 1299 1068 
C 736 1068 736 1766 736 1895 
C 736 2024 736 2719 1299 2719 
C 1862 2719 1862 2024 1862 1895 
C 1862 1766 1862 1068 1299 1068 
z
M 1466 -1236 
C 826 -1236 384 -883 384 -517 
C 384 -311 493 -118 634 -11 
C 794 102 858 102 1293 102 
C 1818 102 2547 102 2547 -517 
C 2547 -883 2106 -1236 1466 -1236 
z
" transform="scale(0.015625)"/>
      </defs>
      <use xlink:href="#CMR17-4d" transform="scale(0.996264)"/>
      <use xlink:href="#CMR17-61" transform="translate(84.686941 0) scale(0.996264)"/>
      <use xlink:href="#CMR17-73" transform="translate(130.377418 0) scale(0.996264)"/>
      <use xlink:href="#CMR17-74" transform="translate(166.178755 0) scale(0.996264)"/>
      <use xlink:href="#CMR17-65" transform="translate(201.459523 0) scale(0.996264)"/>
      <use xlink:href="#CMR17-72" transform="translate(241.945184 0) scale(0.996264)"/>
      <use xlink:href="#CMR17-27" transform="translate(277.225951 0) scale(0.996264)"/>
      <use xlink:href="#CMR17-73" transform="translate(302.09701 0) scale(0.996264)"/>
      <use xlink:href="#CMR17-44" transform="translate(367.974314 0) scale(0.996264)"/>
      <use xlink:href="#CMR17-65" transform="translate(438.36787 0) scale(0.996264)"/>
      <use xlink:href="#CMR17-67" transform="translate(478.85353 0) scale(0.996264)"/>
      <use xlink:href="#CMR17-72" transform="translate(524.544007 0) scale(0.996264)"/>
      <use xlink:href="#CMR17-65" transform="translate(559.824775 0) scale(0.996264)"/>
      <use xlink:href="#CMR17-65" transform="translate(600.310436 0) scale(0.996264)"/>
      <use xlink:href="#CMR17-44" transform="translate(670.872062 0) scale(0.996264)"/>
      <use xlink:href="#CMR17-69" transform="translate(741.265618 0) scale(0.996264)"/>
      <use xlink:href="#CMR17-73" transform="translate(766.136677 0) scale(0.996264)"/>
      <use xlink:href="#CMR17-73" transform="translate(801.938014 0) scale(0.996264)"/>
      <use xlink:href="#CMR17-65" transform="translate(837.739352 0) scale(0.996264)"/>
      <use xlink:href="#CMR17-72" transform="translate(878.225013 0) scale(0.996264)"/>
      <use xlink:href="#CMR17-74" transform="translate(913.50578 0) scale(0.996264)"/>
      <use xlink:href="#CMR17-61" transform="translate(948.786548 0) scale(0.996264)"/>
      <use xlink:href="#CMR17-74" transform="translate(994.477025 0) scale(0.996264)"/>
      <use xlink:href="#CMR17-69" transform="translate(1029.757793 0) scale(0.996264)"/>
      <use xlink:href="#CMR17-6f" transform="translate(1054.628852 0) scale(0.996264)"/>
      <use xlink:href="#CMR17-6e" transform="translate(1100.319329 0) scale(0.996264)"/>
      <use xlink:href="#CMR17-73" transform="translate(1151.214698 0) scale(0.996264)"/>
     </g>
    </g>
    <g id="patch_77">
     <path d="M 57.185746 126.747575 
L 81.185746 126.747575 
L 81.185746 118.347575 
L 57.185746 118.347575 
z
" style="fill: #e377c2"/>
    </g>
    <g id="text_29">
     <!-- Other Articles -->
     <g transform="translate(90.785746 126.747575) scale(0.12 -0.12)">
      <defs>
       <path id="CMR17-4f" d="M 4307 2166 
C 4307 3488 3366 4480 2304 4480 
C 1216 4480 294 3475 294 2166 
C 294 857 1229 -128 2298 -128 
C 3392 -128 4307 876 4307 2166 
z
M 2304 -13 
C 1574 -13 781 722 781 2250 
C 781 3771 1651 4364 2298 4364 
C 2976 4364 3821 3752 3821 2250 
C 3821 696 3008 -13 2304 -13 
z
" transform="scale(0.015625)"/>
      </defs>
      <use xlink:href="#CMR17-4f" transform="scale(0.996264)"/>
      <use xlink:href="#CMR17-74" transform="translate(71.714788 0) scale(0.996264)"/>
      <use xlink:href="#CMR17-68" transform="translate(106.995556 0) scale(0.996264)"/>
      <use xlink:href="#CMR17-65" transform="translate(157.890926 0) scale(0.996264)"/>
      <use xlink:href="#CMR17-72" transform="translate(198.376586 0) scale(0.996264)"/>
      <use xlink:href="#CMR17-41" transform="translate(263.733321 0) scale(0.996264)"/>
      <use xlink:href="#CMR17-72" transform="translate(332.80575 0) scale(0.996264)"/>
      <use xlink:href="#CMR17-74" transform="translate(368.086518 0) scale(0.996264)"/>
      <use xlink:href="#CMR17-69" transform="translate(403.367286 0) scale(0.996264)"/>
      <use xlink:href="#CMR17-63" transform="translate(428.238344 0) scale(0.996264)"/>
      <use xlink:href="#CMR17-6c" transform="translate(468.724005 0) scale(0.996264)"/>
      <use xlink:href="#CMR17-65" transform="translate(493.595063 0) scale(0.996264)"/>
      <use xlink:href="#CMR17-73" transform="translate(534.080724 0) scale(0.996264)"/>
     </g>
    </g>
    <g id="patch_78">
     <path d="M 57.185746 143.47217 
L 81.185746 143.47217 
L 81.185746 135.07217 
L 57.185746 135.07217 
z
" style="fill: #7f7f7f"/>
    </g>
    <g id="text_30">
     <!-- Repository Articles -->
     <g transform="translate(90.785746 143.47217) scale(0.12 -0.12)">
      <defs>
       <path id="CMR17-52" d="M 2509 2156 
C 3117 2278 3629 2689 3629 3203 
C 3629 3806 2950 4352 2054 4352 
L 333 4352 
L 333 4185 
C 774 4185 845 4185 845 3896 
L 845 428 
C 845 140 774 140 333 140 
L 333 -26 
C 518 -13 851 -13 1050 -13 
C 1248 -13 1581 -13 1766 -26 
L 1766 140 
C 1325 140 1254 140 1254 428 
L 1254 2112 
L 2003 2112 
C 2368 2112 2573 1964 2662 1881 
C 2918 1632 2918 1459 2918 1024 
C 2918 595 2918 377 3110 160 
C 3354 -103 3680 -128 3821 -128 
C 4294 -128 4365 403 4365 512 
C 4365 550 4365 595 4307 595 
C 4256 595 4250 556 4250 531 
C 4218 115 4032 -26 3834 -26 
C 3482 -26 3443 377 3405 768 
C 3386 902 3373 998 3360 1139 
C 3322 1459 3270 1926 2509 2156 
z
M 1984 2214 
L 1254 2214 
L 1254 3935 
C 1254 4153 1267 4185 1523 4185 
L 1990 4185 
C 2522 4185 3142 3999 3142 3203 
C 3142 2374 2464 2214 1984 2214 
z
" transform="scale(0.015625)"/>
       <path id="CMR17-79" d="M 2496 2183 
C 2656 2579 2944 2585 3034 2585 
L 3034 2752 
C 2912 2745 2752 2739 2630 2739 
C 2496 2739 2285 2739 2157 2752 
L 2157 2585 
C 2400 2566 2406 2384 2406 2332 
C 2406 2268 2394 2235 2362 2158 
L 1664 409 
L 902 2300 
C 870 2378 870 2423 870 2430 
C 870 2572 1018 2585 1171 2585 
L 1171 2752 
C 1018 2739 742 2739 582 2739 
C 410 2739 205 2739 64 2752 
L 64 2585 
C 410 2585 448 2553 531 2345 
L 1485 -31 
C 1197 -795 1030 -1242 627 -1242 
C 557 -1242 397 -1223 282 -1106 
C 429 -1093 493 -1002 493 -892 
C 493 -782 416 -685 288 -685 
C 147 -685 77 -782 77 -899 
C 77 -1158 339 -1344 627 -1344 
C 998 -1344 1229 -983 1357 -659 
L 2496 2183 
z
" transform="scale(0.015625)"/>
      </defs>
      <use xlink:href="#CMR17-52" transform="scale(0.996264)"/>
      <use xlink:href="#CMR17-65" transform="translate(67.791102 0) scale(0.996264)"/>
      <use xlink:href="#CMR17-70" transform="translate(108.276762 0) scale(0.996264)"/>
      <use xlink:href="#CMR17-6f" transform="translate(161.774571 0) scale(0.996264)"/>
      <use xlink:href="#CMR17-73" transform="translate(207.465048 0) scale(0.996264)"/>
      <use xlink:href="#CMR17-69" transform="translate(243.266386 0) scale(0.996264)"/>
      <use xlink:href="#CMR17-74" transform="translate(268.137444 0) scale(0.996264)"/>
      <use xlink:href="#CMR17-6f" transform="translate(303.418212 0) scale(0.996264)"/>
      <use xlink:href="#CMR17-72" transform="translate(349.108689 0) scale(0.996264)"/>
      <use xlink:href="#CMR17-79" transform="translate(384.389457 0) scale(0.996264)"/>
      <use xlink:href="#CMR17-41" transform="translate(462.758339 0) scale(0.996264)"/>
      <use xlink:href="#CMR17-72" transform="translate(531.830769 0) scale(0.996264)"/>
      <use xlink:href="#CMR17-74" transform="translate(567.111537 0) scale(0.996264)"/>
      <use xlink:href="#CMR17-69" transform="translate(602.392304 0) scale(0.996264)"/>
      <use xlink:href="#CMR17-63" transform="translate(627.263363 0) scale(0.996264)"/>
      <use xlink:href="#CMR17-6c" transform="translate(667.749023 0) scale(0.996264)"/>
      <use xlink:href="#CMR17-65" transform="translate(692.620082 0) scale(0.996264)"/>
      <use xlink:href="#CMR17-73" transform="translate(733.105742 0) scale(0.996264)"/>
     </g>
    </g>
    <g id="patch_79">
     <path d="M 57.185746 160.196766 
L 81.185746 160.196766 
L 81.185746 151.796766 
L 57.185746 151.796766 
z
" style="fill: #bcbd22"/>
    </g>
    <g id="text_31">
     <!-- Specialization Monographs -->
     <g transform="translate(90.785746 160.196766) scale(0.12 -0.12)">
      <defs>
       <path id="CMR17-53" d="M 2803 4351 
C 2803 4467 2797 4473 2758 4473 
C 2720 4473 2707 4447 2682 4390 
L 2490 3965 
C 2246 4320 1875 4480 1472 4480 
C 819 4480 294 3958 294 3301 
C 294 3101 339 2817 557 2546 
C 794 2250 1018 2198 1530 2063 
C 1722 2011 2042 1927 2106 1901 
C 2470 1747 2662 1360 2662 999 
C 2662 534 2336 38 1779 38 
C 1094 38 454 425 410 1328 
C 403 1431 397 1437 352 1437 
C 301 1437 294 1431 294 1302 
L 294 0 
C 294 -116 301 -122 339 -122 
C 384 -122 397 -90 486 109 
C 493 128 493 141 614 386 
C 934 -39 1472 -128 1779 -128 
C 2477 -128 2970 457 2970 1141 
C 2970 1476 2848 1734 2778 1850 
C 2509 2263 2221 2340 1914 2417 
C 1869 2437 1856 2437 1498 2527 
C 1152 2617 1005 2662 845 2836 
C 666 3036 602 3243 602 3449 
C 602 3868 934 4326 1478 4326 
C 2157 4326 2579 3842 2675 3036 
C 2694 2920 2701 2914 2746 2914 
C 2803 2914 2803 2933 2803 3043 
L 2803 4351 
z
" transform="scale(0.015625)"/>
       <path id="CMR17-7a" d="M 2310 2604 
C 2362 2668 2362 2681 2362 2694 
C 2362 2752 2336 2752 2221 2752 
L 275 2752 
L 211 1760 
L 326 1760 
C 371 2380 442 2649 1178 2649 
L 1958 2649 
L 128 96 
C 128 6 134 0 269 0 
L 2291 0 
L 2381 1152 
L 2266 1152 
C 2214 441 2131 115 1350 115 
L 531 115 
L 2310 2604 
z
" transform="scale(0.015625)"/>
      </defs>
      <use xlink:href="#CMR17-53" transform="scale(0.996264)"/>
      <use xlink:href="#CMR17-70" transform="translate(50.89537 0) scale(0.996264)"/>
      <use xlink:href="#CMR17-65" transform="translate(104.393178 0) scale(0.996264)"/>
      <use xlink:href="#CMR17-63" transform="translate(144.878839 0) scale(0.996264)"/>
      <use xlink:href="#CMR17-69" transform="translate(185.364499 0) scale(0.996264)"/>
      <use xlink:href="#CMR17-61" transform="translate(210.235558 0) scale(0.996264)"/>
      <use xlink:href="#CMR17-6c" transform="translate(255.926035 0) scale(0.996264)"/>
      <use xlink:href="#CMR17-69" transform="translate(280.797093 0) scale(0.996264)"/>
      <use xlink:href="#CMR17-7a" transform="translate(305.668152 0) scale(0.996264)"/>
      <use xlink:href="#CMR17-61" transform="translate(346.153812 0) scale(0.996264)"/>
      <use xlink:href="#CMR17-74" transform="translate(391.844289 0) scale(0.996264)"/>
      <use xlink:href="#CMR17-69" transform="translate(427.125057 0) scale(0.996264)"/>
      <use xlink:href="#CMR17-6f" transform="translate(451.996116 0) scale(0.996264)"/>
      <use xlink:href="#CMR17-6e" transform="translate(497.686593 0) scale(0.996264)"/>
      <use xlink:href="#CMR17-4d" transform="translate(578.657929 0) scale(0.996264)"/>
      <use xlink:href="#CMR17-6f" transform="translate(663.344869 0) scale(0.996264)"/>
      <use xlink:href="#CMR17-6e" transform="translate(709.035347 0) scale(0.996264)"/>
      <use xlink:href="#CMR17-6f" transform="translate(759.930716 0) scale(0.996264)"/>
      <use xlink:href="#CMR17-67" transform="translate(805.621193 0) scale(0.996264)"/>
      <use xlink:href="#CMR17-72" transform="translate(851.311671 0) scale(0.996264)"/>
      <use xlink:href="#CMR17-61" transform="translate(886.592438 0) scale(0.996264)"/>
      <use xlink:href="#CMR17-70" transform="translate(932.282916 0) scale(0.996264)"/>
      <use xlink:href="#CMR17-68" transform="translate(983.178285 0) scale(0.996264)"/>
      <use xlink:href="#CMR17-73" transform="translate(1034.073655 0) scale(0.996264)"/>
     </g>
    </g>
   </g>
  </g>
 </g>
 <defs>
  <clipPath id="pcbebc0375d">
   <rect x="46.385746" y="7.2" width="582.894254" height="373.826449"/>
  </clipPath>
 </defs>
</svg>
