<svg class="main-svg" xmlns="http://www.w3.org/2000/svg" xmlns:xlink="http://www.w3.org/1999/xlink" width="1200" height="600" style="" viewBox="0 0 1200 600"><rect x="0" y="0" width="1200" height="600" style="fill: rgb(255, 255, 255); fill-opacity: 1;"/><defs id="defs-7fe2a8"><g class="clips"><clipPath id="clip7fe2a8xyplot" class="plotclip"><rect width="950" height="452"/></clipPath><clipPath id="clip7fe2a8xy2plot" class="plotclip"><rect width="950" height="452"/></clipPath><clipPath id="clip7fe2a8xy3plot" class="plotclip"><rect width="950" height="452"/></clipPath><clipPath id="clip7fe2a8xy4plot" class="plotclip"><rect width="950" height="452"/></clipPath><clipPath class="axesclip" id="clip7fe2a8x"><rect x="100" y="0" width="950" height="600"/></clipPath><clipPath class="axesclip" id="clip7fe2a8y"><rect x="0" y="80" width="1200" height="452"/></clipPath><clipPath class="axesclip" id="clip7fe2a8xy"><rect x="100" y="80" width="950" height="452"/></clipPath><clipPath class="axesclip" id="clip7fe2a8y2"><rect x="0" y="80" width="1200" height="452"/></clipPath><clipPath class="axesclip" id="clip7fe2a8xy2"><rect x="100" y="80" width="950" height="452"/></clipPath><clipPath class="axesclip" id="clip7fe2a8y3"><rect x="0" y="80" width="1200" height="452"/></clipPath><clipPath class="axesclip" id="clip7fe2a8xy3"><rect x="100" y="80" width="950" height="452"/></clipPath><clipPath class="axesclip" id="clip7fe2a8y4"><rect x="0" y="80" width="1200" height="452"/></clipPath><clipPath class="axesclip" id="clip7fe2a8xy4"><rect x="100" y="80" width="950" height="452"/></clipPath></g><g class="gradients"/><g class="patterns"/></defs><g class="bglayer"/><g class="layer-below"><g class="imagelayer"/><g class="shapelayer"/></g><g class="cartesianlayer"><g class="subplot xy"><g class="layer-subplot"><g class="shapelayer"/><g class="imagelayer"/></g><g class="minor-gridlayer"><g class="x"/><g class="y"/><g class="y2"/><g class="y3"/><g class="y4"/></g><g class="gridlayer"><g class="x"><path class="xgrid crisp" transform="translate(154.6,0)" d="M0,80v452" style="stroke: rgb(255, 255, 255); stroke-opacity: 1; stroke-width: 1px;"/><path class="xgrid crisp" transform="translate(268.56,0)" d="M0,80v452" style="stroke: rgb(255, 255, 255); stroke-opacity: 1; stroke-width: 1px;"/><path class="xgrid crisp" transform="translate(382.51,0)" d="M0,80v452" style="stroke: rgb(255, 255, 255); stroke-opacity: 1; stroke-width: 1px;"/><path class="xgrid crisp" transform="translate(496.46,0)" d="M0,80v452" style="stroke: rgb(255, 255, 255); stroke-opacity: 1; stroke-width: 1px;"/><path class="xgrid crisp" transform="translate(610.4100000000001,0)" d="M0,80v452" style="stroke: rgb(255, 255, 255); stroke-opacity: 1; stroke-width: 1px;"/><path class="xgrid crisp" transform="translate(724.36,0)" d="M0,80v452" style="stroke: rgb(255, 255, 255); stroke-opacity: 1; stroke-width: 1px;"/><path class="xgrid crisp" transform="translate(838.32,0)" d="M0,80v452" style="stroke: rgb(255, 255, 255); stroke-opacity: 1; stroke-width: 1px;"/><path class="xgrid crisp" transform="translate(952.27,0)" d="M0,80v452" style="stroke: rgb(255, 255, 255); stroke-opacity: 1; stroke-width: 1px;"/></g><g class="y"><path class="ygrid crisp" transform="translate(0,509.4)" d="M100,0h950" style="stroke: rgb(255, 255, 255); stroke-opacity: 1; stroke-width: 1px;"/><path class="ygrid crisp" transform="translate(0,458.55)" d="M100,0h950" style="stroke: rgb(255, 255, 255); stroke-opacity: 1; stroke-width: 1px;"/><path class="ygrid crisp" transform="translate(0,407.7)" d="M100,0h950" style="stroke: rgb(255, 255, 255); stroke-opacity: 1; stroke-width: 1px;"/><path class="ygrid crisp" transform="translate(0,356.85)" d="M100,0h950" style="stroke: rgb(255, 255, 255); stroke-opacity: 1; stroke-width: 1px;"/><path class="ygrid crisp" transform="translate(0,306)" d="M100,0h950" style="stroke: rgb(255, 255, 255); stroke-opacity: 1; stroke-width: 1px;"/><path class="ygrid crisp" transform="translate(0,255.15)" d="M100,0h950" style="stroke: rgb(255, 255, 255); stroke-opacity: 1; stroke-width: 1px;"/><path class="ygrid crisp" transform="translate(0,204.3)" d="M100,0h950" style="stroke: rgb(255, 255, 255); stroke-opacity: 1; stroke-width: 1px;"/><path class="ygrid crisp" transform="translate(0,153.45)" d="M100,0h950" style="stroke: rgb(255, 255, 255); stroke-opacity: 1; stroke-width: 1px;"/><path class="ygrid crisp" transform="translate(0,102.6)" d="M100,0h950" style="stroke: rgb(255, 255, 255); stroke-opacity: 1; stroke-width: 1px;"/></g><g class="y2"><path class="y2grid crisp" transform="translate(0,492.08)" d="M100,0h950" style="stroke: rgb(255, 255, 255); stroke-opacity: 1; stroke-width: 1px;"/><path class="y2grid crisp" transform="translate(0,410.61)" d="M100,0h950" style="stroke: rgb(255, 255, 255); stroke-opacity: 1; stroke-width: 1px;"/><path class="y2grid crisp" transform="translate(0,329.14)" d="M100,0h950" style="stroke: rgb(255, 255, 255); stroke-opacity: 1; stroke-width: 1px;"/><path class="y2grid crisp" transform="translate(0,247.67)" d="M100,0h950" style="stroke: rgb(255, 255, 255); stroke-opacity: 1; stroke-width: 1px;"/><path class="y2grid crisp" transform="translate(0,166.2)" d="M100,0h950" style="stroke: rgb(255, 255, 255); stroke-opacity: 1; stroke-width: 1px;"/><path class="y2grid crisp" transform="translate(0,84.74)" d="M100,0h950" style="stroke: rgb(255, 255, 255); stroke-opacity: 1; stroke-width: 1px;"/></g><g class="y3"><path class="y3grid crisp" transform="translate(0,487.61)" d="M100,0h950" style="stroke: rgb(255, 255, 255); stroke-opacity: 1; stroke-width: 1px;"/><path class="y3grid crisp" transform="translate(0,434.54)" d="M100,0h950" style="stroke: rgb(255, 255, 255); stroke-opacity: 1; stroke-width: 1px;"/><path class="y3grid crisp" transform="translate(0,381.48)" d="M100,0h950" style="stroke: rgb(255, 255, 255); stroke-opacity: 1; stroke-width: 1px;"/><path class="y3grid crisp" transform="translate(0,328.40999999999997)" d="M100,0h950" style="stroke: rgb(255, 255, 255); stroke-opacity: 1; stroke-width: 1px;"/><path class="y3grid crisp" transform="translate(0,275.35)" d="M100,0h950" style="stroke: rgb(255, 255, 255); stroke-opacity: 1; stroke-width: 1px;"/><path class="y3grid crisp" transform="translate(0,222.28)" d="M100,0h950" style="stroke: rgb(255, 255, 255); stroke-opacity: 1; stroke-width: 1px;"/><path class="y3grid crisp" transform="translate(0,169.22)" d="M100,0h950" style="stroke: rgb(255, 255, 255); stroke-opacity: 1; stroke-width: 1px;"/><path class="y3grid crisp" transform="translate(0,116.15)" d="M100,0h950" style="stroke: rgb(255, 255, 255); stroke-opacity: 1; stroke-width: 1px;"/></g><g class="y4"><path class="y4grid crisp" transform="translate(0,498.03)" d="M100,0h950" style="stroke: rgb(255, 255, 255); stroke-opacity: 1; stroke-width: 1px;"/><path class="y4grid crisp" transform="translate(0,431.33)" d="M100,0h950" style="stroke: rgb(255, 255, 255); stroke-opacity: 1; stroke-width: 1px;"/><path class="y4grid crisp" transform="translate(0,364.62)" d="M100,0h950" style="stroke: rgb(255, 255, 255); stroke-opacity: 1; stroke-width: 1px;"/><path class="y4grid crisp" transform="translate(0,297.90999999999997)" d="M100,0h950" style="stroke: rgb(255, 255, 255); stroke-opacity: 1; stroke-width: 1px;"/><path class="y4grid crisp" transform="translate(0,231.21)" d="M100,0h950" style="stroke: rgb(255, 255, 255); stroke-opacity: 1; stroke-width: 1px;"/><path class="y4grid crisp" transform="translate(0,164.5)" d="M100,0h950" style="stroke: rgb(255, 255, 255); stroke-opacity: 1; stroke-width: 1px;"/><path class="y4grid crisp" transform="translate(0,97.8)" d="M100,0h950" style="stroke: rgb(255, 255, 255); stroke-opacity: 1; stroke-width: 1px;"/></g></g><g class="zerolinelayer"/><g class="layer-between"><g class="shapelayer"/><g class="imagelayer"/></g><path class="xlines-below"/><path class="ylines-below"/><g class="overlines-below"><path class="xy2-x"/><path class="xy2-y"/><path class="xy3-x"/><path class="xy3-y"/><path class="xy4-x"/><path class="xy4-y"/></g><g class="xaxislayer-below"/><g class="yaxislayer-below"/><g class="overaxes-below"><g class="xy2-x"/><g class="xy2-y"/><g class="xy3-x"/><g class="xy3-y"/><g class="xy4-x"/><g class="xy4-y"/></g><g class="overplot"><g class="xy" transform="translate(100,80)" clip-path="url(#clip7fe2a8xyplot)"><g class="scatterlayer mlayer"><g class="trace scatter trace9dd28a" style="stroke-miterlimit: 2; opacity: 1;"><g class="fills"/><g class="errorbars"/><g class="lines"><path class="js-line" d="M79.17,22.6L608.66,22.77L608.68,23.36L609.98,82.5L609.99,83.57L611.51,133.08L611.53,133.3L612.98,149.04L613,149.12L613.63,156.25L613.65,156.61L615.23,174.89L615.25,174.94L616.13,175.14L616.15,175.14L616.44,177.3L616.45,177.49L619.14,200.47L619.16,200.47L625.8,201.19L625.82,201.38L628.46,225.86L628.48,225.88L628.8,227.08L628.81,227.17L629.9,237.98L629.92,238.28L631.39,251.2L631.41,251.24L631.58,256.07L631.6,256.64L633.4,317.73L633.42,317.9L636.04,351.74L636.06,351.84L636.2,352.71L636.38,349.03L636.39,348.7L637.15,332.85L637.36,341.5L637.37,342.17L638.85,372.62L638.86,372.62L639.16,373.31L639.18,373.4L640.74,378.49L640.76,378.5L645.05,378.55L645.07,378.55L647.61,378.99L647.63,379.36L649.45,403.72L649.47,403.77L650.83,403.93L650.84,403.93L656.41,404.73L656.43,404.77L657.68,410.7L657.7,410.81L658.88,414.01L658.9,414.02L660.29,414.14L660.31,414.14L732.16,414.73L732.18,414.92L733.55,427.45L733.57,427.5L734.88,429.36L734.9,429.37L741.13,429.4L741.15,429.4L870.83,429.4" style="vector-effect: none; fill: none; stroke: rgb(31, 119, 180); stroke-opacity: 1; stroke-width: 2px; opacity: 1;"/></g><g class="points"/><g class="text"/></g></g></g><g class="xy2" transform="translate(100,80)" clip-path="url(#clip7fe2a8xy2plot)"><g class="scatterlayer mlayer"><g class="trace scatter trace8702bd" style="stroke-miterlimit: 2; opacity: 1;"><g class="fills"/><g class="errorbars"/><g class="lines"><path class="js-line" d="M79.17,416.56L79.74,421.7L80.21,419.47L80.23,419.4L81.41,417.23L81.43,417.23L81.79,417.94L81.81,418.01L82.59,421.5L82.89,419.69L82.9,419.59L84.26,415.76L84.28,415.76L85.47,415.02L85.48,414.77L86.38,400.95L86.64,406.72L86.65,407.08L87.33,422.67L87.81,418.05L87.82,417.89L88.3,413.41L88.96,413.97L88.98,413.98L89.34,415.2L89.36,415.35L90.18,422.88L90.67,420.91L90.69,420.85L92.08,413.44L92.24,415.52L92.26,415.73L93.06,426.49L93.25,420.95L93.27,420.48L93.98,399.44L94.31,406.73L94.33,407.08L94.93,420.38L95.39,417.96L95.4,417.87L96.83,409.67L97.21,411.3L97.22,411.37L99.47,417.93L99.49,417.92L99.76,418.59L99.77,418.73L100.63,426.26L100.99,423.17L101.01,423.03L101.58,418.16L102.05,420.23L102.07,420.3L102.53,422.32L102.67,419.96L102.69,419.69L103.48,406.41L103.82,409.43L103.84,409.57L105.58,418.93L105.6,418.93L106.4,418.28L106.42,418.15L107.27,411.26L107.67,413.85L107.69,413.96L108.95,417.52L108.97,417.52L110.12,416.79L110.14,416.69L111.07,410.35L111.31,413.51L111.33,413.73L112.02,423.13L112.32,419.21L112.34,419L112.97,410.66L113.49,412.99L113.51,413.06L114.59,420.81L114.6,420.95L114.87,423.34L115.09,418.74L115.11,418.41L115.82,403.43L116.2,406.96L116.22,407.11L117.56,416.11L117.58,416.19L118.48,416.95L118.5,416.95L118.72,417.56L118.73,417.77L119.62,429.4L119.92,424.69L119.94,424.44L120.57,414.41L121.01,416.22L121.03,416.28L123.24,422.44L123.26,422.44L123.56,421.75L123.58,421.67L124.37,417.77L124.76,419.46L124.78,419.52L125.32,421.84L125.4,419.13L125.41,418.56L126.27,388.1L126.63,398.21L126.65,398.66L127.9,420.69L127.91,420.83L128.91,423.06L128.93,423.06L129.16,422.38L129.18,422.14L130.07,408.63L130.41,410.11L130.43,410.18L131.57,417.75L131.58,417.89L131.96,421.33L132.14,417.36L132.15,417L132.91,399.35L133.29,406.12L133.31,406.4L133.9,416.49L134.59,416.31L134.61,416.31L137.52,416.35L137.54,416.35L137.88,417.35L137.9,417.42L138.61,420.6L138.86,418.57L138.88,418.44L139.56,412.87L139.91,415.84L139.93,415.97L141.22,421.09L141.24,421.09L142.49,420.45L142.51,420.31L143.36,413.07L143.85,414.84L143.87,414.9L144.31,416.54L144.45,414.35L144.47,414.1L145.26,401.57L145.56,405.49L145.58,405.7L147.16,426.97L147.28,425.88L147.3,425.74L149.06,409.69L149.33,413.22L149.34,413.43L150.75,422.39L150.77,422.39L151.3,421.65L151.32,421.61L153.69,416.58L153.71,416.58L154.93,417.33L154.94,417.4L155.7,420.75L155.96,418.76L155.97,418.63L156.65,413.16L156.97,415.85L156.99,415.99L158.55,425.61L158.66,424.59L158.68,424.43L159.52,416.42L159.99,418.35L160.01,418.42L160.45,420.22L160.55,418.04L160.56,417.66L161.4,397.44L161.73,404.98L161.75,405.34L162.37,419.37L162.92,416.02L162.94,415.92L163.3,413.72L163.6,416.39L163.62,416.53L164.25,422.29L164.63,420.46L164.65,420.38L166.06,409.57L166.07,409.42L166.15,408.67L166.42,412.3L166.44,412.52L167.1,421.77L167.43,417.89L167.45,417.71L168.05,410.5L168.41,413.72L168.43,413.87L169.71,419.09L169.73,419.09L170.8,418.35L170.82,418.33L172.8,417.67L172.81,417.72L172.83,417.79L173.75,421.78L174.06,420.02L174.08,419.93L175.58,415.47L175.6,415.46L176.14,417.52L176.15,417.59L176.61,419.51L177.18,418.77L177.2,418.75L177.55,418.3L177.75,419.17L177.77,419.24L179.44,426.52L179.6,424.66L179.62,424.46L180.41,414.95L180.77,416.55L180.79,416.62L182.29,423.25L182.47,420.96L182.48,420.75L183.24,410.42L183.58,414.71L183.59,414.92L184.19,422.88L184.56,419.01L184.57,418.84L185.14,412.6L185.52,415.91L185.54,416.05L186.82,421.06L186.84,421.06L187.14,420.31L187.15,420.17L187.99,413.17L188.35,416.28L188.37,416.42L189.68,421.44L189.7,421.44L190.03,420.75L190.05,420.68L191.55,416.7L191.57,416.7L191.95,417.41L191.96,417.48L192.74,421.04L192.94,418.57L192.96,418.37L193.69,409.36L194.01,413.48L194.02,413.7L194.64,421.97L195.1,418.92L195.11,418.81L195.59,415.55L196.03,417.41L196.05,417.48L197.49,423.78L197.61,421.74L197.63,421.48L198.44,407.82L198.8,412.87L198.82,413.09L199.4,421.24L199.83,419.08L199.85,419L200.34,416.52L200.73,418.2L200.75,418.27L201.29,420.63L201.63,418.99L201.65,418.91L202.23,416.08L202.63,417.77L202.65,417.84L203.18,420.21L203.39,417.9L203.41,417.71L204.13,409.21L204.42,412.91L204.43,413.12L205.84,421.95L205.86,421.96L206.14,421.32L206.16,421.22L207.93,407.64L208.19,410.88L208.2,411.09L208.9,420.13L209.42,417.88L209.44,417.81L209.83,416.1L210.21,417.7L210.23,417.76L210.78,420.15L210.97,417.86L210.99,417.67L211.73,408.36L212.06,411.14L212.08,411.28L212.7,416.5L213.14,414.21L213.16,414.13L213.63,411.69L214.03,413.41L214.04,413.48L215.24,421.75L215.26,421.89L215.53,424.28L215.94,421.46L215.96,421.35L216.49,417.62L217.14,418.06L217.16,418.07L217.67,419.27L217.68,419.34L219.15,422.42L219.17,422.42L219.38,421.83L219.39,421.61L220.28,409.21L220.61,413.56L220.63,413.77L221.27,422.03L221.75,421.95L221.77,421.95L222.32,422.5L222.33,422.57L222.35,422.64L223.13,426.1L223.36,423.87L223.38,423.72L224.08,416.94L224.44,420.04L224.46,420.18L225.03,425.21L225.26,420.8L225.28,420.49L225.98,406.98L226.28,412.19L226.29,412.48L226.94,424.02L227.49,421.6L227.51,421.53L229.49,416.37L229.5,416.37L229.82,416.92L229.84,417.13L230.72,428.87L230.96,425.03L230.98,424.76L231.69,412.89L232.04,416.04L232.05,416.18L233.57,425.48L233.67,424.67L233.68,424.52L234.54,416.55L235.25,416.69L235.27,416.69L235.66,417.52L235.68,417.59L237.37,424.92L237.47,423.08L237.48,422.74L238.34,404.91L238.73,410.17L238.75,410.38L239.98,420.45L240,420.52L240.96,421.5L240.98,421.5L242.23,420.79L242.24,420.69L243.07,415.09L243.35,417.52L243.37,417.66L244.02,423.41L244.29,419.32L244.3,419.07L244.97,408.53L245.28,413.89L245.3,414.17L245.92,425.09L246.25,419.25L246.26,418.96L246.88,407.92L247.26,413.12L247.28,413.33L247.82,420.7L248.15,416.25L248.16,416.03L248.77,407.63L249.11,412.02L249.13,412.23L250.47,420.1L250.49,420.1L251.63,419.81L251.65,419.4L252.58,396L252.83,401.74L252.85,402.09L254.19,423.33L254.21,423.47L254.48,425.73L254.84,422.58L254.86,422.44L257.31,405.8L257.38,406.45L257.39,406.66L259.21,422.12L259.37,421.5L259.39,421.43L260.16,418.09L260.4,420.05L260.41,420.18L261.11,426.21L261.4,422.99L261.41,422.8L262.08,415.05L262.58,417.13L262.6,417.19L263.01,418.88L263.23,416.86L263.25,416.71L263.96,409.91L264.21,413.14L264.23,413.35L265.4,422.62L265.42,422.62L265.89,421.87L265.91,421.38L266.82,393.32L267.08,400.32L267.09,400.76L267.77,419.31L268.36,416.09L268.37,416L268.71,414.18L268.96,416.35L268.98,416.5L269.66,422.64L269.78,417L269.8,416.24L270.62,377.44L270.89,388.87L270.91,389.54L272.14,422.52L272.16,422.66L272.51,425.73L272.81,421.94L272.82,421.73L273.47,413.29L273.99,415.65L274.01,415.72L275.35,425.73L275.42,422.78L275.43,421.92L276.32,374.34L276.68,390.2L276.7,390.89L278.12,419.2L278.14,419.27L279.15,423.74L279.37,421.49L279.39,421.32L280.12,413.7L280.48,416.89L280.5,417.03L281.8,421.97L281.81,421.97L282.05,421.22L282.06,420.92L282.97,403.87L283.3,409.86L283.32,410.15L283.92,420.8L284.34,417.75L284.36,417.64L284.87,414.1L285.33,415.87L285.34,415.93L286.58,417.73L286.59,417.73L287.43,416.98L287.45,416.96L288.65,416.67L288.66,416.7L288.68,416.77L289.61,420.82L290.23,420.26L290.25,420.25L290.74,418.78L290.75,418.68L291.5,413.81L291.78,416.32L291.8,416.46L292.46,422.51L292.78,419.99L292.8,419.87L293.41,415.05L293.87,417.06L293.89,417.13L294.35,419.13L294.55,416.64L294.57,416.44L295.31,407.04L295.58,410.68L295.6,410.9L296.77,419.79L296.78,419.79L299.25,419.04L299.27,418.96L300.06,415.02L300.72,415.19L300.74,415.19L301.18,416.04L301.2,416.11L302.89,423.52L303,421.15L303.02,420.77L303.86,401.08L304.22,407.89L304.24,408.19L305.57,425.62L305.58,425.77L305.74,427.19L305.96,422.75L305.98,422.42L306.71,407.09L307.04,411.63L307.06,411.85L307.66,419.94L308.1,418.02L308.12,417.95L308.61,415.87L308.97,417.48L308.99,417.55L309.56,420L309.9,418.33L309.92,418.26L310.49,415.54L310.7,418.08L310.71,418.29L311.44,427.89L311.63,422.12L311.64,421.6L312.4,397.12L312.78,405.93L312.8,406.3L313.35,418.97L313.96,416.38L313.97,416.31L314.29,414.94L314.54,417.06L314.56,417.2L315.25,423.24L315.6,419.95L315.62,419.8L316.2,414.36L316.52,417.16L316.54,417.3L318.09,426.91L318.2,425.89L318.21,425.72L320,411.45L320.22,413.48L320.24,413.63L321.68,420.27L321.69,420.27L321.9,420.29L322.03,419.59L322.04,419.5L322.85,415.11L323.25,416.85L323.26,416.92L323.8,419.23L324.12,417.49L324.13,417.4L324.75,414.07L325.16,415.8L325.18,415.86L325.7,418L326.05,416.49L326.06,416.42L327.6,408.35L327.84,410.45L327.85,410.59L329.5,420.91L329.62,420.31L329.64,420.23L331.17,416.35L331.19,416.35L331.55,417.07L331.57,417.14L333.28,424.73L333.39,422.39L333.41,422.02L334.25,402.34L334.56,406.75L334.58,406.97L335.84,418.54L335.86,418.61L336.14,419.89L336.54,418.29L336.56,418.23L337.09,416.1L337.44,417.63L337.46,417.7L338.98,424.4L339.14,422.16L339.15,421.92L339.94,409.79L340.37,413.72L340.39,413.86L341.43,418.47L341.45,418.47L341.98,417.73L342,417.66L343.73,411.83L343.77,412.13L343.79,412.27L345.64,428.72L345.86,425.02L345.88,424.76L346.59,413.03L346.89,417.01L346.91,417.22L347.54,425.45L347.82,420.67L347.84,420.4L348.49,409.61L349.14,410.79L349.15,410.82L349.66,413.3L349.68,413.44L351.08,419.59L351.1,419.59L351.5,418.86L351.51,418.79L354.17,406.38L354.36,408.78L354.38,409L355.14,419.31L355.58,418.45L355.6,418.41L356.09,417.49L356.34,418.58L356.36,418.65L357.04,421.52L357.29,419.6L357.3,419.48L357.99,414.38L358.27,417.06L358.29,417.21L358.93,423.24L359.28,420.97L359.3,420.87L360.61,416.9L360.63,416.9L360.83,416.89L360.91,417.58L360.93,417.72L361.78,425.19L362.21,422.75L362.23,422.66L363.46,419.79L363.48,419.79L366.67,419.1L366.69,419.03L368.43,410.37L368.7,412.76L368.72,412.9L370.09,418.76L370.11,418.76L371.44,419.44L371.45,419.51L372.23,422.84L372.55,421.12L372.56,421.03L374.21,415.76L374.24,415.77L374.26,415.77L376.11,415.9L376.12,416.04L376.96,423.43L377.28,419.87L377.29,419.69L377.91,412.54L378.21,416.49L378.23,416.71L378.86,425.29L379.22,421.77L379.24,421.61L379.83,415.89L380.3,418.01L380.32,418.08L381.71,424.19L381.87,422.09L381.88,421.87L382.66,411.11L382.99,415.49L383.01,415.7L383.61,423.88L383.85,417.88L383.86,417.47L384.56,399.3L384.92,407.08L384.94,407.43L386.11,422.7L386.13,422.77L386.47,424.23L387.04,423.56L387.06,423.54L387.47,422.08L387.49,421.8L388.36,406.62L388.69,409.49L388.7,409.63L389.31,414.98L389.77,412.94L389.78,412.87L390.26,410.71L390.43,413.03L390.45,413.25L391.7,423.74L391.71,423.74L392.2,423.15L392.22,422.94L393.1,411.03L393.41,413.7L393.42,413.85L395,423.75L395.07,422.72L395.08,422.44L395.95,407.07L396.33,412.08L396.35,412.3L397.65,419.82L397.66,419.82L399.85,419.37L399.86,419.25L401.46,412.46L401.48,412.46L401.65,412.37L401.71,413.17L401.73,413.38L402.6,425.1L402.9,420.53L402.92,420.28L403.55,410.42L403.88,414.93L403.9,415.15L404.5,423.51L404.88,420.24L404.9,420.1L405.45,415.2L405.81,418.35L405.83,418.49L406.4,423.53L406.78,420.49L406.79,420.36L407.35,415.82L407.81,417.75L407.82,417.82L408.3,419.86L408.65,418.23L408.66,418.15L409.25,415.33L409.64,417.01L409.66,417.08L410.88,425.4L410.89,425.54L411.15,427.77L411.53,425.22L411.54,425.11L413.05,414.64L413.35,417.26L413.36,417.41L414,423.09L414.31,419.4L414.33,419.21L414.95,411.85L415.25,415.77L415.26,415.98L415.9,424.43L416.12,419.1L416.13,418.71L416.84,401.12L417.18,408.66L417.19,409.02L417.79,423.01L418.1,414.91L418.11,414.47L418.74,397.02L419.11,405.21L419.12,405.58L420.44,418.85L420.45,418.85L420.82,419.59L420.83,419.66L421.59,422.96L421.72,420.75L421.74,420.46L422.54,405.81L422.8,411.37L422.81,411.72L423.49,427.09L423.89,420.86L423.9,420.6L424.44,411.9L424.88,415.76L424.9,415.9L426.31,422.11L426.33,422.14L427.29,422.74L427.31,422.64L427.32,422.5L428.24,414.38L428.71,416.43L428.73,416.5L430.16,422.66L430.69,421.85L430.71,421.82L431.56,419.14L431.58,419.07L432.04,417.01L432.29,419.18L432.31,419.32L432.99,425.32L433.32,421.95L433.34,421.79L433.94,415.54L434.29,418.46L434.3,418.6L434.89,423.67L435.28,420.95L435.3,420.83L435.84,417.03L436.3,418.98L436.31,419.05L436.79,421.13L437.07,419.17L437.09,419.05L437.74,414.47L438.07,417.27L438.08,417.41L438.69,422.64L438.97,419.61L438.99,419.43L439.64,412.3L439.98,415.24L440,415.38L441.3,420.53L441.31,420.53L442.55,419.92L442.56,419.76L443.43,410.74L443.8,413.85L443.81,413.99L444.4,419L444.79,416.79L444.81,416.7L445.33,413.78L445.62,416.28L445.63,416.42L446.28,422.28L446.71,420.09L446.73,420L448.04,416.99L448.06,416.98L448.34,415.84L448.36,415.72L449.13,410.14L449.38,413.37L449.4,413.58L450.08,422.55L450.3,417.75L450.32,417.39L451.03,401.36L451.36,406.91L451.38,407.18L452.5,417.75L452.52,417.75L453.1,418.49L453.12,418.56L454.83,425.52L454.89,423.12L454.91,422.46L455.78,386.11L456.08,394.73L456.1,395.21L457.36,419.9L457.38,420.04L457.68,422.69L458.03,419.22L458.04,419.06L458.63,413.04L458.99,416.17L459.01,416.31L459.59,421.36L460.04,418.97L460.05,418.88L460.53,416.32L460.81,418.73L460.83,418.87L461.48,424.55L461.82,421.27L461.84,421.12L462.44,415.42L462.9,417.53L462.92,417.6L464.01,419.68L464.04,419.67L464.06,419.67L464.45,418.95L464.47,418.86L465.27,414.23L465.7,416.01L465.72,416.08L466.22,418.26L466.59,416.75L466.6,416.68L468,413.97L468.01,413.96L468.38,415L468.39,415.07L469.09,418.05L469.77,417.8L469.79,417.79L470.05,416.98L470.07,416.53L470.97,391.2L471.3,399.95L471.32,400.39L472.87,425.36L472.97,423.27L472.98,422.88L473.82,402.49L474.15,409.86L474.17,410.23L474.79,424.12L475.18,420.25L475.2,420.1L476.29,414.46L476.31,414.45L476.67,414.14L476.76,414.94L476.78,415.08L477.62,422.66L478,419.68L478.01,419.55L479.34,414.92L479.36,414.92L479.68,415.58L479.69,415.65L480.47,419.12L480.83,417.55L480.85,417.48L481.42,414.93L481.61,417.32L481.62,417.53L482.38,427.4L482.87,424.72L482.89,424.64L484.27,413.08L484.57,415.65L484.58,415.79L485.98,421.55L485.99,421.55L486.17,421.56L486.18,421.14L486.2,420.39L487.12,376.89L487.37,387.71L487.38,388.42L488.08,419.41L488.65,413.88L488.67,413.72L489.01,410.34L489.35,414.61L489.36,414.82L489.96,422.83L490.31,418.6L490.33,418.41L490.93,411L491.29,414.22L491.31,414.36L492.59,419.32L492.61,419.32L492.99,420.05L493,420.12L493.76,423.42L493.89,421.08L493.9,420.77L494.73,404.74L495.16,409.38L495.17,409.55L497.56,427.36L497.64,425.61L497.66,425.21L498.53,403.73L498.84,407.94L498.86,408.15L500.09,418.99L500.11,419.06L500.41,420.38L500.79,418.76L500.81,418.69L501.38,416.23L501.74,417.81L501.76,417.88L502.31,420.29L502.59,418.28L502.61,418.16L503.26,413.37L503.59,416.22L503.61,416.36L504.21,421.76L504.52,419.06L504.54,418.91L505.17,413.35L505.65,415.48L505.66,415.56L507.07,421.68L507.5,420.42L507.52,420.38L508.97,414.23L509.29,415.6L509.3,415.67L510.68,418.32L510.7,418.32L511.03,417.58L511.05,417.51L512.75,407L513.02,409.3L513.04,409.44L514.65,419.61L514.78,418.91L514.8,418.81L516.36,413.4L516.38,413.39L516.57,413.35L516.73,414.03L516.74,414.1L518.45,421.62L518.69,419.51L518.71,419.36L519.42,412.88L519.78,416.09L519.8,416.23L520.37,421.17L520.83,418.85L520.84,418.77L521.51,411.32L521.52,410.91L522.27,392.11L522.58,400.71L522.6,401.14L523.2,417.19L523.63,413.56L523.64,413.42L524.17,409.1L524.51,412.24L524.53,412.38L525.12,417.57L525.7,416.28L525.72,416.24L526.05,415.51L526.22,416.94L526.24,417.08L527,423.7L527.25,419.42L527.27,419.14L527.96,407.02L528.28,411.29L528.3,411.5L528.91,419.69L529.29,417.3L529.31,417.2L529.86,413.81L530.16,416.43L530.18,416.56L530.8,421.93L530.96,417.07L530.97,416.55L531.76,390.92L532.14,400.33L532.16,400.73L533.31,417.02L533.33,417.09L534.6,422.67L534.85,420.55L534.86,420.41L535.54,414.49L536,416.54L536.02,416.61L537.44,422.85L537.7,420.84L537.71,420.71L539.11,415.08L539.12,415.08L539.5,415.78L539.52,415.85L540.31,419.17L540.61,417.58L540.63,417.5L542.18,409.61L542.41,411.61L542.43,411.75L544.28,422.15L544.3,422.15L545.1,421.47L545.12,421.32L546.78,412.59L546.8,412.58L547.87,412.51L547.92,412.85L547.94,412.99L548.84,420.76L549.3,418.55L549.31,418.48L550.61,415.94L550.63,415.94L551.06,417.31L551.07,417.38L551.67,419.99L551.81,417.62L551.83,417.33L552.64,402.98L552.95,408.76L552.97,409.05L553.59,420.16L554.09,416.97L554.11,416.87L554.52,414.28L554.84,417.01L554.85,417.16L555.47,422.75L555.63,418.64L555.64,418.19L556.44,396.35L556.78,404.43L556.8,404.8L558.32,422.49L558.35,422.34L558.37,422.2L559.29,414.22L559.76,416.34L559.78,416.41L561.17,422.49L561.28,420.72L561.3,420.44L562.13,405.61L562.43,409.6L562.45,409.81L563.83,418.14L563.84,418.14L564.19,418.86L564.21,418.93L564.98,422.29L565.52,421.88L565.54,421.86L566.09,420.5L566.11,420.4L567.78,413.94L567.8,413.91L568.94,419L568.96,419.07L569.71,422.37L569.86,419.93L569.87,419.63L570.68,404.67L571.06,409.94L571.08,410.16L571.61,417.62L571.84,410.47L571.85,409.92L572.58,385.22L572.9,395.99L572.91,396.52L574.4,421.12L574.42,421.19L574.46,421.4L574.64,418.62L574.65,418.35L575.43,405.17L575.79,410.11L575.81,410.33L577.06,420.95L577.07,421.02L577.31,422.05L577.42,419.41L577.44,418.99L578.28,396.87L578.55,403.3L578.56,403.68L579.97,419.44L579.99,419.44L580.32,418.73L580.33,418.65L581.13,414.89L581.47,416.41L581.49,416.48L582.08,418.97L582.41,417.35L582.42,417.28L583.03,414.42L583.26,416.48L583.28,416.62L583.97,422.58L584.34,419.52L584.35,419.38L584.92,414.68L585.22,417.42L585.24,417.56L585.87,423.22L586.22,420.21L586.24,420.07L586.82,415.07L587.31,417.19L587.33,417.26L588.53,419.14L588.55,419.14L588.75,418.57L588.77,418.33L589.67,404.72L589.97,410.08L589.99,410.36L590.62,421.51L591,417.72L591.02,417.57L591.57,412.15L591.92,415.17L591.94,415.3L592.52,420.32L593.19,420.01L593.2,420L593.47,419.91L593.63,420.62L593.64,420.69L594.4,424.11L594.64,422.04L594.66,421.9L595.37,415.33L595.73,416.92L595.75,416.98L596.37,419.43L597.03,419.26L597.05,419.26L597.35,418.48L597.36,418.35L598.22,411.08L598.54,413.88L598.55,414.02L600.1,423.55L600.17,422.37L600.18,422L601.07,401.45L601.4,408.85L601.42,409.2L602.02,422.39L602.35,416.33L602.37,416.05L602.97,405.24L603.31,410.04L603.33,410.26L603.92,418.24L604.44,415.82L604.45,415.75L604.87,413.91L605.09,415.88L605.1,416.02L605.82,422.24L606.12,418.6L606.13,418.41L606.77,410.83L607.27,413.09L607.29,413.16L607.71,415.04L608.27,414.3L608.28,414.28L609.63,413.78L609.65,413.78L610.61,413.15L610.63,412.96L611.51,402.38L611.72,406.1L611.73,406.39L612.46,419.41L612.86,414.51L612.87,414.31L613.41,407.78L613.71,411.8L613.73,412.01L614.36,420.37L614.71,416.88L614.73,416.72L615.31,410.93L615.64,413.94L615.66,414.09L616.26,419.4L616.45,414.92L616.47,414.55L617.21,397.17L617.53,402.83L617.54,403.12L619.09,418.15L619.14,417.74L619.16,417.54L620.06,406.13L620.34,408.77L620.36,408.92L621.01,414.9L621.64,414.05L621.66,414.03L622.84,413.63L622.86,413.63L623.65,417.04L623.67,417.12L623.84,417.91L623.98,415.31L624,414.99L624.81,398.58L625.49,399.64L625.5,399.66L625.93,401.69L625.95,401.84L627.66,417.24L627.69,416.74L627.7,416.49L628.61,402.41L629.03,406.25L629.05,406.39L630.28,410.92L630.3,410.92L630.57,410.29L630.58,410.14L632.21,401.84L632.23,401.83L632.47,401.18L632.48,401.03L633.35,392.79L633.81,394.87L633.83,394.94L634.3,397.04L634.53,394.85L634.54,394.7L635.4,381.86L635.41,381.23L636.2,349.76L636.66,358.36L636.68,358.66L637.83,370.74L637.85,370.81L639.05,380.16L639.16,377.3L639.18,376.89L640.68,345.71L640.7,345.47L640.95,341.84L641.5,344.27L641.52,344.34L642.85,350.06L643.01,347.7L643.02,347.47L644.75,323.04L645.29,325.41L645.3,325.48L646.05,331.85L646.06,332.06L647.58,342.99L647.61,342.22L647.63,341.54L649.54,293.62L649.56,293.62L650.6,294.35L650.62,294.42L652.08,297.77L652.12,297.76L652.14,297.76L652.39,297.05L652.41,296.84L655.19,267.65L655.32,268.2L655.34,268.27L656.76,271.82L656.78,271.82L657.25,271.11L657.27,271.05L658.8,267.66L658.82,267.66L659.07,268.39L659.09,268.53L659.94,276.08L660.23,272.18L660.24,271.96L662.03,258.79L662.05,258.79L662.95,259.5L662.97,259.57L663.74,262.91L663.9,260.47L663.92,260.22L665.26,245.72L665.28,245.65L666.35,244.03L666.37,244.03L667.7,244.73L667.71,244.8L668.49,248.18L668.85,246.61L668.87,246.54L671.04,234.26L671.05,234.12L672.95,223.32L672.97,223.32L674.35,224.01L674.36,224.08L676.09,232.04L676.24,229.8L676.26,229.57L678.18,214.24L678.19,214.24L679.96,213.51L679.98,213.37L681.53,205.67L681.55,205.67L682.89,206.36L682.91,206.43L684.3,209.79L684.32,209.79L684.79,209.08L684.81,209.01L686.22,205.58L686.23,205.58L687.56,206.31L687.58,206.46L689.14,214.18L689.16,214.18L689.54,214.87L689.55,214.94L690.96,224.05L690.98,224.19L691.28,226.91L691.77,224.76L691.79,224.69L692.23,222.76L692.59,224.38L692.61,224.45L693.94,226.97L693.95,226.97L697.14,227.66L697.15,227.73L698.69,231.1L698.7,231.1L699.03,230.41L699.05,230.34L701.28,218.36L701.3,218.22L702.45,214.45L702.47,214.45L702.83,215.15L702.85,215.21L704.38,218.6L704.4,218.6L704.73,217.91L704.75,217.84L706.28,214.45L706.3,214.45L706.63,213.76L706.65,213.69L708.07,210.35L708.09,210.35L709.5,209.6L709.51,209.53L711.98,201.96L712,201.96L716.13,201.27L716.14,201.2L717.68,197.83L717.69,197.83L718.04,197.08L718.06,197.01L719.58,193.73L719.59,193.73L723.72,193.04L723.74,192.97L725.28,189.55L725.29,189.55L727.54,188.8L727.55,188.73L729.07,185.45L729.09,185.45L730.29,184.76L730.31,184.62L731.73,174.55L731.75,174.48L733.82,168.78L733.84,168.78L734.09,169.5L734.11,169.64L734.96,177.41L735.31,174.22L735.33,174.08L736.43,168.72L736.45,168.72L736.94,167.99L736.96,167.85L738.41,157.35L738.43,157.28L741.83,143.35L741.85,143.35L742.72,142.65L742.73,142.58L745.22,134.98L745.23,134.98L745.57,134.29L745.58,134.22L748.07,126.73L748.08,126.73L748.43,125.98L748.45,125.91L749.84,122.61L749.85,122.61L750.31,121.92L750.33,121.85L752.81,114.36L752.83,114.36L753.15,113.67L753.16,113.6L754.68,109.79L754.7,109.79L756.96,109.09L756.98,109.02L758.4,105.57L758.42,105.57L761.72,104.83L761.74,104.76L763.26,101.48L763.28,101.48L769.32,100.73L769.34,100.67L770.73,97.38L770.75,97.38L778.8,96.68L778.82,96.61L780.21,93.11L780.23,93.11L780.72,92.37L780.73,92.3L782.25,89.01L782.27,89.01L783.56,88.27L783.58,88.2L785.1,84.92L785.12,84.92L785.46,84.18L785.48,84.11L787,80.82L787.02,80.82L788.28,80.14L788.3,80.06L789.83,76.2L789.85,76.2L790.21,75.45L790.23,75.38L791.76,72.07L791.78,72.07L793.06,71.32L793.08,71.25L794.47,67.92L794.49,67.92L795.89,67.23L795.91,67.16L797.46,63.73L797.48,63.73L798.76,62.99L798.77,62.93L800.29,59.64L800.31,59.64L802.56,58.9L802.57,58.83L804.09,55.54L804.11,55.54L807.31,54.8L807.32,54.73L808.84,51.42L808.86,51.42L813,50.68L813.02,50.61L814.55,47.32L814.57,47.32L821.55,46.57L821.56,46.5L823.08,43.14L823.1,43.14L828.2,42.4L828.21,42.33L829.73,39.01L829.75,39.01L833.89,38.27L833.91,38.2L835.44,34.89L835.46,34.89L841.49,34.16L841.51,34.09L842.9,30.79L842.92,30.79L849.09,30.06L849.1,29.99L850.62,26.7L850.64,26.7L859.53,25.97L859.55,25.9L861.08,22.6L861.1,22.6L870.83,22.6" style="vector-effect: none; fill: none; stroke: rgb(255, 127, 14); stroke-opacity: 1; stroke-width: 2px; opacity: 1;"/></g><g class="points"/><g class="text"/></g></g></g><g class="xy3" transform="translate(100,80)" clip-path="url(#clip7fe2a8xy3plot)"><g class="scatterlayer mlayer"><g class="trace scatter traced7b6b6" style="stroke-miterlimit: 2; opacity: 1;"><g class="fills"/><g class="errorbars"/><g class="lines"><path class="js-line" d="M79.17,422.03L83.91,421.04L83.93,421.03L85.31,421.23L85.32,421.24L89.2,422.46L89.22,422.46L101.53,426.92L101.55,426.92L110.6,426.66L110.61,426.66L114.67,426.79L114.68,426.8L116.39,426.82L116.41,426.81L119.05,427.21L119.07,427.22L120.7,427.61L120.71,427.61L122.5,427.37L122.52,427.38L124.56,427.46L124.57,427.45L127.53,425.91L127.55,425.91L131,425.65L131.01,425.64L135.56,425.47L135.57,425.48L137.61,425.61L137.63,425.6L143.8,425.23L143.82,425.21L145.99,424.33L146,424.33L148.52,424.27L148.54,424.28L150.32,425.26L150.34,425.28L152.14,426.02L152.16,426.01L154.09,426.08L154.11,426.08L160.39,427.79L160.41,427.79L164.99,427.52L165.01,427.53L167.27,427.33L167.29,427.32L170.74,427.83L170.76,427.84L172.13,427.52L172.15,427.51L175.03,426.41L175.04,426.4L178.16,424.93L178.18,424.93L180.76,424.18L180.77,424.16L182.85,423.47L182.86,423.47L189.15,423.79L189.16,423.8L191.68,424.38L191.69,424.38L198.77,424.73L198.78,424.72L201.82,423.69L201.84,423.69L206.1,422.68L206.11,422.69L211.22,423.52L211.24,423.52L220.55,424.3L220.56,424.29L221.89,424.52L221.91,424.53L224.01,425.33L224.03,425.32L228.16,426.07L228.17,426.09L234.19,428.96L234.2,428.96L237.81,429.17L237.83,429.16L245.77,425.3L245.79,425.3L249.19,424.84L249.21,424.85L251.68,425.97L251.69,425.97L254.19,425.91L254.21,425.92L255.92,426.32L255.93,426.3L259.32,424.52L259.34,424.52L261.74,424.07L261.76,424.06L263.75,423.64L263.77,423.65L267.05,424.8L267.06,424.8L269.1,425.17L269.12,425.18L276.34,428.61L276.35,428.6L278.38,427.83L278.39,427.85L278.41,427.86L280.51,428.44L280.53,428.43L283.57,427.55L283.58,427.55L285.4,427.62L285.42,427.63L288.3,427.75L288.32,427.75L295.12,425.84L295.14,425.85L296.75,425.4L296.77,425.39L302.13,423.28L302.15,423.27L305.99,422.79L306.01,422.8L312.77,424.35L312.78,424.34L314.32,424.5L314.34,424.51L318.4,425.71L318.42,425.71L321.57,426.05L321.58,426.06L326.09,426.41L326.11,426.4L329.05,425.75L329.07,425.76L333,425.9L333.01,425.89L338.95,424.79L338.96,424.79L344.61,424.04L344.63,424.03L348.38,425.01L348.39,425.02L352.53,425.87L352.54,425.87L356.12,426.16L356.13,426.17L359.22,427L359.24,427L362.16,427.44L362.18,427.44L364.4,426.69L364.41,426.68L368.02,424.91L368.04,424.89L370.5,423.9L370.52,423.9L373.69,423.7L373.7,423.69L375.68,423.34L375.7,423.34L379.19,423.85L379.21,423.86L381.2,423.73L381.22,423.72L384.12,423.28L384.13,423.29L386.2,423.61L386.22,423.61L388.86,423.04L388.88,423.03L390.08,423.25L390.1,423.26L394.4,424.91L394.42,424.91L400.37,424.9L400.39,424.9L405.64,425.14L405.66,425.15L408.11,425.42L408.12,425.41L410.51,425.54L410.53,425.55L412.19,425.11L412.21,425.1L414.46,424.54L414.47,424.55L417.43,424.72L417.45,424.71L418.55,425.17L418.57,425.18L420.96,426.08L420.98,426.08L423.32,425.93L423.33,425.93L424.87,426.12L424.88,426.13L429.73,426.98L429.74,426.98L431.42,426.57L431.44,426.56L433.59,425.74L433.61,425.74L435.08,425.28L435.09,425.26L438.08,424.26L438.1,424.27L442.58,424.96L442.59,424.95L444.97,424.05L444.98,424.06L446.87,423.56L446.88,423.56L450.48,422.92L450.49,422.92L453.37,423.49L453.39,423.5L455.27,423.93L455.29,423.92L457.41,423.54L457.42,423.56L459.7,424.46L459.72,424.45L462.28,423.97L462.3,423.97L467.57,423.36L467.59,423.37L469.9,423.83L469.91,423.83L477.33,423.57L477.35,423.57L478.89,423.65L478.9,423.64L480.78,423.51L480.8,423.52L482.43,423.41L482.45,423.4L485.49,422.52L485.5,422.53L487.92,422.91L487.94,422.91L489.2,423.36L489.22,423.37L492.83,425.01L492.84,425.01L495.42,424.61L495.44,424.6L496.75,424.96L496.77,424.97L498.32,425.47L498.34,425.47L500.01,425.56L500.03,425.58L502.04,426.68L502.06,426.68L508.21,424.95L508.23,424.94L510.55,424.59L510.57,424.6L512.68,424L512.69,423.99L515.24,423.55L515.26,423.55L519.31,423.07L519.32,423.07L524.59,422.74L524.61,422.75L527.01,423.14L527.03,423.14L529.53,423.71L529.55,423.73L531.97,424.94L531.98,424.94L534.09,425.4L534.1,425.42L536.43,426.16L536.45,426.16L538.88,426.66L538.9,426.65L544.8,424.59L544.82,424.59L546.23,424.17L546.24,424.16L548.84,424.08L548.86,424.08L551.37,423.54L551.39,423.53L555.03,422.54L555.04,422.54L557.04,421.94L557.05,421.92L558.13,422.01L558.15,422.02L562.69,423.44L562.7,423.43L564.22,423.69L564.24,423.7L565.95,423.85L565.96,423.83L565.98,423.82L568.59,423.01L568.61,423.02L570.89,423.43L570.9,423.42L572.23,423.7L572.25,423.71L573.75,424.08L573.77,424.08L577.63,425.87L577.64,425.88L578.99,425.74L579.01,425.73L580.54,425.5L580.56,425.51L587.55,425.81L587.57,425.81L590.4,425.7L590.42,425.68L592.01,425.22L592.03,425.22L595.34,424.43L595.35,424.42L596.98,424.18L597,424.19L598.44,424.21L598.46,424.2L602.82,423.09L602.84,423.1L605.66,423.68L605.67,423.68L606.64,423.06L606.65,423.04L608.05,423.05L608.06,423.06L609.66,423.09L609.68,423.08L611.59,422.74L611.61,422.74L614.47,422.53L614.49,422.52L622.4,421.75L622.42,421.76L623.86,421.57L623.87,421.56L627.07,420.18L627.09,420.19L629.22,420.11L629.24,420.1L633.92,416.38L633.94,416.36L636.68,410.78L636.69,410.73L642.3,392.32L642.31,392.26L652.95,351.07L652.96,351L668.44,287.42L668.46,287.37L675.29,269.25L675.31,269.23L682.45,256.34L682.46,256.31L688.65,246.29L688.67,246.28L694.29,237.63L694.3,237.6L698.04,230.1L698.05,230.07L702.52,220.13L702.53,220.09L708.56,207.37L708.58,207.34L723.93,179.29L723.95,179.27L729.07,172.69L729.09,172.67L734.38,165.39L734.39,165.35L738.78,154.61L738.79,154.55L743,143.34L743.02,143.31L759.92,105.77L759.94,105.74L764.6,96.38L764.62,96.35L775,80.84L775.02,80.82L789.09,61.81L789.1,61.8L795.67,54.47L795.69,54.46L804.71,46.5L804.73,46.49L815.01,39.62L815.03,39.61L820.63,37.03L820.65,37.03L831.74,32.31L831.76,32.31L836.95,30.55L836.96,30.55L865.42,23.21L865.44,23.21L870.83,22.6" style="vector-effect: none; fill: none; stroke: rgb(44, 160, 44); stroke-opacity: 1; stroke-width: 2px; opacity: 1;"/></g><g class="points"/><g class="text"/></g></g></g><g class="xy4" transform="translate(100,80)" clip-path="url(#clip7fe2a8xy4plot)"><g class="scatterlayer mlayer"><g class="trace scatter tracea75d3a" style="stroke-miterlimit: 2; opacity: 1;"><g class="fills"/><g class="errorbars"/><g class="lines"><path class="js-line" d="M79.17,421.54L80.48,422.11L80.5,422.12L81.48,422.01L81.49,422.01L84.47,420.23L84.48,420.22L87.49,422.78L87.51,422.78L89.77,423.53L89.79,423.55L91.95,425.36L91.97,425.37L93.76,426.42L93.77,426.44L94,426.72L94.49,426.2L94.5,426.18L94.93,425.72L95.44,426.26L95.45,426.28L96.88,426.74L96.89,426.74L99.23,427.48L99.25,427.5L100.61,428.06L100.63,428.06L102.12,427.31L102.13,427.29L103.46,426.74L103.48,426.74L104.43,425.46L104.89,426.01L104.9,426.02L106.33,426.74L106.39,426.66L106.4,426.65L108.51,425.25L108.53,425.26L111.63,425.15L111.64,425.14L113.45,424.75L113.46,424.77L114.97,425.44L114.98,425.44L119.19,426.17L119.21,426.19L120.27,426.45L120.28,426.44L120.3,426.43L122.64,425.7L122.66,425.72L123.42,426.75L123.86,426.15L123.88,426.13L125.33,425.34L125.35,425.32L127.22,422.87L127.66,423.46L127.68,423.48L129.05,424.15L129.07,424.15L130.6,423.41L130.62,423.39L131.87,422.83L131.89,422.83L135.35,423.58L135.37,423.6L136.65,424.15L136.67,424.15L140.8,424.9L140.81,424.91L142.43,425.48L142.49,425.39L142.51,425.37L144.91,423.02L144.93,423.02L146.9,422.86L146.92,422.86L148.93,423.6L148.95,423.62L152.06,425.49L152.08,425.49L155.28,426.23L155.29,426.25L156.64,426.81L156.65,426.81L160.55,428.01L160.56,427.99L162.35,426.82L162.37,426.82L166.69,426.1L166.7,426.08L168,425.53L168.02,425.53L169.82,426.27L169.84,426.29L170.9,426.84L171.15,426.5L171.17,426.48L172.73,425.52L172.75,425.52L174.3,424.78L174.32,424.76L176.31,423.19L176.33,423.18L177.61,422.88L177.62,422.88L180.62,422.13L180.63,422.12L182.59,421.54L182.61,421.54L185.55,422.39L185.57,422.4L189.48,423.63L189.49,423.65L190.82,424.2L190.84,424.2L193.48,425.52L193.5,425.52L198.97,424.78L198.99,424.76L200.32,424.2L200.34,424.2L202.25,422.88L202.27,422.88L205.65,422.14L205.67,422.12L206.89,422.1L206.9,422.1L209.52,422.88L209.53,422.88L211.1,423.63L211.11,423.64L212.9,424.2L212.92,424.2L214.22,424.99L214.23,425.01L215.53,425.5L215.55,425.5L220.77,424.66L220.78,424.64L221.24,424.19L221.67,424.78L221.69,424.81L223.38,425.96L223.4,425.95L224.9,425.87L224.91,425.88L227.86,426.76L227.87,426.78L230.41,427.81L230.42,427.83L233.4,429.39L233.41,429.39L237.69,428.95L237.7,428.92L240.2,426.74L240.22,426.74L242.01,425.53L242.02,425.51L244.79,422.76L244.81,422.76L246.53,422.01L246.55,421.99L248.05,421.45L248.07,421.45L249.29,422.2L249.3,422.22L251.74,424.27L251.76,424.26L253.83,424.48L253.85,424.51L255.43,426.45L255.79,426.03L255.81,426.02L258.28,422.98L258.74,423.5L258.75,423.52L260.24,424.05L260.26,424.05L261.7,423.24L261.71,423.21L263.03,421.47L263.47,422.07L263.48,422.09L265.89,424.05L265.91,424.05L268.31,424.78L268.33,424.8L269.61,425.35L269.63,425.35L274.31,429.3L274.33,429.3L276.84,428.56L276.86,428.54L278.14,427.98L278.16,427.98L280.51,428.29L280.53,428.28L283.84,425.53L283.85,425.51L285.21,426.08L285.23,426.09L287.94,426.32L287.95,426.3L289.58,425.32L289.6,425.32L291.2,424.4L291.21,424.38L292.48,424L292.49,424L297.59,423.25L297.61,423.23L300.47,421.42L300.49,421.42L305.25,421.58L305.27,421.59L308.59,423.99L308.61,424.01L310.98,425.33L311,425.33L314.7,425.85L314.72,425.87L316.27,426.66L316.28,426.66L324.26,427.4L324.27,427.42L324.75,427.96L325.19,427.35L325.21,427.33L327.31,425.6L327.33,425.59L328.64,425.34L328.66,425.34L333.39,425.2L333.41,425.18L335.64,423.27L335.65,423.27L337.98,424.01L338,424.02L340.37,423.43L340.39,423.41L340.89,422.72L341.35,423.33L341.37,423.36L342.62,423.78L342.63,423.77L345.55,423.95L345.56,423.97L352.08,426.54L352.1,426.56L353.4,426.58L353.41,426.57L355.04,426.43L355.06,426.44L360.99,428L361.01,428L362.37,427.19L362.39,427.16L363.68,426.68L363.7,426.66L365.49,425.38L365.5,425.38L367.07,424.63L367.09,424.61L369.97,421.73L369.98,421.74L370,421.74L372.94,422.76L372.96,422.76L373.78,422.01L373.8,421.99L375.08,421.44L375.14,421.53L375.16,421.55L376.9,422.76L376.91,422.76L378.45,423.5L378.47,423.52L379.76,424.08L379.78,424.08L382.22,423.33L382.23,423.31L383.53,422.86L383.55,422.86L385.78,424.08L385.79,424.08L388.88,423.54L388.89,423.52L389.84,423.68L389.86,423.7L393.61,426.39L393.63,426.39L395.45,425.99L395.46,425.97L396.92,425.43L396.93,425.44L396.95,425.45L399.04,426.13L399.06,426.11L400.81,425.42L400.83,425.42L403.22,424.67L403.23,424.65L404.52,424.19L404.53,424.21L404.55,424.23L406.3,425.45L406.32,425.45L408.44,425.44L408.46,425.44L412.02,424.7L412.03,424.69L414.12,424.15L414.14,424.15L418.35,424.93L418.36,424.95L420.66,426.75L420.67,426.75L423.03,426.18L423.05,426.15L424.2,425.79L424.22,425.8L427.45,426.9L427.46,426.9L431.55,426.03L431.56,426.01L433.53,424.78L433.57,424.82L433.59,424.84L434.49,424.62L434.51,424.6L436.94,422.93L436.96,422.93L439.03,423.68L439.05,423.69L440.66,424.25L440.68,424.25L443.02,423.51L443.04,423.49L444.32,422.94L444.34,422.95L448.02,423.69L448.04,423.71L448.55,423.47L448.7,423.3L448.72,423.28L450.03,422.95L450.05,422.95L453.39,423.77L453.4,423.79L455,424.29L455.02,424.29L456.32,423.54L456.33,423.52L456.73,422.97L457.17,423.58L457.19,423.6L459.48,425.62L459.5,425.62L461.18,424.87L461.19,424.86L462.63,424.3L462.65,424.3L464.74,423.55L464.75,423.53L466.32,423.06L466.33,423.08L469.09,424.32L469.1,424.32L471.65,423.58L471.67,423.56L471.94,423.32L472.44,423.85L472.46,423.87L473.84,424.29L473.87,424.26L473.88,424.24L475.74,423.01L475.83,423.14L475.85,423.16L477.54,424.31L477.56,424.31L483.32,423.57L483.33,423.56L484.92,422.83L484.93,422.84L487.59,423.72L487.61,423.7L488.08,423.12L488.54,423.71L488.56,423.73L491.01,425.65L491.02,425.65L497.1,426.48L497.12,426.49L498.21,426.59L498.23,426.58L499.89,426.23L499.9,426.25L499.92,426.27L501.38,428.16L501.77,427.66L501.79,427.64L504.29,425.66L504.3,425.66L507.23,425.3L507.25,425.28L510,423.06L510.02,423.07L511.55,423.17L511.57,423.16L514.83,421.86L514.84,421.87L516.22,422.2L516.24,422.19L517.71,421.96L517.74,422.01L517.76,422.03L519.26,422.9L519.28,422.9L522.85,422.18L522.87,422.16L523.2,421.71L523.69,422.24L523.71,422.26L526.71,424.23L526.73,424.23L527.9,423.41L527.92,423.4L529.39,424.97L529.4,424.99L530.8,425.63L530.81,425.63L532.38,426.14L532.4,426.13L533.22,426.47L533.23,426.49L535.96,428.18L535.97,428.18L538.63,427.77L538.65,427.75L542.84,423.95L542.86,423.94L543.87,424.18L543.89,424.19L545.17,424.11L545.18,424.08L545.2,424.06L546.86,422.96L546.88,422.96L551.85,422.22L551.86,422.21L553.82,421.64L553.84,421.64L558.62,422.39L558.64,422.4L561.79,424.28L561.8,424.28L564.33,424.87L564.35,424.89L565,425.62L565.54,425.15L565.55,425.14L567.85,423.01L568.27,423.58L568.29,423.6L569.83,424.93L570.06,424.74L570.08,424.72L571.85,424.28L571.87,424.28L574.19,425.22L574.21,425.24L576.33,426.73L576.35,426.73L578.86,426.47L578.88,426.46L579.94,426.57L579.95,426.58L580.65,426.13L580.67,426.11L582.01,425.57L582.03,425.57L583.59,426.38L583.61,426.41L584.75,426.68L584.77,426.67L585.83,425.62L585.84,425.6L590.29,424.71L590.31,424.68L591.51,424.25L591.52,424.25L594.96,423.5L594.97,423.48L596.32,422.86L596.34,422.86L600.5,422.41L600.51,422.39L602,421.61L602.02,421.62L604.11,422.94L604.12,422.94L606.54,422.2L606.56,422.18L606.83,422.05L607.29,422.51L607.3,422.52L608.98,423.16L609,423.15L611.97,422.93L611.99,422.93L619.43,422.39L619.44,422.37L621.01,421.61L621.02,421.62L621.04,421.62L622.61,422.56L622.62,422.58L623.48,422.46L623.49,422.44L626.79,420.38L626.8,420.4L626.82,420.42L628.54,421.59L628.56,421.59L630.79,420.15L630.81,420.15L632.69,418.55L632.71,418.53L636.22,412.28L636.23,412.21L646.9,372.44L646.92,372.42L649.01,368.25L649.02,368.18L655.54,345.46L655.56,345.42L660.48,333.02L660.5,332.98L668.95,310.14L668.96,310.12L670.44,306.76L670.45,306.72L674.04,298.31L674.06,298.28L676.51,295.03L676.53,295.03L677.3,294.27L677.32,294.22L680.39,287.75L680.41,287.73L684.77,280.14L684.79,280.1L688.89,270.71L688.91,270.69L692.66,263.53L692.67,263.49L704.19,235.83L704.21,235.79L713.67,216.47L713.69,216.45L714.96,213.58L714.97,213.54L719.29,206.05L719.31,206.03L728.87,193.53L728.88,193.53L729.8,192.78L729.82,192.76L734.03,185.57L734.04,185.53L738.02,174.21L738.03,174.15L742.65,158.43L742.67,158.4L758.1,122.94L758.12,122.91L767.15,105.32L767.17,105.3L775.15,92.53L775.16,92.5L780.11,84.73L780.13,84.71L782.3,80.68L782.31,80.64L784.61,77.21L784.63,77.19L795.36,62.99L795.37,62.99L796.59,61.92L796.61,61.9L802.62,55.22L802.64,55.22L803.9,54.43L803.92,54.4L806.05,52.63L806.07,52.63L809.22,49.72L809.24,49.7L810.85,48.66L810.87,48.66L820.57,42.06L820.58,42.06L821.96,41.24L821.98,41.22L823.27,40.67L823.29,40.65L825.13,39.44L825.14,39.44L827.31,37.99L827.33,37.98L834.7,34.18L834.72,34.18L836.2,33.36L836.22,33.33L837.55,32.87L837.57,32.87L839.1,32.13L839.12,32.11L840.46,31.56L840.48,31.56L842.17,30.81L842.19,30.79L844.26,30.23L844.28,30.23L845.72,29.39L845.73,29.37L847.01,28.91L847.03,28.91L849.45,28.17L849.47,28.15L850.75,27.61L850.77,27.61L853.36,26.86L853.38,26.84L854.8,26.31L854.82,26.31L857.93,25.47L857.95,25.45L859.47,24.98L859.49,24.98L862.98,24.23L863,24.21L864.61,23.66L864.63,23.66L870.17,22.91L870.18,22.9L870.83,22.6" style="vector-effect: none; fill: none; stroke: rgb(214, 39, 40); stroke-opacity: 1; stroke-width: 2px; opacity: 1;"/></g><g class="points"/><g class="text"/></g></g></g></g><path class="xlines-above crisp" d="M0,0" style="fill: none;"/><path class="ylines-above crisp" d="M0,0" style="fill: none;"/><g class="overlines-above"><path class="xy2-x crisp" d="M0,0" style="fill: none;"/><path class="xy2-y crisp" d="M0,0" style="fill: none;"/><path class="xy3-x crisp" d="M0,0" style="fill: none;"/><path class="xy3-y crisp" d="M0,0" style="fill: none;"/><path class="xy4-x crisp" d="M0,0" style="fill: none;"/><path class="xy4-y crisp" d="M0,0" style="fill: none;"/></g><g class="xaxislayer-above"><g class="xtick"><text text-anchor="middle" x="0" y="545" transform="translate(154.6,0)" style="font-family: 'Open Sans', verdana, arial, sans-serif; font-size: 12px; fill: rgb(42, 63, 95); fill-opacity: 1; white-space: pre; opacity: 1;"><tspan class="line" dy="0em" x="0" y="545">02:00</tspan><tspan class="line" dy="1.3em" x="0" y="545">Jun 10, 2015</tspan></text></g><g class="xtick"><text text-anchor="middle" x="0" y="545" style="font-family: 'Open Sans', verdana, arial, sans-serif; font-size: 12px; fill: rgb(42, 63, 95); fill-opacity: 1; white-space: pre; opacity: 1;" transform="translate(268.56,0)">04:00</text></g><g class="xtick"><text text-anchor="middle" x="0" y="545" style="font-family: 'Open Sans', verdana, arial, sans-serif; font-size: 12px; fill: rgb(42, 63, 95); fill-opacity: 1; white-space: pre; opacity: 1;" transform="translate(382.51,0)">06:00</text></g><g class="xtick"><text text-anchor="middle" x="0" y="545" style="font-family: 'Open Sans', verdana, arial, sans-serif; font-size: 12px; fill: rgb(42, 63, 95); fill-opacity: 1; white-space: pre; opacity: 1;" transform="translate(496.46,0)">08:00</text></g><g class="xtick"><text text-anchor="middle" x="0" y="545" style="font-family: 'Open Sans', verdana, arial, sans-serif; font-size: 12px; fill: rgb(42, 63, 95); fill-opacity: 1; white-space: pre; opacity: 1;" transform="translate(610.4100000000001,0)">10:00</text></g><g class="xtick"><text text-anchor="middle" x="0" y="545" style="font-family: 'Open Sans', verdana, arial, sans-serif; font-size: 12px; fill: rgb(42, 63, 95); fill-opacity: 1; white-space: pre; opacity: 1;" transform="translate(724.36,0)">12:00</text></g><g class="xtick"><text text-anchor="middle" x="0" y="545" style="font-family: 'Open Sans', verdana, arial, sans-serif; font-size: 12px; fill: rgb(42, 63, 95); fill-opacity: 1; white-space: pre; opacity: 1;" transform="translate(838.32,0)">14:00</text></g><g class="xtick"><text text-anchor="middle" x="0" y="545" style="font-family: 'Open Sans', verdana, arial, sans-serif; font-size: 12px; fill: rgb(42, 63, 95); fill-opacity: 1; white-space: pre; opacity: 1;" transform="translate(952.27,0)">16:00</text></g></g><g class="yaxislayer-above"><g class="ytick"><text text-anchor="end" x="100" y="4.199999999999999" transform="translate(0,509.4)" style="font-family: 'Open Sans', verdana, arial, sans-serif; font-size: 12px; fill: rgb(31, 119, 180); fill-opacity: 1; white-space: pre; opacity: 1;">20</text></g><g class="ytick"><text text-anchor="end" x="100" y="4.199999999999999" style="font-family: 'Open Sans', verdana, arial, sans-serif; font-size: 12px; fill: rgb(31, 119, 180); fill-opacity: 1; white-space: pre; opacity: 1;" transform="translate(0,458.55)">30</text></g><g class="ytick"><text text-anchor="end" x="100" y="4.199999999999999" style="font-family: 'Open Sans', verdana, arial, sans-serif; font-size: 12px; fill: rgb(31, 119, 180); fill-opacity: 1; white-space: pre; opacity: 1;" transform="translate(0,407.7)">40</text></g><g class="ytick"><text text-anchor="end" x="100" y="4.199999999999999" style="font-family: 'Open Sans', verdana, arial, sans-serif; font-size: 12px; fill: rgb(31, 119, 180); fill-opacity: 1; white-space: pre; opacity: 1;" transform="translate(0,356.85)">50</text></g><g class="ytick"><text text-anchor="end" x="100" y="4.199999999999999" style="font-family: 'Open Sans', verdana, arial, sans-serif; font-size: 12px; fill: rgb(31, 119, 180); fill-opacity: 1; white-space: pre; opacity: 1;" transform="translate(0,306)">60</text></g><g class="ytick"><text text-anchor="end" x="100" y="4.199999999999999" style="font-family: 'Open Sans', verdana, arial, sans-serif; font-size: 12px; fill: rgb(31, 119, 180); fill-opacity: 1; white-space: pre; opacity: 1;" transform="translate(0,255.15)">70</text></g><g class="ytick"><text text-anchor="end" x="100" y="4.199999999999999" style="font-family: 'Open Sans', verdana, arial, sans-serif; font-size: 12px; fill: rgb(31, 119, 180); fill-opacity: 1; white-space: pre; opacity: 1;" transform="translate(0,204.3)">80</text></g><g class="ytick"><text text-anchor="end" x="100" y="4.199999999999999" style="font-family: 'Open Sans', verdana, arial, sans-serif; font-size: 12px; fill: rgb(31, 119, 180); fill-opacity: 1; white-space: pre; opacity: 1;" transform="translate(0,153.45)">90</text></g><g class="ytick"><text text-anchor="end" x="100" y="4.199999999999999" style="font-family: 'Open Sans', verdana, arial, sans-serif; font-size: 12px; fill: rgb(31, 119, 180); fill-opacity: 1; white-space: pre; opacity: 1;" transform="translate(0,102.6)">100</text></g></g><g class="overaxes-above"><g class="xy2-x"/><g class="xy2-y"><g class="y2tick"><text text-anchor="end" x="176" y="4.199999999999999" transform="translate(0,492.08)" style="font-family: 'Open Sans', verdana, arial, sans-serif; font-size: 12px; fill: rgb(255, 127, 14); fill-opacity: 1; white-space: pre; opacity: 1;">1M</text></g><g class="y2tick"><text text-anchor="end" x="176" y="4.199999999999999" style="font-family: 'Open Sans', verdana, arial, sans-serif; font-size: 12px; fill: rgb(255, 127, 14); fill-opacity: 1; white-space: pre; opacity: 1;" transform="translate(0,410.61)">2M</text></g><g class="y2tick"><text text-anchor="end" x="176" y="4.199999999999999" style="font-family: 'Open Sans', verdana, arial, sans-serif; font-size: 12px; fill: rgb(255, 127, 14); fill-opacity: 1; white-space: pre; opacity: 1;" transform="translate(0,329.14)">3M</text></g><g class="y2tick"><text text-anchor="end" x="176" y="4.199999999999999" style="font-family: 'Open Sans', verdana, arial, sans-serif; font-size: 12px; fill: rgb(255, 127, 14); fill-opacity: 1; white-space: pre; opacity: 1;" transform="translate(0,247.67)">4M</text></g><g class="y2tick"><text text-anchor="end" x="176" y="4.199999999999999" style="font-family: 'Open Sans', verdana, arial, sans-serif; font-size: 12px; fill: rgb(255, 127, 14); fill-opacity: 1; white-space: pre; opacity: 1;" transform="translate(0,166.2)">5M</text></g><g class="y2tick"><text text-anchor="end" x="176" y="4.199999999999999" style="font-family: 'Open Sans', verdana, arial, sans-serif; font-size: 12px; fill: rgb(255, 127, 14); fill-opacity: 1; white-space: pre; opacity: 1;" transform="translate(0,84.74)">6M</text></g></g><g class="xy3-x"/><g class="xy3-y"><g class="y3tick"><text text-anchor="start" x="975" y="4.199999999999999" transform="translate(0,487.61)" style="font-family: 'Open Sans', verdana, arial, sans-serif; font-size: 12px; fill: rgb(44, 160, 44); fill-opacity: 1; white-space: pre; opacity: 1;">9M</text></g><g class="y3tick"><text text-anchor="start" x="975" y="4.199999999999999" style="font-family: 'Open Sans', verdana, arial, sans-serif; font-size: 12px; fill: rgb(44, 160, 44); fill-opacity: 1; white-space: pre; opacity: 1;" transform="translate(0,434.54)">10M</text></g><g class="y3tick"><text text-anchor="start" x="975" y="4.199999999999999" style="font-family: 'Open Sans', verdana, arial, sans-serif; font-size: 12px; fill: rgb(44, 160, 44); fill-opacity: 1; white-space: pre; opacity: 1;" transform="translate(0,381.48)">11M</text></g><g class="y3tick"><text text-anchor="start" x="975" y="4.199999999999999" style="font-family: 'Open Sans', verdana, arial, sans-serif; font-size: 12px; fill: rgb(44, 160, 44); fill-opacity: 1; white-space: pre; opacity: 1;" transform="translate(0,328.40999999999997)">12M</text></g><g class="y3tick"><text text-anchor="start" x="975" y="4.199999999999999" style="font-family: 'Open Sans', verdana, arial, sans-serif; font-size: 12px; fill: rgb(44, 160, 44); fill-opacity: 1; white-space: pre; opacity: 1;" transform="translate(0,275.35)">13M</text></g><g class="y3tick"><text text-anchor="start" x="975" y="4.199999999999999" style="font-family: 'Open Sans', verdana, arial, sans-serif; font-size: 12px; fill: rgb(44, 160, 44); fill-opacity: 1; white-space: pre; opacity: 1;" transform="translate(0,222.28)">14M</text></g><g class="y3tick"><text text-anchor="start" x="975" y="4.199999999999999" style="font-family: 'Open Sans', verdana, arial, sans-serif; font-size: 12px; fill: rgb(44, 160, 44); fill-opacity: 1; white-space: pre; opacity: 1;" transform="translate(0,169.22)">15M</text></g><g class="y3tick"><text text-anchor="start" x="975" y="4.199999999999999" style="font-family: 'Open Sans', verdana, arial, sans-serif; font-size: 12px; fill: rgb(44, 160, 44); fill-opacity: 1; white-space: pre; opacity: 1;" transform="translate(0,116.15)">16M</text></g></g><g class="xy4-x"/><g class="xy4-y"><g class="y4tick"><text text-anchor="start" x="1051" y="4.199999999999999" transform="translate(0,498.03)" style="font-family: 'Open Sans', verdana, arial, sans-serif; font-size: 12px; fill: rgb(214, 39, 40); fill-opacity: 1; white-space: pre; opacity: 1;">5M</text></g><g class="y4tick"><text text-anchor="start" x="1051" y="4.199999999999999" style="font-family: 'Open Sans', verdana, arial, sans-serif; font-size: 12px; fill: rgb(214, 39, 40); fill-opacity: 1; white-space: pre; opacity: 1;" transform="translate(0,431.33)">6M</text></g><g class="y4tick"><text text-anchor="start" x="1051" y="4.199999999999999" style="font-family: 'Open Sans', verdana, arial, sans-serif; font-size: 12px; fill: rgb(214, 39, 40); fill-opacity: 1; white-space: pre; opacity: 1;" transform="translate(0,364.62)">7M</text></g><g class="y4tick"><text text-anchor="start" x="1051" y="4.199999999999999" style="font-family: 'Open Sans', verdana, arial, sans-serif; font-size: 12px; fill: rgb(214, 39, 40); fill-opacity: 1; white-space: pre; opacity: 1;" transform="translate(0,297.90999999999997)">8M</text></g><g class="y4tick"><text text-anchor="start" x="1051" y="4.199999999999999" style="font-family: 'Open Sans', verdana, arial, sans-serif; font-size: 12px; fill: rgb(214, 39, 40); fill-opacity: 1; white-space: pre; opacity: 1;" transform="translate(0,231.21)">9M</text></g><g class="y4tick"><text text-anchor="start" x="1051" y="4.199999999999999" style="font-family: 'Open Sans', verdana, arial, sans-serif; font-size: 12px; fill: rgb(214, 39, 40); fill-opacity: 1; white-space: pre; opacity: 1;" transform="translate(0,164.5)">10M</text></g><g class="y4tick"><text text-anchor="start" x="1051" y="4.199999999999999" style="font-family: 'Open Sans', verdana, arial, sans-serif; font-size: 12px; fill: rgb(214, 39, 40); fill-opacity: 1; white-space: pre; opacity: 1;" transform="translate(0,97.8)">11M</text></g></g></g></g><g class="subplot xy2"/><g class="subplot xy3"/><g class="subplot xy4"/></g><g class="polarlayer"/><g class="smithlayer"/><g class="ternarylayer"/><g class="geolayer"/><g class="funnelarealayer"/><g class="pielayer"/><g class="iciclelayer"/><g class="treemaplayer"/><g class="sunburstlayer"/><g class="glimages"/><defs id="topdefs-7fe2a8"><g class="clips"/><clipPath id="legend7fe2a8"><rect width="469" height="29" x="0" y="0"/></clipPath></defs><g class="layer-above"><g class="imagelayer"/><g class="shapelayer"><g class="shape-group" data-index="0" clip-path="url(#clip7fe2a8x)"><path data-index="0" fill-rule="evenodd" d="M179.17000000000002,532H702.82V306H179.17000000000002Z" style="opacity: 0.2; stroke: rgb(0, 0, 0); stroke-opacity: 0; fill: rgb(144, 238, 144); fill-opacity: 1; stroke-width: 0px;"/></g><g class="shape-group" data-index="1" clip-path="url(#clip7fe2a8x)"><path data-index="1" fill-rule="evenodd" d="M702.82,532H950.88V306H702.82Z" style="opacity: 0.2; stroke: rgb(0, 0, 0); stroke-opacity: 0; fill: rgb(255, 255, 0); fill-opacity: 1; stroke-width: 0px;"/></g><g class="shape-group" data-index="2" clip-path="url(#clip7fe2a8x)"><path data-index="2" fill-rule="evenodd" d="M950.88,532H970.83V306H950.88Z" style="opacity: 0.2; stroke: rgb(0, 0, 0); stroke-opacity: 0; fill: rgb(255, 0, 0); fill-opacity: 1; stroke-width: 0px;"/></g><g class="shape-group" data-index="3" clip-path="url(#clip7fe2a8x)"><path data-index="3" fill-rule="evenodd" d="M179.17000000000002,306H970.83V80H179.17000000000002Z" style="opacity: 0.2; stroke: rgb(0, 0, 0); stroke-opacity: 0; fill: rgb(0, 100, 0); fill-opacity: 1; stroke-width: 0px;"/></g></g></g><g class="infolayer"><g class="legend" pointer-events="all" transform="translate(340.5,41.959999999999994)"><rect class="bg" shape-rendering="crispEdges" width="469" height="29" x="0" y="0" style="stroke: rgb(68, 68, 68); stroke-opacity: 1; fill: rgb(255, 255, 255); fill-opacity: 1; stroke-width: 0px;"/><g class="scrollbox" transform="" clip-path="url(#legend7fe2a8)"><text class="legendtitletext" text-anchor="start" x="2" y="18.2" style="font-family: 'Open Sans', verdana, arial, sans-serif; font-size: 14px; fill: rgb(42, 63, 95); fill-opacity: 1; white-space: pre;">Variables:</text><g class="groups"><g class="traces" transform="translate(81.078125,14.5)" style="opacity: 1;"><text class="legendtext" text-anchor="start" x="40" y="4.680000000000001" style="font-family: 'Open Sans', verdana, arial, sans-serif; font-size: 12px; fill: rgb(42, 63, 95); fill-opacity: 1; white-space: pre;">ABER-CKP</text><g class="layers" style="opacity: 1;"><g class="legendfill"/><g class="legendlines"><path class="js-line" d="M5,0h30" style="fill: none; stroke: rgb(31, 119, 180); stroke-opacity: 1; stroke-width: 2px;"/></g><g class="legendsymbols"><g class="legendpoints"/></g></g><rect class="legendtoggle" x="0" y="-9.5" width="105.41796875" height="19" style="fill: rgb(0, 0, 0); fill-opacity: 0;"/></g><g class="traces" transform="translate(188.99609375,14.5)" style="opacity: 1;"><text class="legendtext" text-anchor="start" x="40" y="4.680000000000001" style="font-family: 'Open Sans', verdana, arial, sans-serif; font-size: 12px; fill: rgb(42, 63, 95); fill-opacity: 1; white-space: pre;">P-MON-CKP</text><g class="layers" style="opacity: 1;"><g class="legendfill"/><g class="legendlines"><path class="js-line" d="M5,0h30" style="fill: none; stroke: rgb(255, 127, 14); stroke-opacity: 1; stroke-width: 2px;"/></g><g class="legendsymbols"><g class="legendpoints"/></g></g><rect class="legendtoggle" x="0" y="-9.5" width="113.86328125" height="19" style="fill: rgb(0, 0, 0); fill-opacity: 0;"/></g><g class="traces" transform="translate(305.359375,14.5)" style="opacity: 1;"><text class="legendtext" text-anchor="start" x="40" y="4.680000000000001" style="font-family: 'Open Sans', verdana, arial, sans-serif; font-size: 12px; fill: rgb(42, 63, 95); fill-opacity: 1; white-space: pre;">P-PDG</text><g class="layers" style="opacity: 1;"><g class="legendfill"/><g class="legendlines"><path class="js-line" d="M5,0h30" style="fill: none; stroke: rgb(44, 160, 44); stroke-opacity: 1; stroke-width: 2px;"/></g><g class="legendsymbols"><g class="legendpoints"/></g></g><rect class="legendtoggle" x="0" y="-9.5" width="80.984375" height="19" style="fill: rgb(0, 0, 0); fill-opacity: 0;"/></g><g class="traces" transform="translate(388.84375,14.5)" style="opacity: 1;"><text class="legendtext" text-anchor="start" x="40" y="4.680000000000001" style="font-family: 'Open Sans', verdana, arial, sans-serif; font-size: 12px; fill: rgb(42, 63, 95); fill-opacity: 1; white-space: pre;">P-TPT</text><g class="layers" style="opacity: 1;"><g class="legendfill"/><g class="legendlines"><path class="js-line" d="M5,0h30" style="fill: none; stroke: rgb(214, 39, 40); stroke-opacity: 1; stroke-width: 2px;"/></g><g class="legendsymbols"><g class="legendpoints"/></g></g><rect class="legendtoggle" x="0" y="-9.5" width="76.9375" height="19" style="fill: rgb(0, 0, 0); fill-opacity: 0;"/></g></g></g><rect class="scrollbar" rx="20" ry="3" width="0" height="0" x="0" y="0" style="fill: rgb(128, 139, 164); fill-opacity: 1;"/></g><g class="g-gtitle"/><g class="g-xtitle"/><g class="g-ytitle"><text class="ytitle" transform="rotate(-90,56.709375,306)" x="56.709375" y="306" text-anchor="middle" style="opacity: 1; font-family: 'Open Sans', verdana, arial, sans-serif; font-size: 14px; fill: rgb(31, 119, 180); fill-opacity: 1; white-space: pre;">ABER-CKP (%)</text></g><g class="g-y2title"><text class="y2title" transform="rotate(-90,137.85,306)" x="137.85" y="306" text-anchor="middle" style="opacity: 1; font-family: 'Open Sans', verdana, arial, sans-serif; font-size: 14px; fill: rgb(255, 127, 14); fill-opacity: 1; white-space: pre;">P-MON-CKP (Pa)</text></g><g class="g-y3title"><text class="y3title" transform="rotate(-90,1024.675,306)" x="1024.675" y="306" text-anchor="middle" style="opacity: 1; font-family: 'Open Sans', verdana, arial, sans-serif; font-size: 14px; fill: rgb(44, 160, 44); fill-opacity: 1; white-space: pre;">P-PDG (Pa)</text></g><g class="g-y4title"><text class="y4title" transform="rotate(-90,1100.675,306)" x="1100.675" y="306" text-anchor="middle" style="opacity: 1; font-family: 'Open Sans', verdana, arial, sans-serif; font-size: 14px; fill: rgb(214, 39, 40); fill-opacity: 1; white-space: pre;">P-TPT (Pa)</text></g></g></svg>