<svg class="main-svg" xmlns="http://www.w3.org/2000/svg" xmlns:xlink="http://www.w3.org/1999/xlink" width="1200" height="600" style="" viewBox="0 0 1200 600"><rect x="0" y="0" width="1200" height="600" style="fill: rgb(255, 255, 255); fill-opacity: 1;"/><defs id="defs-1a4b99"><g class="clips"><clipPath id="clip1a4b99xyplot" class="plotclip"><rect width="950" height="452"/></clipPath><clipPath id="clip1a4b99xy2plot" class="plotclip"><rect width="950" height="452"/></clipPath><clipPath id="clip1a4b99xy3plot" class="plotclip"><rect width="950" height="452"/></clipPath><clipPath id="clip1a4b99xy4plot" class="plotclip"><rect width="950" height="452"/></clipPath><clipPath class="axesclip" id="clip1a4b99x"><rect x="100" y="0" width="950" height="600"/></clipPath><clipPath class="axesclip" id="clip1a4b99y"><rect x="0" y="80" width="1200" height="452"/></clipPath><clipPath class="axesclip" id="clip1a4b99xy"><rect x="100" y="80" width="950" height="452"/></clipPath><clipPath class="axesclip" id="clip1a4b99y2"><rect x="0" y="80" width="1200" height="452"/></clipPath><clipPath class="axesclip" id="clip1a4b99xy2"><rect x="100" y="80" width="950" height="452"/></clipPath><clipPath class="axesclip" id="clip1a4b99y3"><rect x="0" y="80" width="1200" height="452"/></clipPath><clipPath class="axesclip" id="clip1a4b99xy3"><rect x="100" y="80" width="950" height="452"/></clipPath><clipPath class="axesclip" id="clip1a4b99y4"><rect x="0" y="80" width="1200" height="452"/></clipPath><clipPath class="axesclip" id="clip1a4b99xy4"><rect x="100" y="80" width="950" height="452"/></clipPath></g><g class="gradients"/><g class="patterns"/></defs><g class="bglayer"/><g class="layer-below"><g class="imagelayer"/><g class="shapelayer"/></g><g class="cartesianlayer"><g class="subplot xy"><g class="layer-subplot"><g class="shapelayer"/><g class="imagelayer"/></g><g class="minor-gridlayer"><g class="x"/><g class="y"/><g class="y2"/><g class="y3"/><g class="y4"/></g><g class="gridlayer"><g class="x"><path class="xgrid crisp" transform="translate(261.74,0)" d="M0,80v452" style="stroke: rgb(255, 255, 255); stroke-opacity: 1; stroke-width: 1px;"/><path class="xgrid crisp" transform="translate(447.7,0)" d="M0,80v452" style="stroke: rgb(255, 255, 255); stroke-opacity: 1; stroke-width: 1px;"/><path class="xgrid crisp" transform="translate(633.67,0)" d="M0,80v452" style="stroke: rgb(255, 255, 255); stroke-opacity: 1; stroke-width: 1px;"/><path class="xgrid crisp" transform="translate(819.63,0)" d="M0,80v452" style="stroke: rgb(255, 255, 255); stroke-opacity: 1; stroke-width: 1px;"/><path class="xgrid crisp" transform="translate(1005.6,0)" d="M0,80v452" style="stroke: rgb(255, 255, 255); stroke-opacity: 1; stroke-width: 1px;"/></g><g class="y"><path class="ygrid crisp" transform="translate(0,497.36)" d="M100,0h950" style="stroke: rgb(255, 255, 255); stroke-opacity: 1; stroke-width: 1px;"/><path class="ygrid crisp" transform="translate(0,424.34)" d="M100,0h950" style="stroke: rgb(255, 255, 255); stroke-opacity: 1; stroke-width: 1px;"/><path class="ygrid crisp" transform="translate(0,351.32)" d="M100,0h950" style="stroke: rgb(255, 255, 255); stroke-opacity: 1; stroke-width: 1px;"/><path class="ygrid crisp" transform="translate(0,278.28999999999996)" d="M100,0h950" style="stroke: rgb(255, 255, 255); stroke-opacity: 1; stroke-width: 1px;"/><path class="ygrid crisp" transform="translate(0,205.26999999999998)" d="M100,0h950" style="stroke: rgb(255, 255, 255); stroke-opacity: 1; stroke-width: 1px;"/><path class="ygrid crisp" transform="translate(0,132.24)" d="M100,0h950" style="stroke: rgb(255, 255, 255); stroke-opacity: 1; stroke-width: 1px;"/></g><g class="y2"><path class="y2grid crisp" transform="translate(0,528.12)" d="M100,0h950" style="stroke: rgb(255, 255, 255); stroke-opacity: 1; stroke-width: 1px;"/><path class="y2grid crisp" transform="translate(0,463.81)" d="M100,0h950" style="stroke: rgb(255, 255, 255); stroke-opacity: 1; stroke-width: 1px;"/><path class="y2grid crisp" transform="translate(0,399.5)" d="M100,0h950" style="stroke: rgb(255, 255, 255); stroke-opacity: 1; stroke-width: 1px;"/><path class="y2grid crisp" transform="translate(0,335.19)" d="M100,0h950" style="stroke: rgb(255, 255, 255); stroke-opacity: 1; stroke-width: 1px;"/><path class="y2grid crisp" transform="translate(0,270.88)" d="M100,0h950" style="stroke: rgb(255, 255, 255); stroke-opacity: 1; stroke-width: 1px;"/><path class="y2grid crisp" transform="translate(0,206.57)" d="M100,0h950" style="stroke: rgb(255, 255, 255); stroke-opacity: 1; stroke-width: 1px;"/><path class="y2grid crisp" transform="translate(0,142.26)" d="M100,0h950" style="stroke: rgb(255, 255, 255); stroke-opacity: 1; stroke-width: 1px;"/></g><g class="y3"><path class="y3grid crisp" transform="translate(0,475.53)" d="M100,0h950" style="stroke: rgb(255, 255, 255); stroke-opacity: 1; stroke-width: 1px;"/><path class="y3grid crisp" transform="translate(0,417.49)" d="M100,0h950" style="stroke: rgb(255, 255, 255); stroke-opacity: 1; stroke-width: 1px;"/><path class="y3grid crisp" transform="translate(0,359.44)" d="M100,0h950" style="stroke: rgb(255, 255, 255); stroke-opacity: 1; stroke-width: 1px;"/><path class="y3grid crisp" transform="translate(0,301.4)" d="M100,0h950" style="stroke: rgb(255, 255, 255); stroke-opacity: 1; stroke-width: 1px;"/><path class="y3grid crisp" transform="translate(0,243.36)" d="M100,0h950" style="stroke: rgb(255, 255, 255); stroke-opacity: 1; stroke-width: 1px;"/><path class="y3grid crisp" transform="translate(0,185.32)" d="M100,0h950" style="stroke: rgb(255, 255, 255); stroke-opacity: 1; stroke-width: 1px;"/><path class="y3grid crisp" transform="translate(0,127.27000000000001)" d="M100,0h950" style="stroke: rgb(255, 255, 255); stroke-opacity: 1; stroke-width: 1px;"/></g><g class="y4"><path class="y4grid crisp" transform="translate(0,523.9)" d="M100,0h950" style="stroke: rgb(255, 255, 255); stroke-opacity: 1; stroke-width: 1px;"/><path class="y4grid crisp" transform="translate(0,465.55)" d="M100,0h950" style="stroke: rgb(255, 255, 255); stroke-opacity: 1; stroke-width: 1px;"/><path class="y4grid crisp" transform="translate(0,407.2)" d="M100,0h950" style="stroke: rgb(255, 255, 255); stroke-opacity: 1; stroke-width: 1px;"/><path class="y4grid crisp" transform="translate(0,348.84)" d="M100,0h950" style="stroke: rgb(255, 255, 255); stroke-opacity: 1; stroke-width: 1px;"/><path class="y4grid crisp" transform="translate(0,290.49)" d="M100,0h950" style="stroke: rgb(255, 255, 255); stroke-opacity: 1; stroke-width: 1px;"/><path class="y4grid crisp" transform="translate(0,232.13)" d="M100,0h950" style="stroke: rgb(255, 255, 255); stroke-opacity: 1; stroke-width: 1px;"/><path class="y4grid crisp" transform="translate(0,173.78)" d="M100,0h950" style="stroke: rgb(255, 255, 255); stroke-opacity: 1; stroke-width: 1px;"/><path class="y4grid crisp" transform="translate(0,115.43)" d="M100,0h950" style="stroke: rgb(255, 255, 255); stroke-opacity: 1; stroke-width: 1px;"/></g></g><g class="zerolinelayer"/><g class="layer-between"><g class="shapelayer"/><g class="imagelayer"/></g><path class="xlines-below"/><path class="ylines-below"/><g class="overlines-below"><path class="xy2-x"/><path class="xy2-y"/><path class="xy3-x"/><path class="xy3-y"/><path class="xy4-x"/><path class="xy4-y"/></g><g class="xaxislayer-below"/><g class="yaxislayer-below"/><g class="overaxes-below"><g class="xy2-x"/><g class="xy2-y"/><g class="xy3-x"/><g class="xy3-y"/><g class="xy4-x"/><g class="xy4-y"/></g><g class="overplot"><g class="xy" transform="translate(100,80)" clip-path="url(#clip1a4b99xyplot)"><g class="scatterlayer mlayer"><g class="trace scatter trace4611a8" style="stroke-miterlimit: 2; opacity: 1;"><g class="fills"/><g class="errorbars"/><g class="lines"><path class="js-line" d="M79.17,196.06L79.92,212.42L80.1,201.77L80.12,200.14L81.49,115.22L82.03,125.57L82.06,126.06L83.02,144.3L83.33,137.71L83.35,137.13L84.56,109.82L84.82,119.29L84.85,120.29L86.11,169.48L86.42,162.55L86.45,161.92L87.66,132.54L87.87,142.58L87.9,143.92L89.24,212.21L89.55,204.93L89.58,204.32L90.76,176.39L91,183.54L91.02,184.4L93.37,235.99L93.4,236.21L93.86,240.01L93.97,235.55L93.99,234.31L95.41,166.06L95.7,183.65L95.72,185.35L99.21,353.12L99.24,353.51L100.06,366.18L100.24,359.85L100.27,358.87L102.08,306.93L102.1,306.89L103.19,305.07L103.47,306.01L103.5,306.1L104.79,313.3L104.81,314.42L106.29,377.29L106.88,372.43L106.91,372.22L107.84,364.82L108.17,366.31L108.2,366.42L109.36,371.57L109.46,368.77L109.49,367.98L110.94,324.71L111.5,328.59L111.53,328.76L112.46,335.11L112.82,332.92L112.85,332.75L114.04,325.18L114.19,327.72L114.22,328.18L116.28,385.3L116.31,386.53L117.13,424.54L117.5,415.42L117.52,414.76L118.97,367.5L118.99,365.92L120.23,290.25L120.54,310.21L120.57,311.97L122.66,401.81L122.69,402.06L123.31,407.98L123.38,402.72L123.41,400.72L124.86,288.39L125.19,314.07L125.22,316.16L126.43,412.65L126.74,399.33L126.77,398.22L127.96,347.17L128.27,356.12L128.29,356.92L129.51,394.56L129.69,381.65L129.71,379.66L131.06,276.21L131.47,297.13L131.5,298.51L132.66,359.9L133.07,357.5L133.1,357.35L134.26,346.01L134.28,344.12L136.56,232.94L136.58,232.74L137.31,224.38L137.33,222.56L138.86,116.25L139.42,126.1L139.45,126.55L140.38,142.29L140.92,139.88L140.95,139.77L141.9,135.53L142.03,138.33L142.06,138.94L143.45,171.75L143.71,167.68L143.74,167.24L145.03,145.54L145.44,145.83L145.47,145.84L146.55,146.58L146.6,146L146.63,145.65L148.1,125.58L148.18,133.21L148.21,136.11L149.68,301.51L149.91,277.61L149.94,274.75L151.2,134.85L151.46,161.71L151.49,164.58L152.8,309.12L153.22,305.25L153.24,305.01L155.85,282.41L155.95,287.08L155.98,288.36L157.4,359.05L157.87,347.98L157.89,347.33L160.11,311.77L160.14,311.58L162.08,295.09L162.21,298.93L162.23,299.77L163.65,345.05L164.22,340.53L164.25,340.32L165.15,333.12L165.46,335.48L165.49,335.69L168.25,360.96L168.3,358.52L168.33,357.01L169.85,269.56L170.13,276.26L170.16,276.87L172.05,330.21L172.07,331.15L172.9,361.29L173.39,353.51L173.41,353.08L174.45,335.83L174.86,340.45L174.89,340.75L177.39,385.79L177.42,386.39L177.55,389.39L177.99,381.62L178.01,381.15L180.13,356.43L180.16,356.33L180.67,354.21L180.9,356.13L180.93,356.35L182.2,367.32L182.61,364.9L182.64,364.74L183.75,357.93L183.95,359.91L183.98,360.17L185.3,373.61L185.37,370.08L185.4,368.68L186.87,289.78L187.1,298.74L187.13,299.74L189.97,376.7L190,375.49L191.55,228.65L191.88,232.84L191.91,233.16L193.04,247.34L193.28,243.41L193.3,242.93L194.59,219.16L194.83,226.23L194.85,227.08L196.2,270.39L196.58,261.94L196.61,261.38L198.18,203.84L198.21,201.95L200.04,123.09L200.07,123.07L200.9,121.28L200.92,120.9L202.37,99.71L202.68,104.71L202.7,105.15L206.29,152.46L206.32,152.49L207.04,154.59L207.07,156.35L208.59,259.03L208.95,257.55L208.98,257.45L210.12,252.8L210.25,255.08L210.27,255.58L211.9,295.25L211.92,296.58L213.19,362.16L213.55,346.32L213.58,345.12L214.77,290.15L215.08,299.34L215.1,300.16L216.32,338.12L216.81,332.03L216.83,331.71L219.41,308.29L219.44,309.21L219.47,310.72L220.96,397.11L221.25,390.63L221.27,390.04L222.51,362.15L223.13,364.06L223.16,364.13L224.04,366.83L224.14,365.16L224.17,364.69L226.47,328.27L226.49,327.97L227.16,319.95L227.5,323.63L227.53,323.93L230.26,366.31L230.93,365.41L230.96,365.37L231.86,362.88L231.89,362.08L233.36,316.43L233.7,326.62L233.72,327.45L234.94,365.67L235.48,361.6L235.51,361.41L236.49,354.21L236.93,354.97L236.95,355.02L238.06,357.96L238.09,358.38L239.59,382.68L239.92,382.22L239.95,382.18L241.21,379.34L241.24,379.07L243.46,352.34L243.49,351.95L244.21,341.11L244.55,345.43L244.57,345.78L247.31,384.7L247.52,378.19L247.54,377.33L248.86,333.33L249.22,344.37L249.25,345.19L250.41,382.42L250.59,372.15L250.62,370.57L252.71,263.51L252.73,262.65L254.39,192.82L254.41,191.52L255.06,159.17L255.5,172.16L255.52,172.97L256.58,205.99L256.94,196.11L256.97,195.36L258.65,135.68L258.67,134.33L260.56,76.01L260.59,75.89L261.26,72.68L261.31,75.77L261.33,77.68L263.63,192.56L263.66,192.73L265.8,214.74L265.83,215.05L266.45,235.85L266.47,236.78L267.46,271.99L267.74,258.89L267.77,257.63L269.01,197.19L269.24,211.35L269.26,213.03L270.58,297.4L271.15,289.07L271.18,288.69L272.1,275.07L272.49,278.17L272.52,278.39L273.94,298.84L273.96,299.84L275.98,349.15L276,349.18L276.75,349.95L276.81,349.05L276.83,348.5L278.3,317.37L278.56,325.9L278.59,326.8L279.85,370.8L280.16,364.08L280.19,363.48L282.41,329.71L282.44,329.57L282.95,326.76L283.08,330.05L283.11,330.77L284.5,369.29L284.74,362.45L284.76,361.64L286.05,321.14L286.47,329.06L286.49,329.58L287.58,351.39L288.04,346.63L288.07,346.35L290.42,307.63L290.44,307.07L290.7,301.53L290.86,311.33L290.88,313.08L292.25,405.92L292.69,388.55L292.72,387.48L293.83,342.26L294.21,347.14L294.24,347.47L295.38,361.55L296.02,360.67L296.05,360.63L297,358.09L297.03,357.72L298.45,337.39L298.68,343.48L298.71,344.19L300.03,380.06L300.44,379.92L300.46,379.91L301.63,378.84L301.65,378.59L303.28,357.95L303.31,357.02L304.65,308.5L304.96,313.79L304.98,314.26L307.75,350.41L307.77,349.12L309.32,234.53L309.92,243.04L309.94,243.41L310.85,256.36L311.08,250.32L311.11,249.61L312.42,214.24L312.84,215.23L312.86,215.29L313.95,217.88L313.97,216.87L314,215.4L316.5,86.08L316.53,84.95L317.05,62.41L317.3,79.24L317.33,81.01L318.6,167.72L318.91,142.9L318.93,140.74L320.15,38.94L320.64,56.91L320.66,57.9L327.51,266.61L327.53,267.09L328.18,288.85L328.2,290.25L329.47,357.85L330.17,356.66L330.19,356.61L331.05,354.29L331.07,353.72L332.54,321.59L332.88,328.93L332.9,329.52L334.09,356.65L334.43,349.32L334.45,348.73L335.64,321.61L335.98,328.81L336,329.39L337.19,356.13L337.61,350.48L337.63,350.11L338.74,334.22L339.18,337.93L339.21,338.16L341.45,355.32L341.48,355.49L341.84,357.83L342,354.7L342.02,354.15L343.39,324.75L343.73,331.89L343.75,332.46L344.97,358.84L345.54,355.93L345.56,355.8L346.7,346.17L346.72,345.55L348.04,313.66L348.48,319.66L348.51,320.02L350.44,341.88L350.47,342.08L352.07,364L352.1,364.46L354.27,413.24L354.78,410.6L354.81,410.47L356.77,396.45L356.8,396.21L357.73,377.54L357.75,376.62L358.89,335.92L359.25,346.83L359.28,347.64L360.44,384.08L360.67,373.74L360.7,372.54L361.99,312.26L362.25,322.11L362.27,323.16L363.54,374.52L363.8,358.47L363.82,356.79L365.11,274.79L365.63,284.65L365.66,285.14L366.64,303.86L366.9,298.01L366.92,297.39L368.37,253.6L368.39,251.6L369.74,147.63L370.1,171.81L370.12,173.6L372.34,273.17L372.37,273.62L372.84,281.7L372.94,273.66L372.96,271.47L375.94,31.42L376.25,62.65L376.27,65.36L377.51,192.84L378.13,185.45L378.16,185.14L379.03,174.66L379.16,180.31L379.19,181.51L380.61,246.79L381.2,241.93L381.23,241.72L382.13,234.33L382.42,237.49L382.44,237.79L384.33,264.22L384.36,264.7L386.09,319.62L386.11,320.79L386.78,351.22L387.07,334.07L387.09,332.45L388.33,254.3L388.82,267L388.85,267.7L392.49,339.62L392.52,339.94L392.98,345.64L393.29,340.67L393.32,340.24L394.53,319.96L394.76,325.07L394.79,325.67L399.18,411.67L399.26,410.87L399.28,410.55L400.89,385.49L400.91,384.32L402.28,322.24L402.72,333.91L402.75,334.63L403.83,364.58L404.14,358.01L404.17,357.44L405.38,330.55L405.72,334.45L405.74,334.77L408.48,365.74L408.81,361.87L408.84,361.56L410.03,347.39L410.34,351.45L410.36,351.81L411.58,368.37L411.86,362.93L411.89,362.42L413.13,337.92L413.36,342.75L413.39,343.31L414.68,371.49L415.01,368.69L415.04,368.46L416.23,357.93L416.33,362.38L416.36,363.58L417.78,429.4L418.06,420.83L418.09,420L420.46,352.35L420.49,351.71L423.64,267.94L423.67,267.63L423.98,263.93L424.31,268.79L424.34,269.18L425.53,286.99L425.71,281.76L425.73,280.97L429.99,178.93L430.02,178.63L430.25,170.19L430.28,167.81L432.16,33.49L432.19,33.45L433.27,31.97L433.3,33.01L433.33,34.4L434.85,115.42L435.24,115.28L435.26,115.28L437.59,113.66L437.61,113.63L437.92,113.32L437.95,115.04L439.89,247.45L439.91,247.58L441.1,257.36L441.13,258.83L442.57,341.14L442.83,330L442.86,328.82L444.15,270.99L444.48,275.57L444.51,275.92L445.67,291.77L445.98,286.99L446.01,286.58L447.22,267.16L447.32,272.68L447.35,274.23L448.77,359.16L449.26,346.55L449.29,345.86L450.32,318.39L450.58,326.13L450.61,326.93L451.87,366.18L452.13,358.64L452.15,357.86L453.42,319.48L453.91,325.77L453.94,326.11L454.97,339.85L455.28,336.7L455.31,336.43L457.14,321.03L457.17,320.92L458.07,317.22L458.25,319.3L458.28,319.61L459.62,335.63L459.75,331.77L459.77,330.95L461.17,286.74L461.45,299.2L461.48,300.38L462.72,356.6L463.08,351.6L463.11,351.22L464.27,334.19L464.53,338.24L464.55,338.67L465.82,359.38L466.21,354.64L466.23,354.32L467.37,339.99L467.7,344.53L467.73,344.9L468.94,361.5L469.49,359.46L469.51,359.37L470.47,355.79L470.73,357.4L470.75,357.57L472.12,369.2L472.15,370.09L473.57,418.96L473.82,411.74L473.85,410.98L476.12,367.23L476.15,367.06L476.72,363.7L477.39,363.93L477.41,363.94L478.22,364.21L478.24,363.17L479.79,284.14L480.36,289.95L480.39,290.21L482.86,316.1L482.89,314.19L482.92,311.78L484.44,171.85L484.75,178.51L484.78,179.06L485.96,204.58L486.17,197.49L486.2,196.56L488.68,116.89L488.7,116.17L490.61,79.59L490.77,82.31L490.79,82.8L492.81,127.11L492.83,127.86L493.74,153.43L494.41,152.75L494.44,152.72L495.26,151.88L495.29,152.45L495.31,153.18L497.33,220.16L497.35,221.39L500.76,337.31L500.79,337.7L501.46,347.77L501.54,341.38L501.56,339.08L503.01,210.4L503.55,224.82L503.58,225.53L506.14,312.85L506.68,309.52L506.7,309.37L507.66,303.5L507.74,306.68L507.76,307.81L509.21,371.39L509.67,361.57L509.7,361.01L510.76,337.89L511.22,343.15L511.25,343.45L512.88,367.1L512.9,367.62L513.86,386.83L514.14,379.31L514.17,378.61L516.24,332.34L516.26,331.95L516.96,321.49L517.35,326L517.37,326.31L519.77,358.83L519.8,359.22L520.06,363.09L520.26,356.33L520.29,355.46L521.61,311.01L521.97,321.59L521.99,322.36L524.71,378.95L524.73,378.69L524.76,378.32L526.26,356.89L526.51,359.32L526.54,359.58L527.81,372.09L528.17,368.86L528.19,368.62L529.36,357.92L529.87,359.8L529.9,359.89L532.46,371.06L532.64,368.99L532.66,368.68L534.01,352.65L534.57,354.52L534.6,354.6L535.55,357.86L535.74,356.2L535.76,355.95L537.34,337.43L537.36,336.79L539.33,277.96L539.35,276.93L540.23,242.93L540.77,248.29L540.8,248.55L541.75,258L541.93,253.77L541.96,253.15L543.61,202.9L543.64,201.41L544.85,131.51L545.11,146.34L545.14,147.87L546.4,222.93L546.64,208.17L546.66,206.47L547.95,121.54L548.52,130.84L548.55,131.28L549.5,147.57L549.86,143.87L549.89,143.6L551.05,131.31L551.21,136.51L551.23,137.41L553.45,188.04L553.48,188.13L554.23,193.19L554.25,194.16L558,298.86L558.03,299.19L559.42,332.17L559.45,333.13L560.35,366.73L560.66,357.04L560.69,356.21L561.9,317.33L562.26,321.96L562.29,322.3L563.48,337.8L563.91,337.65L563.94,337.64L565.77,337.8L565.8,337.82L566.65,339.18L566.68,339.4L568.1,351.51L568.31,349.11L568.33,348.81L571.2,320.93L571.33,323.08L571.35,323.53L573.24,362.95L573.26,363.75L574.3,395.81L574.5,382.82L574.53,381.15L575.85,296.32L576.23,314.26L576.26,315.48L578.89,400.04L578.92,400.57L578.95,401.1L579.2,393.49L579.23,392.71L581.53,313.47L581.56,312.45L582.05,293.04L582.3,311.41L582.33,313.29L583.6,405.18L584.14,393.66L584.16,393.1L585.15,371.69L585.61,376.96L585.64,377.26L586.69,389.53L586.82,384.61L586.85,383.59L588.24,328.42L588.61,340.64L588.63,341.53L589.79,381.52L590.21,371.88L590.23,371.26L592.56,335.18L592.58,334.98L592.89,332.55L593.07,335.79L593.1,336.27L594.44,360.97L594.75,355L594.78,354.49L596.25,317.14L596.28,315.79L597.54,249.8L597.85,258.67L597.88,259.43L599.09,295.44L599.25,285.22L599.27,283.46L602.19,103.98L602.63,115.1L602.66,115.77L603.74,143.87L604.03,137.04L604.05,136.41L605.29,105.98L605.73,112.31L605.76,112.69L607.28,150.78L607.31,152.09L608.39,207.18L608.73,196.56L608.75,195.73L609.94,157.26L610.17,171.76L610.2,173.41L611.49,255.75L611.77,244.04L611.8,242.95L613.07,190.54L613.69,193.5L613.71,193.62L614.59,197.81L614.77,195.29L614.8,194.92L616.14,175.69L616.22,181.98L616.24,184.18L617.71,307.54L618.36,303.14L618.39,302.97L619.52,288.25L619.55,287.43L620.79,248.13L621.1,254.37L621.12,254.91L622.91,300.25L622.93,301.16L625.23,353.42L625.26,353.77L625.44,356.24L625.75,350.04L625.77,349.51L627.66,303.2L627.68,302.37L628.54,275.06L628.8,288.32L628.82,289.67L630.91,360.22L630.94,360.34L631.64,363.67L631.77,360.95L631.79,360.39L633.19,329.96L633.42,338.78L633.44,339.79L634.76,390.03L635.41,388.05L635.43,387.97L636.29,385.35L636.54,386.91L636.57,387.07L638.95,396.74L638.97,396.79L639.38,397.49L639.46,396.45L639.49,396.09L640.93,375.88L641.12,379.41L641.14,379.93L642.48,406.95L642.69,398.45L642.72,397.37L644.03,342.15L644.29,351.26L644.32,352.2L645.58,397.94L646,395.5L646.02,395.34L647.13,388.53L647.52,390.22L647.55,390.33L648.68,395.37L648.84,392.89L648.86,392.47L651.89,339.62L651.91,338.86L653.33,297.23L653.77,304.86L653.8,305.32L654.88,324.56L655.27,321.97L655.3,321.8L656.43,314.06L656.74,315.39L656.77,315.51L657.98,320.89L658.08,318.4L658.11,317.76L659.87,264.3L659.89,262.9L661.08,198.47L661.67,204.81L661.7,205.09L662.63,215.22L662.76,209.89L662.79,208.79L664.75,141.51L664.77,141.16L667,122.07L667.02,121.95L667.82,114.26L667.85,113.95L668.83,102.24L668.96,107.5L668.98,108.57L671.93,197.25L671.95,197.17L671.98,197.03L673.48,188.86L673.5,190.7L673.53,192.74L675.03,310.72L675.6,298.71L675.62,298.15L677.07,257.95L677.09,256.91L678.13,215.36L678.46,229.45L678.49,230.55L680.25,286.3L680.27,286.53L681.72,303.18L681.74,303.61L682.78,320.86L683.03,314.53L683.06,313.89L684.33,282.39L684.58,292.39L684.61,293.41L685.88,343.01L686.47,337.84L686.5,337.61L687.43,329.37L687.63,332.56L687.66,332.97L688.98,353.61L689.26,350.2L689.29,349.88L690.53,334.66L690.68,338.81L690.71,339.51L692.07,376.85L692.26,368.95L692.28,367.81L694.63,297.6L694.66,297.33L695.17,291.87L695.46,296.18L695.48,296.58L696.96,325.44L696.98,326.54L698.27,381.6L698.69,370.41L698.71,369.71L699.82,339.43L700.19,347.49L700.21,348.07L701.37,374.22L701.63,366.02L701.66,365.2L702.92,324.65L703.18,331.43L703.21,332.11L704.99,367.91L705.01,368.01L706.02,372.13L706.1,370.09L706.13,369.4L707.57,330.46L707.88,334.4L707.91,334.74L709.12,350.46L709.43,347.75L709.46,347.52L710.67,336.76L710.9,339.11L710.93,339.38L712.22,352.58L712.61,349.57L712.63,349.37L714.16,334.26L714.18,333.85L715.81,300.6L715.84,299.81L716.87,268.11L717.18,275.98L717.21,276.64L718.42,307.66L718.6,297.79L718.63,296.36L719.97,222.21L720.33,227.4L720.36,227.78L721.52,244.81L721.67,239.56L721.7,238.67L723.25,171.91L723.28,169.09L724.62,22.6L724.9,41.15L724.93,42.86L726.66,127.6L726.68,127.74L727.72,133.37L727.8,130.56L727.82,129.6L729.27,75.85L729.6,89.15L729.63,90.18L731.08,164.67L731.1,167.39L732.37,300.7L732.81,275.32L732.83,273.81L733.92,210.6L734.51,216.97L734.54,217.25L735.57,237.36L735.6,239.89L737.02,378.9L737.35,366.8L737.38,365.86L738.57,322.53L738.82,332.56L738.85,333.57L741.15,392.73L741.17,392.96L741.67,397.48L741.79,393.28L741.82,392.42L743.22,346.28L743.78,351.67L743.81,351.92L744.76,361.04L745.15,358.02L745.18,357.81L746.31,348.91L746.75,349.35L746.78,349.37L748.64,350.22L748.66,350.21L750.19,350.48L750.21,350.5L750.96,351.01L750.99,350.03L753.8,270.3L753.83,269.92L754.06,266.51L754.19,274.26L754.22,275.83L755.64,360.5L756.03,360.24L756.05,360.22L757.19,358.61L757.21,357.72L758.71,305.64L759.02,317.99L759.05,319.03L760.26,367.87L760.7,366.57L760.73,366.49L761.81,363.16L761.91,364.93L761.94,365.38L763.36,390.07L763.88,386.76L763.9,386.6L764.96,377.19L764.99,375.73L766.46,292.47L766.74,301.15L766.77,301.95L768.01,340.42L768.24,327.27L768.27,325.8L769.56,252.33L769.84,264.47L769.87,265.58L771.11,319.27L771.76,316.24L771.78,316.12L772.66,311.93L772.76,314.35L772.79,314.97L774.21,348.87L774.31,339.98L774.34,337.73L775.76,213.74L775.99,231.84L776.02,233.87L777.31,335.16L777.49,306.9L777.52,302.86L778.86,92.8L779.25,104.44L779.27,105.23L781.13,172.71L781.16,173.89L781.96,210.44L782.24,193.54L782.27,191.99L783.51,117.62L783.87,125.4L783.89,125.96L785.5,170.62L785.52,171.75L788.13,249.07L788.16,249.57L791.26,289.21L791.44,283.73L791.46,282.95L792.81,242.22L793.01,256.38L793.04,258.16L794.36,348.88L794.74,345.2L794.77,344.96L797.45,311.93L797.79,316.15L797.82,316.48L799.75,336.06L799.78,336.22L800.55,340.97L800.66,338.07L800.68,337.34L802.1,297.14L802.31,308.88L802.34,310.35L803.65,385.31L804.07,383.38L804.09,383.25L805.2,377.96L805.82,378.58L805.85,378.61L807.53,379.27L807.55,379.26L808.3,379.01L808.33,377.77L809.85,302.95L810.08,313.54L810.11,314.72L811.4,373.66L811.89,363.71L811.92,363.18L812.95,342.04L813.24,347.64L813.26,348.15L815.51,377.13L815.53,377.24L816.05,379.53L816.23,377.63L816.26,377.36L817.6,363.16L817.73,366.68L817.76,367.38L819.15,405.41L819.31,396.08L819.33,394.52L820.7,311.94L821.01,331.77L821.04,333.42L822.25,411.22L822.56,399.51L822.59,398.53L824.6,336.5L824.63,335.98L825.35,321.44L825.63,328.87L825.66,329.55L826.9,362.09L827.11,350.41L827.13,348.95L829.3,269.19L829.33,269.03L830.52,254.88L830.54,254.38L832.66,206.8L832.68,206.15L833.67,168.81L833.69,167.59L836.2,35.66L836.87,38.87L836.89,38.99L837.77,44.93L837.8,46.76L839.3,152.91L839.58,144L839.61,143.19L840.85,104.38L840.95,115.47L840.98,118.24L842.4,270.71L842.76,261.6L842.78,260.95L843.95,231.64L844.28,239.77L844.31,240.39L845.5,269.12L845.68,261.35L845.7,260.24L847.05,202.58L847.36,218.53L847.38,219.86L848.6,282.33L849.11,273.36L849.14,272.91L850.14,255.48L850.27,263.66L850.3,265.3L851.69,353.63L852.21,342.01L852.24,341.43L853.24,318.8L853.63,322.7L853.66,322.96L854.82,334.63L855.08,331.67L855.1,331.38L856.34,317.23L856.52,322.34L856.55,323.07L857.89,361.04L858.44,356.42L858.46,356.2L859.44,347.85L859.8,350.44L859.83,350.63L860.99,358.86L861.07,355.13L861.1,353.89L862.54,284.52L862.77,295.11L862.8,296.29L864.89,357.64L864.92,357.68L865.64,358.92L865.69,358.01L865.72,357.55L867.19,331.48L867.48,337.87L867.5,338.46L869.54,367.42L869.57,367.46L870.29,368.44L870.37,367.54L870.39,367.24L870.83,362.15" style="vector-effect: none; fill: none; stroke: rgb(31, 119, 180); stroke-opacity: 1; stroke-width: 2px; opacity: 1;"/></g><g class="points"/><g class="text"/></g></g></g><g class="xy2" transform="translate(100,80)" clip-path="url(#clip1a4b99xy2plot)"><g class="scatterlayer mlayer"><g class="trace scatter tracee40400" style="stroke-miterlimit: 2; opacity: 1;"><g class="fills"/><g class="errorbars"/><g class="lines"><path class="js-line" d="M79.17,101.81L80.23,104.7L80.25,104.79L81.96,114.14L81.98,114.35L83.09,127.39L83.12,127.76L95.67,351.18L95.7,351.39L101.66,411.01L101.69,411.09L102.83,412.97L103.03,412.9L103.06,412.89L103.99,413.4L104.01,413.43L105.1,414.59L105.2,413.69L105.23,413.44L106.29,409.51L106.31,409.54L106.65,409.84L106.75,408.96L106.78,408.72L107.91,404.04L107.94,404L108.43,402.11L108.46,401.93L109.9,396.06L109.93,395.98L111.25,389.27L111.27,389.04L114.45,358.87L114.47,358.57L119.46,303.13L119.48,302.8L123.44,251.06L123.46,250.72L126.15,211.81L126.17,211.44L130.1,152.16L130.13,151.71L132.04,124.92L132.06,124.59L135.83,88.49L135.86,88.32L137.64,82.06L137.67,82.09L137.69,82.15L138.62,85.86L138.65,86.04L139.97,99L139.99,99.36L142.58,142.55L142.6,143.1L147.72,249.73L147.74,250.38L152.34,337.37L152.36,337.69L157.09,381.47L157.12,381.66L158.92,392.14L158.95,392.26L160.99,397.64L161.02,397.71L162.08,399.53L162.13,398.84L162.15,398.43L162.49,393.41L163.06,395.31L163.08,395.46L163.99,398.35L164.09,396.9L164.12,396.51L164.79,389.99L165.15,390.49L165.18,390.45L167.45,380.71L167.47,380.55L167.86,381.38L167.91,380.24L167.94,379.56L169.28,359.41L169.31,359.26L170.5,349.71L170.52,349.23L171.89,338.87L171.92,338.77L174.73,323.78L174.76,323.53L176.36,312.83L176.38,312.73L177.73,300.78L177.75,300.57L179.51,282.14L179.54,281.79L183.13,232.1L183.15,231.8L185.27,202.12L185.3,201.73L188.42,160.08L188.45,159.76L191,134.53L191.03,134.36L194.65,111.23L194.96,111.29L194.98,111.3L196.2,112.43L196.22,112.54L198.16,124.24L198.18,124.5L201.26,158.48L201.28,158.97L204.12,215.61L204.15,216.2L212.54,375.79L212.57,376.03L215.59,396.3L215.62,396.33L217.71,399.83L217.74,399.96L217.87,400.6L218.15,398.41L218.18,398.2L218.25,397.57L218.64,399.61L218.95,397.96L218.98,397.81L219.03,397.52L219.31,400.24L219.34,400.5L219.8,399.8L220.19,401.98L220.22,402.12L221.71,407.88L221.87,407.43L221.89,407.34L222.13,406.66L222.59,407.4L222.62,407.5L222.9,408.55L223.21,406.87L223.24,406.73L223.65,407.76L224.74,393.93L224.76,393.55L226.62,379.14L226.65,379.04L227.76,372.54L227.78,372.38L229.51,364.95L229.72,365.28L229.75,365.32L229.85,365.49L229.98,364.45L230,364.23L231.06,359.68L231.3,359.88L231.32,359.9L231.68,358.57L231.71,358.42L235.07,338.59L235.09,338.35L236.51,320.95L236.54,320.64L240.03,277.01L240.05,276.56L249.01,152.79L249.04,152.51L251.78,118.74L251.8,118.41L254.31,98.69L254.33,98.67L254.7,98.45L254.98,99.1L255.01,99.16L256.97,106.13L257,106.37L261.57,178.36L261.59,178.88L263.48,224.65L263.5,225.26L269.29,330.82L269.32,331.13L271.56,354.38L271.59,354.65L275.67,397.96L275.7,398.14L277.37,406.46L277.4,406.55L278.33,408.84L278.74,408.64L278.77,408.62L280.01,406.61L280.03,406.54L281.12,402.23L281.14,401.82L282.2,392.05L282.51,392.5L282.54,392.54L283.83,388.71L283.86,388.57L290.52,347.28L290.55,347.04L301.58,219.39L301.6,219.1L303.64,192.13L303.67,191.71L305.79,162.92L305.81,162.59L310.12,120.8L310.15,120.66L312.01,114.49L312.04,114.5L312.66,115.27L312.68,115.34L313.64,120.74L313.66,120.98L315.83,145.31L315.86,145.62L322.03,255.01L322.06,255.61L325.49,334.91L325.52,335.43L327.58,369.76L327.61,370.11L330.99,403.54L331.02,403.49L331.38,401.69L331.79,403.37L331.82,403.47L332.93,405.9L333.11,405.51L333.14,405.45L335.64,398.75L336.03,399.79L336.06,399.9L336.81,403.05L336.91,400.51L336.93,399.83L337.61,392.34L337.94,392.36L337.97,392.36L339.28,396.02L339.31,396.06L339.52,396.34L339.75,395.45L339.78,395.34L342.23,385.06L342.46,386.24L342.49,386.38L342.62,387.06L342.77,384.05L342.8,383.52L344.24,365.03L344.27,364.97L344.81,362.22L344.84,362L346.67,349.99L346.7,349.88L347.58,342.21L347.6,341.92L352.33,289.77L352.35,289.45L355.61,248.1L355.63,247.73L361.19,167.83L361.21,167.43L366.17,114.08L366.2,113.87L368.13,100.87L368.16,100.73L368.57,99.8L368.99,100.43L369.01,100.53L370.36,108.54L370.38,108.73L371.93,122.48L371.96,122.82L378.6,235.55L378.62,236.13L386.37,377.08L386.4,377.36L387.92,388.22L387.95,388.34L390.53,404.55L390.55,404.8L392.59,417.38L392.72,417.01L392.75,416.92L392.98,416.2L393.19,417.99L393.21,418.22L394.97,427.4L395,427.39L395.9,426.33L395.93,426.26L396.47,424.94L396.7,426.23L396.73,426.38L396.86,427.13L397.04,423.05L397.06,422.44L398.92,399.25L398.95,399.15L400.21,390.68L400.24,390.48L401.51,377.04L401.53,376.75L406.85,326.71L406.88,326.56L412.22,282.8L412.25,282.51L414.6,252.6L414.63,252.16L417,216.49L417.03,216.11L420.28,166.05L420.31,165.68L422.76,133.99L422.79,133.72L425.96,100.88L425.99,100.74L427.51,96.51L427.54,96.51L428.6,97.07L428.63,97.11L429.37,100.54L429.4,100.74L430.9,115.76L430.92,116.1L432.91,146.8L432.94,147.37L435.26,192.33L435.29,192.94L438.93,281.3L438.96,281.84L441.59,333.83L441.62,334.27L443.76,365.06L443.79,365.4L445.36,379.46L445.39,379.65L446.06,379.49L447.04,388.66L447.07,388.91L448.72,400.23L448.75,400.38L450.3,406.36L450.32,406.44L450.86,409.51L450.89,409.88L451.1,412.82L451.46,408.08L451.48,407.73L451.87,403.97L452.34,406.21L452.36,406.43L453.42,413.74L453.76,411.65L453.78,411.49L454.2,410.73L454.51,411.57L454.53,411.64L454.97,412.24L455.28,411.52L455.31,411.46L456.42,406.05L456.44,405.9L456.52,405.45L456.86,407.44L456.88,407.6L456.91,407.76L457.09,404.76L457.11,404.32L458.1,388.57L458.56,388.97L458.59,388.99L458.84,389.21L458.97,388.45L459,388.29L462.31,366.58L462.33,366.38L466.46,316.8L466.49,316.38L482.61,100.92L482.63,100.75L485.14,88.95L485.16,88.94L486.4,91.69L486.43,91.86L488.88,116.9L488.91,117.25L493.69,211.75L493.71,212.37L495.93,263.87L495.96,264.58L499.45,329.69L499.47,330.09L502.21,357.71L502.24,357.88L505.08,376.15L505.1,376.45L508.74,407.02L508.77,407.2L509.98,411.34L510.17,411.18L510.19,411.15L510.94,409.47L510.97,409.37L512.64,400.79L512.67,400.46L516.05,371.45L516.08,371.2L519.7,343.66L519.98,343.75L520.01,343.76L520.42,340.34L520.45,340.09L521.68,335.14L521.71,335.09L522.33,332.56L522.36,332.4L526.95,295.7L526.98,295.37L530.6,249.01L530.62,248.6L537.62,163.31L537.65,163.09L540.69,139.05L540.72,138.92L542.53,132.49L542.63,132.58L542.66,132.6L543.2,134.07L543.23,134.19L544.52,143.05L544.54,143.37L548.73,194.45L548.75,194.79L550.33,219.66L550.35,220.1L551.88,253.33L551.9,253.9L558.93,383.95L558.96,384.24L560.81,400.27L560.84,400.47L561.12,402.64L561.41,399.56L561.43,399.27L561.51,398.41L561.95,401.09L561.98,401.22L563.45,409.75L563.68,407.16L563.71,406.85L564.22,403.11L564.56,405.24L564.59,405.4L565.95,410.62L565.98,410.72L566.94,413.12L566.99,412.14L567.01,411.62L567.71,404.77L567.97,406.78L568,406.99L568.12,407.81L568.72,406.88L568.74,406.82L568.87,406.5L568.98,407.81L569,408.15L569.26,411.52L569.57,406.91L569.6,406.52L570.04,403.52L570.37,405.78L570.4,405.96L570.42,406.14L570.89,403.83L570.91,403.54L571.22,400.36L571.82,401.54L571.84,401.65L571.97,402.18L572.18,400.23L572.21,399.98L573.78,389.47L573.81,389.4L574.56,386.12L574.58,385.82L576.93,369.57L576.96,369.36L582.46,306.93L582.48,306.57L590.08,206.61L590.1,206.23L598.81,96.22L598.83,96.06L600.31,91.97L600.33,91.96L601.47,92.31L601.49,92.37L602.4,95.97L602.42,96.12L604,107.03L604.03,107.23L606.45,140.19L606.48,140.7L610.46,224.11L610.48,224.68L617.22,341.87L617.25,342.16L618.77,364.07L618.8,364.45L622.49,403.59L622.52,403.71L625.44,419.08L625.67,416.53L625.7,416.23L626.21,414.15L626.47,415.5L626.5,415.64L627.01,417.64L627.5,417.14L627.53,417.07L628.41,413.89L628.43,413.64L629.36,412.03L629.39,411.94L631.46,404.16L631.48,403.71L633.13,389.55L633.16,389.5L634.48,376.33L634.5,375.99L643.29,273.63L643.31,273.3L646.18,232.33L646.2,231.92L649.95,170.63L649.97,170.11L658.39,37.84L658.42,37.54L660.59,22.75L660.62,22.71L661.11,22.83L661.29,23.15L661.31,23.2L662.29,26.37L662.32,26.51L664,40.07L664.03,40.41L667.87,114.55L667.9,115.11L670.53,178.2L670.56,178.86L676.78,307.45L676.81,307.74L682.16,365.53L682.18,365.82L685.72,395.24L685.75,395.31L688.59,401.87L688.69,401.77L688.72,401.74L690.11,399.3L690.14,399.2L690.53,400.43L690.6,398.69L690.63,398.1L691.92,381.55L691.95,381.41L695.36,365.85L695.38,365.75L698.33,352.71L698.35,352.57L701.11,335.05L701.14,334.79L703.7,307.29L703.72,306.94L716.3,166.98L716.33,166.78L717.77,159.81L717.8,159.78L718.42,159.26L718.76,159.85L718.78,159.9L721.36,166.59L721.39,166.77L723.59,183.37L723.61,183.65L725.32,206.56L725.34,206.99L727.25,245.11L727.28,245.62L732.6,360.15L732.63,360.52L735.05,390.56L735.08,390.74L736.24,394.98L736.55,394.83L736.58,394.82L737.02,395.95L737.15,395.04L737.17,394.85L737.79,392.17L738.23,392.55L738.26,392.64L740.12,396.36L740.14,396.34L741.56,394.9L741.59,394.79L742.44,392.71L742.6,393.67L742.62,393.83L742.83,395.12L743.11,392.6L743.14,392.37L743.99,386.37L744.33,387.23L744.35,387.29L744.76,385.77L745.07,386.7L745.1,386.78L745.15,386.93L745.33,385.31L745.36,385.08L745.93,382.54L746.24,383.34L746.26,383.41L746.5,381.54L746.52,381.25L748.61,367.99L748.64,367.83L749.13,365.23L749.16,364.77L750.68,347.35L750.71,346.97L752.46,328.44L752.49,328.31L754.86,309.23L754.89,309.19L755.95,306.15L755.97,305.99L757.34,302.69L757.37,302.62L759.05,296.22L759.07,296.06L760.34,284.61L760.37,284.35L770.1,167.33L770.13,167.18L771.57,161.65L771.6,161.54L774.47,151.41L774.49,151.37L775.37,151.46L775.4,151.5L776.95,155.32L776.97,155.49L778.99,172.08L779.01,172.34L780.61,192.68L780.64,193.05L782.53,224.68L782.55,225.15L787.59,315.3L787.61,315.79L793.01,398.01L793.04,398.23L794.74,410.72L794.82,409.83L794.85,409.53L795.13,406.25L795.62,408.99L795.65,409.34L796.68,417.15L796.83,417.05L796.86,417.04L797.07,416.92L797.17,417.66L797.2,417.85L798.62,423.89L798.64,423.93L799.83,426.68L799.86,426.89L800.17,429.4L800.55,426.9L800.58,426.43L801.33,417.82L801.66,419.74L801.69,419.88L802.34,415.77L802.36,415.61L806.8,388.1L806.83,387.79L815.1,301.13L815.12,300.77L822.46,205.49L822.48,205.12L829.84,117.84L829.87,117.67L832.14,108.92L832.17,108.85L832.71,108.33L833.07,108.61L833.1,108.63L834.52,113.87L834.54,114.02L835.35,122.19L835.37,122.53L837,149.45L837.02,149.85L838.96,186.6L838.99,187.15L841.88,246.11L841.91,246.6L844.72,297.22L844.75,297.63L847.38,335.23L847.41,335.52L851.31,383.92L851.51,382.77L851.54,382.62L851.69,381.77L851.95,384.47L851.98,384.74L854.1,404.9L854.12,404.96L855.31,406L855.34,406.01L856.45,406.8L856.47,407.02L856.73,409.12L857.04,406.01L857.07,405.75L857.89,388.61L858.41,391.13L858.44,391.13L858.87,390.39L858.9,390.3L859.06,389.79L859.42,391.06L859.44,391.15L860.04,390.57L860.06,390.49L862.54,383.09L862.8,383.73L862.83,383.79L862.96,384.08L863.08,382.33L863.11,381.98L865.15,363.73L865.18,363.56L866.78,356.79L866.8,356.68L869.72,329.84L869.75,329.49L870.83,316.93" style="vector-effect: none; fill: none; stroke: rgb(255, 127, 14); stroke-opacity: 1; stroke-width: 2px; opacity: 1;"/></g><g class="points"/><g class="text"/></g></g></g><g class="xy3" transform="translate(100,80)" clip-path="url(#clip1a4b99xy3plot)"><g class="scatterlayer mlayer"><g class="trace scatter trace19aadd" style="stroke-miterlimit: 2; opacity: 1;"><g class="fills"/><g class="errorbars"/><g class="lines"><path class="js-line" d="M79.17,90L80.56,99.42L80.59,99.67L83.56,143.63L83.58,144.17L86.53,210.77L86.55,211.36L94.82,370.68L94.84,370.97L98.74,403.48L98.77,403.59L100.76,409.29L100.79,409.29L101.87,408.81L101.9,408.74L104.14,400.82L104.17,400.69L106.34,386.07L106.36,385.9L111.12,354.69L111.14,354.39L116.49,293.38L116.51,293.05L120.7,240.35L120.72,239.96L133.02,83.73L133.04,83.63L135.73,73.33L136.32,73.78L136.35,73.8L137.36,75.31L137.38,75.54L139.27,95.72L139.3,96.16L152.18,370.33L152.21,370.63L154.53,387.86L154.56,387.96L157.43,396.4L157.45,396.39L160.09,393.89L160.11,393.86L160.94,391.48L160.97,391.37L163.5,376.47L163.52,376.29L166.57,352.2L166.6,351.96L170.88,309.58L170.91,309.34L174.29,286.83L174.32,286.71L175.61,276.47L175.64,276.25L182.64,198.98L182.66,198.64L190.1,115.34L190.13,115.2L193.3,101.54L193.33,101.54L194.72,102.32L194.75,102.48L198.24,133.59L198.26,133.94L200.82,172.42L200.84,172.91L203.71,235.66L203.74,236.27L206.94,312.25L206.97,312.85L209.08,353.7L209.11,354.15L212.75,400.79L212.78,400.99L214.3,408.82L214.33,408.93L214.79,410.77L215.33,409.94L215.36,409.9L216.29,408.48L216.68,409.17L216.7,409.22L217.87,411.38L218.07,410.34L218.1,410.21L222.8,383.54L222.82,383.31L228.07,337.34L228.09,337.1L231.24,316.33L231.27,316.18L234.14,297.42L234.16,297.13L237.16,260.91L237.18,260.6L239.95,224.24L239.97,223.87L250.36,101.02L250.38,100.8L253.51,81.27L253.56,81.35L253.59,81.42L255.6,89.37L255.63,89.55L257.98,116.98L258,117.36L259.53,146.16L259.55,146.66L261.26,187.62L261.28,188.31L267.97,340.48L268,340.88L270.19,369.24L270.22,369.52L274.51,403.09L274.53,403.18L276.08,405.63L276.11,405.64L276.78,405.79L276.93,405.21L276.96,405.11L280.11,390.38L280.14,390.1L282.26,371.55L282.28,371.4L283.78,360.13L283.81,359.89L286.98,332.05L287.01,331.83L290.03,306.85L290.06,306.62L298.84,206.76L298.86,206.44L302.71,158.88L302.74,158.54L305.19,129.64L305.22,129.36L307.67,105.46L307.7,105.23L308.96,99.21L308.99,99.09L310.46,95.71L310.49,95.66L310.85,95.06L311.18,95.89L311.21,95.96L312.6,101.24L312.63,101.53L314.62,126.94L314.64,127.36L317.15,172.94L317.18,173.48L320.66,248.64L320.69,249.22L324.56,341.45L324.59,342.03L326.68,380.46L326.71,380.84L328.69,404.87L328.72,405.08L330.81,415.2L330.84,415.28L330.99,415.77L331.46,414.75L331.48,414.69L332.96,409.61L332.98,409.44L339.83,366.33L339.85,366.08L347.32,300.31L347.34,300.09L349.02,282.27L349.05,281.95L352.56,239.12L352.59,238.8L358.6,157.2L358.63,156.87L364.16,100.07L364.18,99.91L367.54,85.23L367.57,85.21L368.19,84.58L368.32,85.47L368.34,85.66L370.49,104.97L370.51,105.29L372.32,131.66L372.34,132.09L375.01,179.78L375.03,180.33L378.21,253.58L378.23,254.17L385.41,387.57L385.44,387.79L387.84,401.49L387.87,401.55L392.13,409.43L392.16,409.45L392.98,410.31L393.24,409.61L393.27,409.53L395.46,400.59L395.49,400.45L399.62,364.91L399.65,364.51L402.15,329.27L402.18,328.94L404.71,298.61L404.73,298.37L409.46,256.31L409.49,256.06L423.74,86.06L423.77,85.84L425.55,76.48L425.73,76.63L425.76,76.65L427.33,78.89L427.36,79.01L429.09,90.41L429.12,90.73L432.94,158L432.96,158.58L435.86,229.08L435.88,229.76L442.83,380.78L442.86,381.07L444.69,397.01L444.72,397.09L447.12,407.15L447.14,407.28L448.72,410.77L448.75,410.82L450.17,408.04L450.19,407.98L450.92,405.04L450.94,404.92L454.07,390.1L454.09,389.84L464.66,293.75L464.68,293.41L469.1,234.8L469.12,234.46L473.75,171.78L473.77,171.41L481.75,79.73L481.78,79.6L483.72,73.19L483.74,73.17L484.41,72.62L484.6,73.4L484.62,73.51L486.48,85.31L486.51,85.61L489.79,140.86L489.81,141.44L492.32,203.25L492.34,203.94L499.78,366.09L499.81,366.49L501.15,378.25L501.18,378.47L502.44,383.97L502.47,384.05L505.9,398.02L505.93,398.16L507.01,400.03L507.04,400.05L507.69,400.64L508.15,400.15L508.18,400.12L509.49,397.64L509.52,397.51L512.41,378.79L512.44,378.58L519.95,304.11L519.98,303.95L524.91,273.65L524.94,273.41L527.16,249.69L527.19,249.36L530.93,199.99L530.96,199.66L534.08,160.53L534.11,160.25L536.61,136.46L536.64,136.25L540.41,114.53L540.44,114.51L541.75,113.42L541.88,114.19L541.91,114.35L544.65,139.78L544.67,140.1L546.71,170.81L546.74,171.25L556.99,380.42L557.02,380.83L558.83,403.08L558.85,403.31L561.2,417.51L561.23,417.53L562.03,419.04L562.05,419.22L563.45,429.4L563.68,426.45L563.71,426.11L565.52,408.37L565.54,408.33L567.35,404L567.38,403.91L568.43,397.84L568.46,397.55L571.71,372.2L571.74,372.07L574.27,354.47L574.3,354.26L577.6,317.2L577.63,316.9L581.12,274.6L581.14,274.24L588.53,176.62L588.55,176.28L597.13,82.73L597.16,82.56L598.58,76.87L598.6,76.79L599.09,75.33L599.51,76.31L599.53,76.38L601.08,81.92L601.11,82.09L603.9,109.92L603.92,110.35L606.25,154.47L606.27,155.05L609.04,221.83L609.06,222.44L616.4,364.53L616.42,364.83L620.94,405.77L620.97,405.86L623.11,410.26L623.14,410.26L623.99,410.92L624.02,411.09L625.44,420.33L625.62,418.68L625.64,418.44L634.17,341.1L634.19,340.78L639.44,276.79L639.46,276.43L644.5,207.02L644.52,206.64L648.71,142.43L648.73,142.02L656.04,47.15L656.07,46.85L659.09,24.21L659.12,24.11L659.53,22.6L659.92,23.96L659.94,24.05L661.34,30.51L661.36,30.76L663.28,52.06L663.3,52.43L665.11,84.82L665.14,85.37L674.98,331.77L675,332.25L677.43,359.7L677.46,359.88L679.39,371.19L679.42,371.32L683.19,389.32L683.22,389.36L684.33,391.12L684.69,390.31L684.71,390.26L687.04,383.21L687.06,383.11L689.75,374.99L689.78,374.99L690.58,374.21L690.6,373.81L693.73,339.61L693.75,339.46L700.11,305.51L700.13,305.25L703.18,272.31L703.21,271.98L706.28,232.55L706.31,232.25L709.35,196.59L709.38,196.32L716.87,130.98L716.9,131.01L718.83,135.46L718.86,135.58L721.62,153.59L721.65,153.9L726.87,243.92L726.89,244.53L730.07,324.29L730.09,324.9L734.33,398.24L734.36,398.42L737.02,417.26L737.15,416.83L737.17,416.74L739.65,410.54L739.68,410.51L740.32,408.4L740.35,408.2L745.23,368.85L745.26,368.72L746.93,355.39L746.96,355.07L755.17,267.54L755.2,267.4L758.27,254.43L758.3,254.34L759.15,248.62L759.18,248.37L764.6,189.97L764.63,189.66L767.93,151.33L767.96,151.03L769.61,137.94L769.64,137.87L772.66,130.4L772.74,130.45L772.76,130.47L774.42,132.63L774.44,132.77L777.08,150.33L777.1,150.54L778.5,166.32L778.52,166.63L779.84,187.28L779.87,187.71L785.75,300.67L785.78,301.21L791.77,399.84L791.8,400.07L793.76,414.73L793.79,414.88L795.91,426.22L796.01,425.94L796.03,425.87L799.34,416.29L799.37,416.15L802.72,394.85L802.75,394.6L804.71,372L804.74,371.67L806.65,351.95L806.68,351.71L821.04,168.61L821.06,168.24L827.05,99.76L827.08,99.58L830.23,84.38L830.26,84.37L831.55,83.9L831.7,84.51L831.73,84.61L833.69,95.69L833.72,95.93L836.2,133.35L836.22,133.91L839.58,211.96L839.61,212.59L842.5,280.13L842.53,280.63L845.31,331.57L845.34,332.01L849.4,380.93L849.42,381.2L851.69,396.37L851.72,396.53L853.24,406.35L853.73,404.97L853.76,404.89L855.57,397.78L855.59,397.64L857.17,386.7L857.2,386.49L858.59,379.39L858.62,379.34L859.7,375.49L859.73,375.26L863.52,341.83L863.55,341.68L865.2,328.86L865.23,328.64L870.83,273.66" style="vector-effect: none; fill: none; stroke: rgb(44, 160, 44); stroke-opacity: 1; stroke-width: 2px; opacity: 1;"/></g><g class="points"/><g class="text"/></g></g></g><g class="xy4" transform="translate(100,80)" clip-path="url(#clip1a4b99xy4plot)"><g class="scatterlayer mlayer"><g class="trace scatter trace2eeceb" style="stroke-miterlimit: 2; opacity: 1;"><g class="fills"/><g class="errorbars"/><g class="lines"><path class="js-line" d="M79.17,258.47L80.69,291.49L80.72,291.76L81.49,299.64L81.9,297.95L81.93,297.85L83.02,293.41L83.25,295.51L83.27,295.75L84.93,315.59L84.95,316.13L87.33,373.36L87.35,374.06L89.42,405.69L89.45,405.72L90.76,407.34L91.05,406.64L91.07,406.57L92.7,400.56L92.73,400.37L94.3,380.81L94.33,380.15L95.41,352.09L95.72,358.32L95.75,358.88L96.99,385.62L97.3,380.99L97.32,380.57L98.82,349.98L98.85,349.01L100.66,297.06L100.68,296.8L101.92,280.46L101.95,279.85L103.21,250.91L103.55,254.35L103.57,254.62L104.71,266.27L105.05,262.85L105.07,262.57L106.67,240.78L106.7,240.21L110.88,171.61L110.91,171.29L113.7,154.95L113.73,154.85L114.32,149.72L114.34,149.35L116.85,125.06L116.88,124.93L118.53,111.96L118.55,111.75L119.48,99.42L119.51,99.06L121.09,87.58L121.11,87.54L122.17,84.73L122.2,84.61L124.44,77.74L124.47,77.69L125.09,75.38L125.12,75.18L126.46,65.44L126.87,65.5L126.9,65.5L127.96,65.65L128.01,65.07L128.03,64.72L131.06,30.7L131.16,33.01L131.19,33.67L133.54,125.38L133.56,126.96L135.34,186.35L135.37,186.82L136.22,211.86L136.25,212.81L138.08,265.22L138.11,265.69L139.79,287.55L139.81,287.78L140.9,302.49L140.92,302.96L142.94,325.49L142.96,325.6L143.89,333.17L143.92,333.5L146.53,383.31L146.55,383.93L148.93,417.75L148.96,417.81L149.68,419.36L149.78,417.87L149.81,417.47L151.69,394.03L151.72,393.96L152.86,389.26L152.88,388.57L155.31,344.51L155.33,344.36L156.01,337.65L156.03,337.01L159.62,271.33L159.65,271.31L160.63,269.66L160.66,269.41L162.82,251.66L162.85,251.52L164.04,241.08L164.06,240.68L169.85,155.65L170.37,158.22L170.39,158.35L171.61,168.1L171.63,168.61L172.92,193.68L173.49,191.21L173.52,191.09L175.07,180.94L175.09,180.69L178.35,145.91L178.37,145.64L185.94,80.57L185.97,80.55L186.92,78.55L186.95,78.16L188.42,55.48L188.55,59.78L188.58,60.76L192.22,201.5L192.24,201.85L193.43,223.67L193.46,224.42L195.37,268.15L195.39,268.5L196.2,279.2L196.79,277.83L196.82,277.77L197.72,275.68L197.82,277.17L197.85,277.6L199.29,301.36L199.63,300.44L199.66,300.37L200.82,297.2L201.1,298.26L201.13,298.37L202.45,306.4L202.47,307.57L205.44,404.12L205.47,404.64L206.55,408.77L206.58,408.87L207.95,416.91L207.97,417.08L208.57,421.21L208.98,419.19L209.01,419.05L210.3,408.94L210.32,408.29L214.22,309.21L214.25,308.24L216.29,248.65L216.6,253.59L216.63,254.03L219,289.72L219.03,290.04L219.41,294.95L219.72,289.36L219.75,288.87L227.16,158.52L227.4,166.4L227.42,167.33L229.82,225.74L229.85,226L230.24,229.97L230.52,226.07L230.55,225.7L235.17,154.09L235.2,153.85L237.88,130.71L237.91,130.5L240.93,106.62L240.96,106.45L242.61,98.84L242.63,98.72L243.62,90.06L243.64,89.83L245.42,81.2L245.45,81.12L246.33,76.55L246.35,76.39L248.86,59.58L249.17,62.03L249.2,62.25L250.9,85.22L250.93,85.91L252.73,165.56L252.76,167.28L255.16,269.52L255.19,269.81L256.61,285.31L256.97,284.29L257,284.22L258.16,280.95L258.29,282.48L258.31,282.81L260.04,310.03L260.07,310.76L263.4,404.98L263.43,405.17L265,413.08L265.03,413.12L265.91,414.29L266.35,413.7L266.37,413.67L267.58,410.76L267.61,410.45L269.06,393.63L269.75,393.73L269.78,393.73L270.61,393.45L270.63,393.21L270.66,392.98L273.68,353.28L273.71,352.56L277.22,254.58L277.24,253.96L279.1,227.4L279.13,227.37L280.34,224.63L280.37,224.53L281.82,215.97L281.84,215.68L283.86,188.89L283.88,188.48L285.82,170.71L285.85,170.56L286.05,169.32L286.28,172.55L286.31,172.92L287.58,191.33L288.04,187.76L288.07,187.55L293.77,135.55L293.8,135.36L296.69,113.32L296.72,113.22L297.37,107.71L297.39,107.43L300.62,83.59L300.65,83.44L303.07,70.87L303.1,70.75L305.42,58.07L305.45,58L306.2,55.96L306.25,57.84L306.28,58.94L309.87,216.8L309.89,217.52L312.97,277.55L312.99,277.55L314.08,278.21L314.1,278.35L315.73,291.38L315.75,291.99L318.03,327.78L318.05,327.9L319.14,335.62L319.16,335.87L320.79,354.94L320.82,355.33L324.79,429.4L325,428.02L325.03,427.82L326.84,406.05L326.86,405.42L328.41,357.19L328.44,356.04L330.24,294.59L330.27,294.07L334.09,216.91L334.4,223.81L334.43,224.41L336.37,260.36L336.39,260.63L337.19,269.03L337.42,264.81L337.45,264.32L340.58,200.99L340.6,200.45L344.09,146.73L344.11,146.59L344.94,142.09L345.2,144.24L345.23,144.47L346.52,155.54L346.93,155.15L346.96,155.12L348.2,153.01L348.22,152.82L350.24,136.16L350.26,135.89L357.62,75.08L357.65,75L359.2,67.45L359.22,67.16L361.99,44.37L362.01,45.03L362.04,46.01L369.61,279.7L369.63,280.09L371.31,307.27L371.93,306.09L371.96,306.04L373.12,302.31L373.15,302.12L374.39,293L374.62,295.02L374.64,295.25L376.12,312.58L376.14,313.39L380.35,416.76L380.38,417.07L381.38,420.99L381.41,421.04L382.13,422.32L382.21,421.24L382.24,420.84L384.54,389.73L384.56,389.46L385.7,372.46L385.72,371.89L388.33,311.5L388.62,319.23L388.64,319.97L389.88,355.43L390.22,346.06L390.24,345.31L396.62,185.57L396.65,185.34L403.16,129.65L403.18,129.38L405.04,118.52L405.07,118.43L405.38,117.38L405.48,119.39L405.51,119.93L406.96,149.81L407.29,149.04L407.32,148.98L408.84,143.32L408.87,143.1L413.98,97.31L414.01,97.09L415.89,83.95L415.92,83.79L420.88,50.07L420.95,50.97L420.98,51.31L422.89,82.13L422.92,82.78L424.91,162.52L424.93,164.01L427.23,245.62L427.26,245.86L429.45,264L429.48,264.16L430.59,277.11L430.61,277.66L432.81,307.86L432.84,308.01L434.85,328.64L434.88,329.74L437.1,409.94L437.12,410.53L437.95,428.86L438.65,428.48L438.67,428.47L439.58,427.3L439.6,427.11L441.49,409.49L441.51,409.1L443.14,377.54L443.17,376.83L444.97,338.95L445,338.6L445.67,329.55L446.01,334L446.03,334.35L447.22,350.67L447.43,344.43L447.45,343.6L449.83,292.72L449.86,292.51L450.92,274.61L450.94,273.99L455.05,201.28L455.07,201.18L456.52,195.47L457.06,196.18L457.09,196.21L458.07,197.55L458.2,196.58L458.22,196.37L460.19,178.34L460.21,178.02L463.8,145.98L463.83,145.86L464.73,137.79L464.76,137.46L466.44,121.6L466.46,121.51L467.88,114.93L467.91,114.76L470.21,96.48L470.23,96.25L472.04,87.92L472.07,87.8L474.24,74.04L474.26,73.77L476.12,62.83L476.15,62.77L476.82,59.96L476.85,59.67L478.68,44.02L478.71,44L479.77,43.28L479.92,43.99L479.95,44.11L481.37,54.17L481.39,56.12L484.8,245.47L484.83,245.98L486.66,274.06L486.69,274.26L488.99,302.89L489.01,303.28L490.02,306.86L490.05,306.93L490.69,310.74L490.72,311.51L493.48,390.04L493.51,390.73L494.64,404.43L494.67,404.66L495.93,410.42L495.96,410.45L496.81,411.14L496.99,410.42L497.02,410.32L498.93,399.29L498.96,399.04L501.33,361.47L501.36,360.95L502.47,351.57L502.49,351.38L503.01,347.65L503.24,350.41L503.27,350.72L504.56,366.55L504.82,361.72L504.84,361.22L506.86,315.16L506.89,314.42L509.93,228.48L509.96,227.85L511.74,194.4L511.77,194.04L513.47,176.91L513.5,176.7L516.96,143.56L517.16,145.96L517.19,146.27L518.69,168.88L518.71,169.87L520.08,221.48L520.68,217.59L520.7,217.42L521.92,207.03L521.94,206.66L529.3,116.6L529.33,116.37L533.33,90.23L533.36,90.09L534.83,77.82L534.86,77.54L535.55,70.14L535.68,75.89L535.71,77.1L538.83,182.36L538.86,182.74L540.57,212.63L540.59,213.39L543.66,276.9L543.69,277.05L545.06,287.55L545.09,288.02L546.4,311.87L546.79,310.33L546.82,310.22L547.95,305.43L548.42,306.66L548.44,306.73L549.55,311.62L549.58,312.7L552.34,394.26L552.37,394.66L553.97,411.28L554,411.53L554.95,414.24L554.98,414.28L555.7,415.36L556.01,414.49L556.04,414.42L557.41,408.16L557.43,407.69L559.89,356.53L559.91,355.91L561.41,309.65L561.43,308.78L563.45,245.17L563.89,253.76L563.91,254.27L565,275.99L565.41,270.38L565.44,270.03L568.1,220.01L568.67,222.85L568.69,222.99L569.65,227.93L570.04,226.12L570.06,226L572.88,208.45L572.9,208.21L574.79,187.28L574.81,186.85L577.96,149.93L577.99,149.78L579.39,139.13L579.41,138.83L583.65,102.19L583.67,102.1L586.26,89.59L586.28,89.42L589.82,66.91L589.85,66.67L593.18,34.41L593.2,34.34L594.44,30.63L594.6,32.11L594.62,32.37L596.07,50.72L596.1,52.37L598.91,221.4L598.94,222.85L600.05,249.64L600.07,250.13L603.17,289.49L603.2,289.66L605.11,297.1L605.14,297.17L606.2,302.63L606.22,302.77L606.94,309.61L606.97,310.48L610.17,388.01L610.2,388.16L613.01,403.61L613.04,403.74L614.59,397.02L615.21,397.59L615.24,397.62L616.14,398.48L616.55,397.92L616.58,397.89L617.74,395.22L617.77,394.61L619.78,355.26L619.81,355.06L621.1,336.98L621.12,336.1L622.34,294.77L622.96,298.42L622.98,298.58L623.89,304.12L624.17,301.62L624.2,301.38L626.01,275.3L626.03,274.62L630.68,179.2L630.71,178.9L632.95,157.13L632.98,156.91L640.37,98.4L640.39,98.08L640.96,91.41L641.63,91.78L641.66,91.79L642.48,92.24L642.61,91.57L642.64,91.43L646.33,75.57L646.36,75.47L649.85,60.86L649.87,60.69L651.24,56.76L651.27,56.72L652.12,53.99L652.14,53.84L653.33,46.88L653.75,48.48L653.77,48.59L655.68,59.18L655.71,59.38L656.43,64.99L656.9,63.76L656.92,63.69L657.98,60.8L658.01,62.65L658.03,64.73L661.34,260.28L661.36,260.61L662.66,276.46L663.3,275.58L663.33,275.55L664.18,274.39L664.28,275.36L664.31,275.61L665.88,294.65L665.91,295.54L668.24,349.47L668.26,349.64L668.98,358.17L669.01,358.95L671.77,417.47L671.8,417.79L673.48,428.65L673.5,428.3L673.53,427.9L675.36,394.68L675.39,393.89L676.6,357.82L677.25,359.75L677.28,359.83L678.39,365.49L678.41,365.8L679.68,381.14L679.88,375.62L679.91,374.91L681.28,338.97L681.95,339.06L681.98,339.07L682.78,339.18L682.8,338.63L682.83,338.04L686.47,250.83L686.5,250.71L687.43,246.53L687.71,248.37L687.74,248.54L688.98,256.64L689.16,254.32L689.18,253.98L691.2,223.71L691.22,223.22L693.62,187.45L693.78,191.25L693.81,191.89L695.2,226.05L695.61,225.99L695.64,225.99L696.78,225.32L696.8,225.05L699.26,196.24L699.28,195.89L703.96,147.4L703.98,147.31L704.78,141.98L704.81,141.68L706.8,122.43L706.82,122.27L707.99,112.13L708.01,111.79L710,95.42L710.03,95.37L710.67,94.14L711.11,94.86L711.14,94.9L712.38,98.39L712.4,98.67L715.55,134.88L715.58,135.92L718.68,258.27L718.7,258.38L720.1,266.74L720.12,267.24L722.42,296.89L722.45,296.96L723.07,298.65L723.22,297.13L723.25,296.87L724.62,283.26L724.83,287.83L724.85,288.41L726.71,337.74L726.74,338.69L728.75,399.29L728.78,399.91L729.99,414.62L730.02,414.72L730.82,418.1L731.33,417.13L731.36,417.08L732.39,414.25L732.42,413.3L734.49,350.07L734.51,349.7L736.55,331.73L736.58,331.63L737.12,326.85L737.15,326.09L740.14,239.54L740.17,239.07L742.18,208.33L742.21,208.16L743.94,199.8L743.96,199.73L744.76,197.77L745.26,198.44L745.28,198.47L746.31,199.88L746.42,199.02L746.44,198.8L748.59,177.55L748.61,177.22L752.51,137.84L752.59,139.67L752.62,140.3L755.61,224.76L755.95,221L755.97,220.71L758.69,187.15L758.71,186.81L768.01,73.05L768.09,77.46L768.11,78.95L771.14,237.81L771.78,236.14L771.81,236.07L772.66,233.86L772.71,235.22L772.74,235.93L774.62,276.29L774.65,276.31L775.91,277.73L775.94,277.87L777.31,285.15L777.72,283.68L777.75,283.59L778.86,279.66L779.06,281.48L779.09,281.71L780.8,300.33L780.82,300.79L784,360.98L784.02,361.46L787.07,400.15L787.1,400.16L788.88,400.1L788.91,400.08L789.76,398.7L789.78,398.28L793.5,352.23L793.53,352.21L794.38,350.6L794.41,349.78L797.14,268.11L797.17,267.4L800.19,212.44L800.22,211.97L802.16,183.85L802.18,183.65L805.54,156.21L805.56,155.97L809.36,119.54L809.39,119.26L810.76,110.5L810.78,110.4L814.76,89.75L814.79,89.58L817.47,74.13L817.5,73.99L819.98,59.63L820,59.36L821.68,50L821.71,49.95L822.61,46.35L822.64,46.18L825.35,22.6L825.5,27.07L825.53,27.82L827.6,98.22L827.62,99.35L829.97,217.07L830,218.45L832.94,268.69L832.97,269.29L833.9,274.67L833.92,274.75L835.22,280.01L835.24,280.15L836.43,290.87L836.46,291.49L839.81,370.91L839.84,371.24L842.24,391.16L842.27,391.29L843.84,403.37L843.87,403.57L843.95,404.18L844.51,402.48L844.54,402.4L845.75,396.54L845.78,396.24L847.05,381.6L847.54,383.87L847.56,383.99L848.6,388.77L848.72,386.23L848.75,385.71L852.86,303.37L852.88,302.7L855.62,241.92L855.65,241.89L857.94,236.98L857.97,236.55L862.54,166.35L862.72,169.74L862.75,170.22L864.12,195.87L864.51,194.53L864.53,194.44L866.86,183.48L866.88,183.33L867.6,176.05L867.63,175.71L870.83,133.33" style="vector-effect: none; fill: none; stroke: rgb(214, 39, 40); stroke-opacity: 1; stroke-width: 2px; opacity: 1;"/></g><g class="points"/><g class="text"/></g></g></g></g><path class="xlines-above crisp" d="M0,0" style="fill: none;"/><path class="ylines-above crisp" d="M0,0" style="fill: none;"/><g class="overlines-above"><path class="xy2-x crisp" d="M0,0" style="fill: none;"/><path class="xy2-y crisp" d="M0,0" style="fill: none;"/><path class="xy3-x crisp" d="M0,0" style="fill: none;"/><path class="xy3-y crisp" d="M0,0" style="fill: none;"/><path class="xy4-x crisp" d="M0,0" style="fill: none;"/><path class="xy4-y crisp" d="M0,0" style="fill: none;"/></g><g class="xaxislayer-above"><g class="xtick"><text text-anchor="middle" x="0" y="545" transform="translate(261.74,0)" style="font-family: 'Open Sans', verdana, arial, sans-serif; font-size: 12px; fill: rgb(42, 63, 95); fill-opacity: 1; white-space: pre; opacity: 1;"><tspan class="line" dy="0em" x="0" y="545">06:00</tspan><tspan class="line" dy="1.3em" x="0" y="545">Aug 4, 2016</tspan></text></g><g class="xtick"><text text-anchor="middle" x="0" y="545" style="font-family: 'Open Sans', verdana, arial, sans-serif; font-size: 12px; fill: rgb(42, 63, 95); fill-opacity: 1; white-space: pre; opacity: 1;" transform="translate(447.7,0)">08:00</text></g><g class="xtick"><text text-anchor="middle" x="0" y="545" style="font-family: 'Open Sans', verdana, arial, sans-serif; font-size: 12px; fill: rgb(42, 63, 95); fill-opacity: 1; white-space: pre; opacity: 1;" transform="translate(633.67,0)">10:00</text></g><g class="xtick"><text text-anchor="middle" x="0" y="545" style="font-family: 'Open Sans', verdana, arial, sans-serif; font-size: 12px; fill: rgb(42, 63, 95); fill-opacity: 1; white-space: pre; opacity: 1;" transform="translate(819.63,0)">12:00</text></g><g class="xtick"><text text-anchor="middle" x="0" y="545" style="font-family: 'Open Sans', verdana, arial, sans-serif; font-size: 12px; fill: rgb(42, 63, 95); fill-opacity: 1; white-space: pre; opacity: 1;" transform="translate(1005.6,0)">14:00</text></g></g><g class="yaxislayer-above"><g class="ytick"><text text-anchor="end" x="100" y="4.199999999999999" transform="translate(0,497.36)" style="font-family: 'Open Sans', verdana, arial, sans-serif; font-size: 12px; fill: rgb(31, 119, 180); fill-opacity: 1; white-space: pre; opacity: 1;">0.9M</text></g><g class="ytick"><text text-anchor="end" x="100" y="4.199999999999999" style="font-family: 'Open Sans', verdana, arial, sans-serif; font-size: 12px; fill: rgb(31, 119, 180); fill-opacity: 1; white-space: pre; opacity: 1;" transform="translate(0,424.34)">0.95M</text></g><g class="ytick"><text text-anchor="end" x="100" y="4.199999999999999" style="font-family: 'Open Sans', verdana, arial, sans-serif; font-size: 12px; fill: rgb(31, 119, 180); fill-opacity: 1; white-space: pre; opacity: 1;" transform="translate(0,351.32)">1M</text></g><g class="ytick"><text text-anchor="end" x="100" y="4.199999999999999" style="font-family: 'Open Sans', verdana, arial, sans-serif; font-size: 12px; fill: rgb(31, 119, 180); fill-opacity: 1; white-space: pre; opacity: 1;" transform="translate(0,278.28999999999996)">1.05M</text></g><g class="ytick"><text text-anchor="end" x="100" y="4.199999999999999" style="font-family: 'Open Sans', verdana, arial, sans-serif; font-size: 12px; fill: rgb(31, 119, 180); fill-opacity: 1; white-space: pre; opacity: 1;" transform="translate(0,205.26999999999998)">1.1M</text></g><g class="ytick"><text text-anchor="end" x="100" y="4.199999999999999" style="font-family: 'Open Sans', verdana, arial, sans-serif; font-size: 12px; fill: rgb(31, 119, 180); fill-opacity: 1; white-space: pre; opacity: 1;" transform="translate(0,132.24)">1.15M</text></g></g><g class="overaxes-above"><g class="xy2-x"/><g class="xy2-y"><g class="y2tick"><text text-anchor="end" x="176" y="4.199999999999999" transform="translate(0,528.12)" style="font-family: 'Open Sans', verdana, arial, sans-serif; font-size: 12px; fill: rgb(255, 127, 14); fill-opacity: 1; white-space: pre; opacity: 1;">8.6M</text></g><g class="y2tick"><text text-anchor="end" x="176" y="4.199999999999999" style="font-family: 'Open Sans', verdana, arial, sans-serif; font-size: 12px; fill: rgb(255, 127, 14); fill-opacity: 1; white-space: pre; opacity: 1;" transform="translate(0,463.81)">8.8M</text></g><g class="y2tick"><text text-anchor="end" x="176" y="4.199999999999999" style="font-family: 'Open Sans', verdana, arial, sans-serif; font-size: 12px; fill: rgb(255, 127, 14); fill-opacity: 1; white-space: pre; opacity: 1;" transform="translate(0,399.5)">9M</text></g><g class="y2tick"><text text-anchor="end" x="176" y="4.199999999999999" style="font-family: 'Open Sans', verdana, arial, sans-serif; font-size: 12px; fill: rgb(255, 127, 14); fill-opacity: 1; white-space: pre; opacity: 1;" transform="translate(0,335.19)">9.2M</text></g><g class="y2tick"><text text-anchor="end" x="176" y="4.199999999999999" style="font-family: 'Open Sans', verdana, arial, sans-serif; font-size: 12px; fill: rgb(255, 127, 14); fill-opacity: 1; white-space: pre; opacity: 1;" transform="translate(0,270.88)">9.4M</text></g><g class="y2tick"><text text-anchor="end" x="176" y="4.199999999999999" style="font-family: 'Open Sans', verdana, arial, sans-serif; font-size: 12px; fill: rgb(255, 127, 14); fill-opacity: 1; white-space: pre; opacity: 1;" transform="translate(0,206.57)">9.6M</text></g><g class="y2tick"><text text-anchor="end" x="176" y="4.199999999999999" style="font-family: 'Open Sans', verdana, arial, sans-serif; font-size: 12px; fill: rgb(255, 127, 14); fill-opacity: 1; white-space: pre; opacity: 1;" transform="translate(0,142.26)">9.8M</text></g></g><g class="xy3-x"/><g class="xy3-y"><g class="y3tick"><text text-anchor="start" x="975" y="4.199999999999999" transform="translate(0,475.53)" style="font-family: 'Open Sans', verdana, arial, sans-serif; font-size: 12px; fill: rgb(44, 160, 44); fill-opacity: 1; white-space: pre; opacity: 1;">5M</text></g><g class="y3tick"><text text-anchor="start" x="975" y="4.199999999999999" style="font-family: 'Open Sans', verdana, arial, sans-serif; font-size: 12px; fill: rgb(44, 160, 44); fill-opacity: 1; white-space: pre; opacity: 1;" transform="translate(0,417.49)">5.2M</text></g><g class="y3tick"><text text-anchor="start" x="975" y="4.199999999999999" style="font-family: 'Open Sans', verdana, arial, sans-serif; font-size: 12px; fill: rgb(44, 160, 44); fill-opacity: 1; white-space: pre; opacity: 1;" transform="translate(0,359.44)">5.4M</text></g><g class="y3tick"><text text-anchor="start" x="975" y="4.199999999999999" style="font-family: 'Open Sans', verdana, arial, sans-serif; font-size: 12px; fill: rgb(44, 160, 44); fill-opacity: 1; white-space: pre; opacity: 1;" transform="translate(0,301.4)">5.6M</text></g><g class="y3tick"><text text-anchor="start" x="975" y="4.199999999999999" style="font-family: 'Open Sans', verdana, arial, sans-serif; font-size: 12px; fill: rgb(44, 160, 44); fill-opacity: 1; white-space: pre; opacity: 1;" transform="translate(0,243.36)">5.8M</text></g><g class="y3tick"><text text-anchor="start" x="975" y="4.199999999999999" style="font-family: 'Open Sans', verdana, arial, sans-serif; font-size: 12px; fill: rgb(44, 160, 44); fill-opacity: 1; white-space: pre; opacity: 1;" transform="translate(0,185.32)">6M</text></g><g class="y3tick"><text text-anchor="start" x="975" y="4.199999999999999" style="font-family: 'Open Sans', verdana, arial, sans-serif; font-size: 12px; fill: rgb(44, 160, 44); fill-opacity: 1; white-space: pre; opacity: 1;" transform="translate(0,127.27000000000001)">6.2M</text></g></g><g class="xy4-x"/><g class="xy4-y"><g class="y4tick"><text text-anchor="start" x="1051" y="4.199999999999999" transform="translate(0,523.9)" style="font-family: 'Open Sans', verdana, arial, sans-serif; font-size: 12px; fill: rgb(214, 39, 40); fill-opacity: 1; white-space: pre; opacity: 1;">7</text></g><g class="y4tick"><text text-anchor="start" x="1051" y="4.199999999999999" style="font-family: 'Open Sans', verdana, arial, sans-serif; font-size: 12px; fill: rgb(214, 39, 40); fill-opacity: 1; white-space: pre; opacity: 1;" transform="translate(0,465.55)">8</text></g><g class="y4tick"><text text-anchor="start" x="1051" y="4.199999999999999" style="font-family: 'Open Sans', verdana, arial, sans-serif; font-size: 12px; fill: rgb(214, 39, 40); fill-opacity: 1; white-space: pre; opacity: 1;" transform="translate(0,407.2)">9</text></g><g class="y4tick"><text text-anchor="start" x="1051" y="4.199999999999999" style="font-family: 'Open Sans', verdana, arial, sans-serif; font-size: 12px; fill: rgb(214, 39, 40); fill-opacity: 1; white-space: pre; opacity: 1;" transform="translate(0,348.84)">10</text></g><g class="y4tick"><text text-anchor="start" x="1051" y="4.199999999999999" style="font-family: 'Open Sans', verdana, arial, sans-serif; font-size: 12px; fill: rgb(214, 39, 40); fill-opacity: 1; white-space: pre; opacity: 1;" transform="translate(0,290.49)">11</text></g><g class="y4tick"><text text-anchor="start" x="1051" y="4.199999999999999" style="font-family: 'Open Sans', verdana, arial, sans-serif; font-size: 12px; fill: rgb(214, 39, 40); fill-opacity: 1; white-space: pre; opacity: 1;" transform="translate(0,232.13)">12</text></g><g class="y4tick"><text text-anchor="start" x="1051" y="4.199999999999999" style="font-family: 'Open Sans', verdana, arial, sans-serif; font-size: 12px; fill: rgb(214, 39, 40); fill-opacity: 1; white-space: pre; opacity: 1;" transform="translate(0,173.78)">13</text></g><g class="y4tick"><text text-anchor="start" x="1051" y="4.199999999999999" style="font-family: 'Open Sans', verdana, arial, sans-serif; font-size: 12px; fill: rgb(214, 39, 40); fill-opacity: 1; white-space: pre; opacity: 1;" transform="translate(0,115.43)">14</text></g></g></g></g><g class="subplot xy2"/><g class="subplot xy3"/><g class="subplot xy4"/></g><g class="polarlayer"/><g class="smithlayer"/><g class="ternarylayer"/><g class="geolayer"/><g class="funnelarealayer"/><g class="pielayer"/><g class="iciclelayer"/><g class="treemaplayer"/><g class="sunburstlayer"/><g class="glimages"/><defs id="topdefs-1a4b99"><g class="clips"/><clipPath id="legend1a4b99"><rect width="471" height="29" x="0" y="0"/></clipPath></defs><g class="layer-above"><g class="imagelayer"/><g class="shapelayer"><g class="shape-group" data-index="0" clip-path="url(#clip1a4b99x)"><path data-index="0" fill-rule="evenodd" d="M179.17000000000002,532H272.15V306H179.17000000000002Z" style="opacity: 0.2; stroke: rgb(0, 0, 0); stroke-opacity: 0; fill: rgb(144, 238, 144); fill-opacity: 1; stroke-width: 0px;"/></g><g class="shape-group" data-index="1" clip-path="url(#clip1a4b99x)"><path data-index="1" fill-rule="evenodd" d="M272.15,532H970.83V306H272.15Z" style="opacity: 0.2; stroke: rgb(0, 0, 0); stroke-opacity: 0; fill: rgb(255, 0, 0); fill-opacity: 1; stroke-width: 0px;"/></g><g class="shape-group" data-index="2" clip-path="url(#clip1a4b99x)"><path data-index="2" fill-rule="evenodd" d="M179.17000000000002,306H970.83V80H179.17000000000002Z" style="opacity: 0.2; stroke: rgb(0, 0, 0); stroke-opacity: 0; fill: rgb(0, 100, 0); fill-opacity: 1; stroke-width: 0px;"/></g></g></g><g class="infolayer"><g class="legend" pointer-events="all" transform="translate(339.5,41.959999999999994)"><rect class="bg" shape-rendering="crispEdges" width="471" height="29" x="0" y="0" style="stroke: rgb(68, 68, 68); stroke-opacity: 1; fill: rgb(255, 255, 255); fill-opacity: 1; stroke-width: 0px;"/><g class="scrollbox" transform="" clip-path="url(#legend1a4b99)"><text class="legendtitletext" text-anchor="start" x="2" y="18.2" style="font-family: 'Open Sans', verdana, arial, sans-serif; font-size: 14px; fill: rgb(42, 63, 95); fill-opacity: 1; white-space: pre;">Variables:</text><g class="groups"><g class="traces" transform="translate(81.078125,14.5)" style="opacity: 1;"><text class="legendtext" text-anchor="start" x="40" y="4.680000000000001" style="font-family: 'Open Sans', verdana, arial, sans-serif; font-size: 12px; fill: rgb(42, 63, 95); fill-opacity: 1; white-space: pre;">P-MON-CKP</text><g class="layers" style="opacity: 1;"><g class="legendfill"/><g class="legendlines"><path class="js-line" d="M5,0h30" style="fill: none; stroke: rgb(31, 119, 180); stroke-opacity: 1; stroke-width: 2px;"/></g><g class="legendsymbols"><g class="legendpoints"/></g></g><rect class="legendtoggle" x="0" y="-9.5" width="113.86328125" height="19" style="fill: rgb(0, 0, 0); fill-opacity: 0;"/></g><g class="traces" transform="translate(197.44140625,14.5)" style="opacity: 1;"><text class="legendtext" text-anchor="start" x="40" y="4.680000000000001" style="font-family: 'Open Sans', verdana, arial, sans-serif; font-size: 12px; fill: rgb(42, 63, 95); fill-opacity: 1; white-space: pre;">P-PDG</text><g class="layers" style="opacity: 1;"><g class="legendfill"/><g class="legendlines"><path class="js-line" d="M5,0h30" style="fill: none; stroke: rgb(255, 127, 14); stroke-opacity: 1; stroke-width: 2px;"/></g><g class="legendsymbols"><g class="legendpoints"/></g></g><rect class="legendtoggle" x="0" y="-9.5" width="80.984375" height="19" style="fill: rgb(0, 0, 0); fill-opacity: 0;"/></g><g class="traces" transform="translate(280.92578125,14.5)" style="opacity: 1;"><text class="legendtext" text-anchor="start" x="40" y="4.680000000000001" style="font-family: 'Open Sans', verdana, arial, sans-serif; font-size: 12px; fill: rgb(42, 63, 95); fill-opacity: 1; white-space: pre;">P-TPT</text><g class="layers" style="opacity: 1;"><g class="legendfill"/><g class="legendlines"><path class="js-line" d="M5,0h30" style="fill: none; stroke: rgb(44, 160, 44); stroke-opacity: 1; stroke-width: 2px;"/></g><g class="legendsymbols"><g class="legendpoints"/></g></g><rect class="legendtoggle" x="0" y="-9.5" width="76.9375" height="19" style="fill: rgb(0, 0, 0); fill-opacity: 0;"/></g><g class="traces" transform="translate(360.36328125,14.5)" style="opacity: 1;"><text class="legendtext" text-anchor="start" x="40" y="4.680000000000001" style="font-family: 'Open Sans', verdana, arial, sans-serif; font-size: 12px; fill: rgb(42, 63, 95); fill-opacity: 1; white-space: pre;">T-JUS-CKP</text><g class="layers" style="opacity: 1;"><g class="legendfill"/><g class="legendlines"><path class="js-line" d="M5,0h30" style="fill: none; stroke: rgb(214, 39, 40); stroke-opacity: 1; stroke-width: 2px;"/></g><g class="legendsymbols"><g class="legendpoints"/></g></g><rect class="legendtoggle" x="0" y="-9.5" width="107.462890625" height="19" style="fill: rgb(0, 0, 0); fill-opacity: 0;"/></g></g></g><rect class="scrollbar" rx="20" ry="3" width="0" height="0" x="0" y="0" style="fill: rgb(128, 139, 164); fill-opacity: 1;"/></g><g class="g-gtitle"/><g class="g-xtitle"/><g class="g-ytitle"><text class="ytitle" transform="rotate(-90,42.225,306)" x="42.225" y="306" text-anchor="middle" style="opacity: 1; font-family: 'Open Sans', verdana, arial, sans-serif; font-size: 14px; fill: rgb(31, 119, 180); fill-opacity: 1; white-space: pre;">P-MON-CKP (Pa)</text></g><g class="g-y2title"><text class="y2title" transform="rotate(-90,125.85,306)" x="125.85" y="306" text-anchor="middle" style="opacity: 1; font-family: 'Open Sans', verdana, arial, sans-serif; font-size: 14px; fill: rgb(255, 127, 14); fill-opacity: 1; white-space: pre;">P-PDG (Pa)</text></g><g class="g-y3title"><text class="y3title" transform="rotate(-90,1029.05,306)" x="1029.05" y="306" text-anchor="middle" style="opacity: 1; font-family: 'Open Sans', verdana, arial, sans-serif; font-size: 14px; fill: rgb(44, 160, 44); fill-opacity: 1; white-space: pre;">P-TPT (Pa)</text></g><g class="g-y4title"><text class="y4title" transform="rotate(-90,1090.92890625,306)" x="1090.92890625" y="306" text-anchor="middle" style="opacity: 1; font-family: 'Open Sans', verdana, arial, sans-serif; font-size: 14px; fill: rgb(214, 39, 40); fill-opacity: 1; white-space: pre;">T-JUS-CKP (C)</text></g></g></svg>