<svg class="main-svg" xmlns="http://www.w3.org/2000/svg" xmlns:xlink="http://www.w3.org/1999/xlink" width="1200" height="600" style="" viewBox="0 0 1200 600"><rect x="0" y="0" width="1200" height="600" style="fill: rgb(255, 255, 255); fill-opacity: 1;"/><defs id="defs-b146c0"><g class="clips"><clipPath id="clipb146c0xyplot" class="plotclip"><rect width="950" height="452"/></clipPath><clipPath id="clipb146c0xy2plot" class="plotclip"><rect width="950" height="452"/></clipPath><clipPath id="clipb146c0xy3plot" class="plotclip"><rect width="950" height="452"/></clipPath><clipPath id="clipb146c0xy4plot" class="plotclip"><rect width="950" height="452"/></clipPath><clipPath class="axesclip" id="clipb146c0x"><rect x="100" y="0" width="950" height="600"/></clipPath><clipPath class="axesclip" id="clipb146c0y"><rect x="0" y="80" width="1200" height="452"/></clipPath><clipPath class="axesclip" id="clipb146c0xy"><rect x="100" y="80" width="950" height="452"/></clipPath><clipPath class="axesclip" id="clipb146c0y2"><rect x="0" y="80" width="1200" height="452"/></clipPath><clipPath class="axesclip" id="clipb146c0xy2"><rect x="100" y="80" width="950" height="452"/></clipPath><clipPath class="axesclip" id="clipb146c0y3"><rect x="0" y="80" width="1200" height="452"/></clipPath><clipPath class="axesclip" id="clipb146c0xy3"><rect x="100" y="80" width="950" height="452"/></clipPath><clipPath class="axesclip" id="clipb146c0y4"><rect x="0" y="80" width="1200" height="452"/></clipPath><clipPath class="axesclip" id="clipb146c0xy4"><rect x="100" y="80" width="950" height="452"/></clipPath></g><g class="gradients"/><g class="patterns"/></defs><g class="bglayer"/><g class="layer-below"><g class="imagelayer"/><g class="shapelayer"/></g><g class="cartesianlayer"><g class="subplot xy"><g class="layer-subplot"><g class="shapelayer"/><g class="imagelayer"/></g><g class="minor-gridlayer"><g class="x"/><g class="y"/><g class="y2"/><g class="y3"/><g class="y4"/></g><g class="gridlayer"><g class="x"><path class="xgrid crisp" transform="translate(176.23000000000002,0)" d="M0,80v452" style="stroke: rgb(255, 255, 255); stroke-opacity: 1; stroke-width: 1px;"/><path class="xgrid crisp" transform="translate(308.78999999999996,0)" d="M0,80v452" style="stroke: rgb(255, 255, 255); stroke-opacity: 1; stroke-width: 1px;"/><path class="xgrid crisp" transform="translate(441.35,0)" d="M0,80v452" style="stroke: rgb(255, 255, 255); stroke-opacity: 1; stroke-width: 1px;"/><path class="xgrid crisp" transform="translate(573.9100000000001,0)" d="M0,80v452" style="stroke: rgb(255, 255, 255); stroke-opacity: 1; stroke-width: 1px;"/><path class="xgrid crisp" transform="translate(706.47,0)" d="M0,80v452" style="stroke: rgb(255, 255, 255); stroke-opacity: 1; stroke-width: 1px;"/><path class="xgrid crisp" transform="translate(839.02,0)" d="M0,80v452" style="stroke: rgb(255, 255, 255); stroke-opacity: 1; stroke-width: 1px;"/><path class="xgrid crisp" transform="translate(971.58,0)" d="M0,80v452" style="stroke: rgb(255, 255, 255); stroke-opacity: 1; stroke-width: 1px;"/></g><g class="y"><path class="ygrid crisp" transform="translate(0,428.04)" d="M100,0h950" style="stroke: rgb(255, 255, 255); stroke-opacity: 1; stroke-width: 1px;"/><path class="ygrid crisp" transform="translate(0,346.68)" d="M100,0h950" style="stroke: rgb(255, 255, 255); stroke-opacity: 1; stroke-width: 1px;"/><path class="ygrid crisp" transform="translate(0,265.32)" d="M100,0h950" style="stroke: rgb(255, 255, 255); stroke-opacity: 1; stroke-width: 1px;"/><path class="ygrid crisp" transform="translate(0,183.95999999999998)" d="M100,0h950" style="stroke: rgb(255, 255, 255); stroke-opacity: 1; stroke-width: 1px;"/><path class="ygrid crisp" transform="translate(0,102.6)" d="M100,0h950" style="stroke: rgb(255, 255, 255); stroke-opacity: 1; stroke-width: 1px;"/></g><g class="y2"><path class="y2grid crisp" transform="translate(0,428.04)" d="M100,0h950" style="stroke: rgb(255, 255, 255); stroke-opacity: 1; stroke-width: 1px;"/><path class="y2grid crisp" transform="translate(0,346.68)" d="M100,0h950" style="stroke: rgb(255, 255, 255); stroke-opacity: 1; stroke-width: 1px;"/><path class="y2grid crisp" transform="translate(0,265.32)" d="M100,0h950" style="stroke: rgb(255, 255, 255); stroke-opacity: 1; stroke-width: 1px;"/><path class="y2grid crisp" transform="translate(0,183.95999999999998)" d="M100,0h950" style="stroke: rgb(255, 255, 255); stroke-opacity: 1; stroke-width: 1px;"/><path class="y2grid crisp" transform="translate(0,102.6)" d="M100,0h950" style="stroke: rgb(255, 255, 255); stroke-opacity: 1; stroke-width: 1px;"/></g><g class="y3"><path class="y3grid crisp" transform="translate(0,428.04)" d="M100,0h950" style="stroke: rgb(255, 255, 255); stroke-opacity: 1; stroke-width: 1px;"/><path class="y3grid crisp" transform="translate(0,346.68)" d="M100,0h950" style="stroke: rgb(255, 255, 255); stroke-opacity: 1; stroke-width: 1px;"/><path class="y3grid crisp" transform="translate(0,265.32)" d="M100,0h950" style="stroke: rgb(255, 255, 255); stroke-opacity: 1; stroke-width: 1px;"/><path class="y3grid crisp" transform="translate(0,183.95999999999998)" d="M100,0h950" style="stroke: rgb(255, 255, 255); stroke-opacity: 1; stroke-width: 1px;"/><path class="y3grid crisp" transform="translate(0,102.6)" d="M100,0h950" style="stroke: rgb(255, 255, 255); stroke-opacity: 1; stroke-width: 1px;"/></g><g class="y4"><path class="y4grid crisp" transform="translate(0,449.55)" d="M100,0h950" style="stroke: rgb(255, 255, 255); stroke-opacity: 1; stroke-width: 1px;"/><path class="y4grid crisp" transform="translate(0,389.7)" d="M100,0h950" style="stroke: rgb(255, 255, 255); stroke-opacity: 1; stroke-width: 1px;"/><path class="y4grid crisp" transform="translate(0,329.86)" d="M100,0h950" style="stroke: rgb(255, 255, 255); stroke-opacity: 1; stroke-width: 1px;"/><path class="y4grid crisp" transform="translate(0,270.01)" d="M100,0h950" style="stroke: rgb(255, 255, 255); stroke-opacity: 1; stroke-width: 1px;"/><path class="y4grid crisp" transform="translate(0,210.16)" d="M100,0h950" style="stroke: rgb(255, 255, 255); stroke-opacity: 1; stroke-width: 1px;"/><path class="y4grid crisp" transform="translate(0,150.31)" d="M100,0h950" style="stroke: rgb(255, 255, 255); stroke-opacity: 1; stroke-width: 1px;"/><path class="y4grid crisp" transform="translate(0,90.46000000000001)" d="M100,0h950" style="stroke: rgb(255, 255, 255); stroke-opacity: 1; stroke-width: 1px;"/></g></g><g class="zerolinelayer"><path class="yzl zl crisp" transform="translate(0,509.4)" d="M100,0h950" style="stroke: rgb(255, 255, 255); stroke-opacity: 1; stroke-width: 2px;"/><path class="y2zl zl crisp" transform="translate(0,509.4)" d="M100,0h950" style="stroke: rgb(255, 255, 255); stroke-opacity: 1; stroke-width: 2px;"/><path class="y3zl zl crisp" transform="translate(0,509.4)" d="M100,0h950" style="stroke: rgb(255, 255, 255); stroke-opacity: 1; stroke-width: 2px;"/><path class="y4zl zl crisp" transform="translate(0,509.4)" d="M100,0h950" style="stroke: rgb(255, 255, 255); stroke-opacity: 1; stroke-width: 2px;"/></g><g class="layer-between"><g class="shapelayer"/><g class="imagelayer"/></g><path class="xlines-below"/><path class="ylines-below"/><g class="overlines-below"><path class="xy2-x"/><path class="xy2-y"/><path class="xy3-x"/><path class="xy3-y"/><path class="xy4-x"/><path class="xy4-y"/></g><g class="xaxislayer-below"/><g class="yaxislayer-below"/><g class="overaxes-below"><g class="xy2-x"/><g class="xy2-y"/><g class="xy3-x"/><g class="xy3-y"/><g class="xy4-x"/><g class="xy4-y"/></g><g class="overplot"><g class="xy" transform="translate(100,80)" clip-path="url(#clipb146c0xyplot)"><g class="scatterlayer mlayer"><g class="trace scatter traced2e4ce" style="stroke-miterlimit: 2; opacity: 1;"><g class="fills"/><g class="errorbars"/><g class="lines"><path class="js-line" d="M79.17,22.6L381.14,22.6L381.15,24.75L382.72,265.32L382.74,265.35L384.16,266.64L384.17,266.64L396.04,266.68L396.05,266.68L440.68,267.34L440.69,267.47L441.36,277.62L441.37,279.44L442.7,387.16L442.71,387.24L443.64,388.69L443.65,388.69L455.37,388.72L455.39,388.72L489.24,389.47L489.25,389.7L491.43,429.33L491.45,429.33L504.14,429.4L504.15,429.4L520.89,428.7L520.9,428.39L524.46,376.68L524.48,376.66L524.7,383.45L524.71,384.01L526.24,428.76L526.26,428.78L527.81,429.4L527.83,429.4L608.58,428.66L608.59,428.53L610.77,409.09L610.79,409.09L622.54,408.38L622.56,408.2L624.25,368.61L624.26,368.16L625.66,347.51L625.67,347.47L626.3,342.92L626.31,342.63L627.58,327.83L627.59,327.81L628.41,327.09L628.42,326.8L630.07,307.46L630.08,307.46L634.4,307.36L634.41,307.36L635.03,307.9L635.04,308.37L637.46,388.34L637.47,388.35L638.1,389.67L638.11,389.76L639.34,406.43L639.35,406.67L640.19,409.02L640.21,409.02L651.22,409.06L651.23,408.9L654.31,348.12L654.32,348.11L655.65,347.67L655.66,347.09L657.08,307.85L657.1,307.75L658.99,287.2L659,287.2L660.07,286.39L660.08,285.87L662.3,209.37L662.31,209.31L663.76,205.66L663.77,205.66L667.42,205.71L667.43,206.42L669.01,265.91L669.03,265.93L670.63,266.68L670.65,266.68L692.46,266.68L692.47,267.99L694,387.33L694.02,387.35L695.48,388.72L695.49,388.72L696.94,388.07L696.95,387.92L698.02,364.22L698.03,363.73L699.08,348.18L699.1,348.17L703.85,348.04L703.86,348.04L715.3,347.46L715.31,346.83L716.67,307.85L716.69,307.8L717.54,307.37L717.56,307.37L723.49,306.65L723.5,306.55L725.51,295.21L725.52,295.21L726.42,293.86L726.43,293.74L727.88,287.04L727.89,287.04L729.35,287.65L729.36,287.76L730.98,295.1L731,295.1L737.51,295.16L737.53,295.16L739.63,294.43L739.64,294.18L741.47,268.06L741.48,268.02L741.8,266.82L741.95,269.07L741.96,269.26L742.53,278.15L743.09,276.54L743.1,276.51L744.19,272.1L744.2,271.92L745.09,256.43L745.1,256.16L746.36,242.63L746.38,242.46L748.14,226.19L748.16,226.18L749.87,226L749.89,226L760.33,225.3L760.34,225.23L761.15,217.43L761.17,217.18L762.34,205.78L762.36,205.77L764.01,204.81L764.03,204.72L765.22,189L765.23,188.76L767.79,144.37L767.81,144.27L768.95,127.16L768.96,126.9L769.88,122.66L769.89,122.45L772,103.98L772.02,103.98L784.36,103.96L784.38,103.96L785.28,103.25L785.3,103.02L786.77,56.84L786.78,56.31L788.14,23.86L788.16,23.8L789.06,22.75L789.08,22.75L792.76,22.6L792.77,22.6L819.12,22.6L819.14,24.06L820.63,183.96L820.65,183.98L822.12,185.27L822.13,185.27L834.04,185.32L834.05,185.32L870.83,185.32" style="vector-effect: none; fill: none; stroke: rgb(31, 119, 180); stroke-opacity: 1; stroke-width: 2px; opacity: 1;"/></g><g class="points"/><g class="text"/></g></g></g><g class="xy2" transform="translate(100,80)" clip-path="url(#clipb146c0xy2plot)"><g class="scatterlayer mlayer"><g class="trace scatter traceb10c67" style="stroke-miterlimit: 2; opacity: 1;"><g class="fills"/><g class="errorbars"/><g class="lines"><path class="js-line" d="M79.17,22.6L382.61,22.6L382.63,429.4L484.05,429.4L484.06,22.6L870.83,22.6" style="vector-effect: none; fill: none; stroke: rgb(255, 127, 14); stroke-opacity: 1; stroke-width: 2px; opacity: 1;"/></g><g class="points"/><g class="text"/></g></g></g><g class="xy3" transform="translate(100,80)" clip-path="url(#clipb146c0xy3plot)"><g class="scatterlayer mlayer"><g class="trace scatter trace762eaf" style="stroke-miterlimit: 2; opacity: 1;"><g class="fills"/><g class="errorbars"/><g class="lines"><path class="js-line" d="M79.17,22.6L386.3,22.6L386.31,429.4L694.67,429.4L694.68,22.6L870.83,22.6" style="vector-effect: none; fill: none; stroke: rgb(44, 160, 44); stroke-opacity: 1; stroke-width: 2px; opacity: 1;"/></g><g class="points"/><g class="text"/></g></g></g><g class="xy4" transform="translate(100,80)" clip-path="url(#clipb146c0xy4plot)"><g class="scatterlayer mlayer"><g class="trace scatter trace837c7f" style="stroke-miterlimit: 2; opacity: 1;"><g class="fills"/><g class="errorbars"/><g class="lines"><path class="js-line" d="M79.17,47.21L84.03,46.79L84.04,46.79L91.93,47L91.94,47.01L94.42,47.52L94.44,47.51L96.47,47.5L96.49,47.5L101.49,47.09L101.51,47.08L109.42,46.78L109.43,46.79L114.79,46.75L114.8,46.75L123.24,46.81L123.25,46.8L125.98,47.01L125.99,47.01L138.31,46.94L138.33,46.94L143.08,47.08L143.09,47.07L147.61,46.91L147.62,46.91L151.79,47.04L151.8,47.03L156.71,46.76L156.73,46.76L158.84,46.98L158.85,46.98L160.78,47.12L160.79,47.12L162.38,47.04L162.4,47.04L172.95,47.39L172.96,47.4L176.73,47.17L176.74,47.16L179.87,47.04L179.89,47.05L181.19,46.97L181.2,46.97L183.78,47.21L183.79,47.21L189.13,46.82L189.14,46.81L191.41,47.24L191.42,47.24L194.93,47.18L194.95,47.17L206.08,47.1L206.09,47.11L208.51,46.86L208.52,46.85L210.5,46.86L210.51,46.86L212.96,46.68L212.98,46.68L214.44,46.87L214.45,46.88L217.51,47.3L217.52,47.3L223.21,46.95L223.23,46.93L224.85,46.37L224.86,46.37L228.76,47.64L228.77,47.63L244.86,46.75L244.88,46.75L265.1,46.72L265.12,46.71L275.03,46.83L275.05,46.83L284.69,47.34L284.71,47.33L306.32,47.45L306.33,47.46L311.18,47.37L311.19,47.36L313.21,47.44L313.22,47.45L314.73,47.38L314.74,47.37L316.45,47.69L316.46,47.69L319.02,47.62L319.04,47.62L325.36,47.58L325.37,47.58L330.87,47.56L330.88,47.56L338.29,47.32L338.31,47.32L349.68,47.35L349.7,47.35L357.53,47.62L357.54,47.61L365.27,48.06L365.28,48.05L373.16,47.5L373.18,47.5L381.46,47.79L381.47,47.78L382.72,46.15L382.74,46.08L384.8,28.96L384.81,28.85L386.3,24.24L386.32,24.28L386.33,24.31L387.09,27L387.11,27.28L394.8,239.16L394.81,239.35L396.9,264.95L396.91,265.07L401.43,297.43L401.44,297.49L406.2,317.58L406.22,317.58L408.45,318.32L408.46,318.47L410.3,329.66L410.32,329.69L415.59,340.89L415.61,340.91L420.72,348.9L420.74,348.92L426.84,356.18L426.85,356.19L434.5,362.79L434.51,362.79L439.47,365.95L439.48,365.95L446.25,369.24L446.27,369.25L456.96,373.02L456.97,373.02L457.53,373.02L457.55,429.4L458.26,429.4L458.27,373.45L473.42,376.73L473.43,376.73L484.52,378.19L484.54,378.19L503.43,379.8L503.44,379.8L530.53,380.86L530.54,380.86L547.51,381.24L547.53,381.24L650.28,381.99L650.3,382L693.22,382.38L693.23,382.59L693.93,394.92L694.22,388.06L694.24,387.77L695.99,317.73L696,316.9L696.52,264.35L696.53,262.95L698.43,98.72L698.45,98.14L699.96,54.72L699.97,54.63L702.03,42.11L702.04,42.13L703.5,47.54L703.68,47L703.69,46.96L705.6,43.1L705.61,43.08L706.34,43.33L706.35,43.34L707.21,45.13L707.22,45.16L709.48,49.86L709.55,49.83L709.57,49.83L711.32,48.52L711.33,48.5L713.67,47.05L713.68,47.05L714.84,47.96L714.86,47.97L716.45,51.27L716.46,51.3L721.07,67.45L721.08,67.51L725.31,82.22L725.33,82.24L726.6,83.04L726.61,83.03L727.98,81.69L727.99,81.67L732.56,74.24L732.59,74.26L732.6,74.27L734.07,75.84L734.08,75.86L735.37,76.25L735.38,76.24L735.39,76.23L737.15,73.8L737.16,73.78L738.96,72.27L738.97,72.27L742.98,70.71L742.99,70.7L744.15,69.44L744.17,69.42L745.98,67.97L746,67.97L746.85,68.77L746.87,68.79L748.35,69.4L748.36,69.39L749.47,67.48L749.48,67.45L752.35,62.16L752.37,62.15L754.5,59.41L754.51,59.38L766.63,35.92L766.64,35.91L768.85,34.41L768.86,34.41L772.62,33.94L772.63,33.94L774.31,33.78L774.32,33.76L776.72,31.43L776.73,31.43L778.95,31.34L778.96,31.33L781.18,30.9L781.2,30.9L783.76,32.31L783.77,32.32L787.79,30.23L787.8,30.21L791.05,28.33L791.07,28.33L798.18,28.13L798.2,28.14L800.47,29.06L800.48,29.06L803.13,28.14L803.14,28.13L806.22,27.89L806.24,27.89L807.86,27.04L807.87,27.03L809.81,26.26L809.82,26.26L812,25.81L812.02,25.8L814.62,25.07L814.63,25.07L825.75,22.92L825.76,22.93L830.5,24.89L830.51,24.9L833.89,26.82L833.9,26.82L836.42,27.25L836.43,27.25L842,26.16L842.01,26.15L850.32,23.1L850.34,23.1L854.77,23.85L854.78,23.86L863.37,25.39L863.38,25.38L870.15,23.27L870.16,23.26L870.83,23.07" style="vector-effect: none; fill: none; stroke: rgb(214, 39, 40); stroke-opacity: 1; stroke-width: 2px; opacity: 1;"/></g><g class="points"/><g class="text"/></g></g></g></g><path class="xlines-above crisp" d="M0,0" style="fill: none;"/><path class="ylines-above crisp" d="M0,0" style="fill: none;"/><g class="overlines-above"><path class="xy2-x crisp" d="M0,0" style="fill: none;"/><path class="xy2-y crisp" d="M0,0" style="fill: none;"/><path class="xy3-x crisp" d="M0,0" style="fill: none;"/><path class="xy3-y crisp" d="M0,0" style="fill: none;"/><path class="xy4-x crisp" d="M0,0" style="fill: none;"/><path class="xy4-y crisp" d="M0,0" style="fill: none;"/></g><g class="xaxislayer-above"><g class="xtick"><text text-anchor="middle" x="0" y="545" transform="translate(176.23000000000002,0)" style="font-family: 'Open Sans', verdana, arial, sans-serif; font-size: 12px; fill: rgb(42, 63, 95); fill-opacity: 1; white-space: pre; opacity: 1;"><tspan class="line" dy="0em" x="0" y="545">09:00</tspan><tspan class="line" dy="1.3em" x="0" y="545">Mar 16, 2015</tspan></text></g><g class="xtick"><text text-anchor="middle" x="0" y="545" style="font-family: 'Open Sans', verdana, arial, sans-serif; font-size: 12px; fill: rgb(42, 63, 95); fill-opacity: 1; white-space: pre; opacity: 1;" transform="translate(308.78999999999996,0)">12:00</text></g><g class="xtick"><text text-anchor="middle" x="0" y="545" style="font-family: 'Open Sans', verdana, arial, sans-serif; font-size: 12px; fill: rgb(42, 63, 95); fill-opacity: 1; white-space: pre; opacity: 1;" transform="translate(441.35,0)">15:00</text></g><g class="xtick"><text text-anchor="middle" x="0" y="545" style="font-family: 'Open Sans', verdana, arial, sans-serif; font-size: 12px; fill: rgb(42, 63, 95); fill-opacity: 1; white-space: pre; opacity: 1;" transform="translate(573.9100000000001,0)">18:00</text></g><g class="xtick"><text text-anchor="middle" x="0" y="545" style="font-family: 'Open Sans', verdana, arial, sans-serif; font-size: 12px; fill: rgb(42, 63, 95); fill-opacity: 1; white-space: pre; opacity: 1;" transform="translate(706.47,0)">21:00</text></g><g class="xtick"><text text-anchor="middle" x="0" y="545" style="font-family: 'Open Sans', verdana, arial, sans-serif; font-size: 12px; fill: rgb(42, 63, 95); fill-opacity: 1; white-space: pre; opacity: 1;" transform="translate(839.02,0)"><tspan class="line" dy="0em" x="0" y="545">00:00</tspan><tspan class="line" dy="1.3em" x="0" y="545">Mar 17, 2015</tspan></text></g><g class="xtick"><text text-anchor="middle" x="0" y="545" style="font-family: 'Open Sans', verdana, arial, sans-serif; font-size: 12px; fill: rgb(42, 63, 95); fill-opacity: 1; white-space: pre; opacity: 1;" transform="translate(971.58,0)">03:00</text></g></g><g class="yaxislayer-above"><g class="ytick"><text text-anchor="end" x="100" y="4.199999999999999" transform="translate(0,509.4)" style="font-family: 'Open Sans', verdana, arial, sans-serif; font-size: 12px; fill: rgb(31, 119, 180); fill-opacity: 1; white-space: pre; opacity: 1;">0</text></g><g class="ytick"><text text-anchor="end" x="100" y="4.199999999999999" style="font-family: 'Open Sans', verdana, arial, sans-serif; font-size: 12px; fill: rgb(31, 119, 180); fill-opacity: 1; white-space: pre; opacity: 1;" transform="translate(0,428.04)">20</text></g><g class="ytick"><text text-anchor="end" x="100" y="4.199999999999999" style="font-family: 'Open Sans', verdana, arial, sans-serif; font-size: 12px; fill: rgb(31, 119, 180); fill-opacity: 1; white-space: pre; opacity: 1;" transform="translate(0,346.68)">40</text></g><g class="ytick"><text text-anchor="end" x="100" y="4.199999999999999" style="font-family: 'Open Sans', verdana, arial, sans-serif; font-size: 12px; fill: rgb(31, 119, 180); fill-opacity: 1; white-space: pre; opacity: 1;" transform="translate(0,265.32)">60</text></g><g class="ytick"><text text-anchor="end" x="100" y="4.199999999999999" style="font-family: 'Open Sans', verdana, arial, sans-serif; font-size: 12px; fill: rgb(31, 119, 180); fill-opacity: 1; white-space: pre; opacity: 1;" transform="translate(0,183.95999999999998)">80</text></g><g class="ytick"><text text-anchor="end" x="100" y="4.199999999999999" style="font-family: 'Open Sans', verdana, arial, sans-serif; font-size: 12px; fill: rgb(31, 119, 180); fill-opacity: 1; white-space: pre; opacity: 1;" transform="translate(0,102.6)">100</text></g></g><g class="overaxes-above"><g class="xy2-x"/><g class="xy2-y"><g class="y2tick"><text text-anchor="end" x="176" y="4.199999999999999" transform="translate(0,509.4)" style="font-family: 'Open Sans', verdana, arial, sans-serif; font-size: 12px; fill: rgb(255, 127, 14); fill-opacity: 1; white-space: pre; opacity: 1;">0</text></g><g class="y2tick"><text text-anchor="end" x="176" y="4.199999999999999" style="font-family: 'Open Sans', verdana, arial, sans-serif; font-size: 12px; fill: rgb(255, 127, 14); fill-opacity: 1; white-space: pre; opacity: 1;" transform="translate(0,428.04)">0.2</text></g><g class="y2tick"><text text-anchor="end" x="176" y="4.199999999999999" style="font-family: 'Open Sans', verdana, arial, sans-serif; font-size: 12px; fill: rgb(255, 127, 14); fill-opacity: 1; white-space: pre; opacity: 1;" transform="translate(0,346.68)">0.4</text></g><g class="y2tick"><text text-anchor="end" x="176" y="4.199999999999999" style="font-family: 'Open Sans', verdana, arial, sans-serif; font-size: 12px; fill: rgb(255, 127, 14); fill-opacity: 1; white-space: pre; opacity: 1;" transform="translate(0,265.32)">0.6</text></g><g class="y2tick"><text text-anchor="end" x="176" y="4.199999999999999" style="font-family: 'Open Sans', verdana, arial, sans-serif; font-size: 12px; fill: rgb(255, 127, 14); fill-opacity: 1; white-space: pre; opacity: 1;" transform="translate(0,183.95999999999998)">0.8</text></g><g class="y2tick"><text text-anchor="end" x="176" y="4.199999999999999" style="font-family: 'Open Sans', verdana, arial, sans-serif; font-size: 12px; fill: rgb(255, 127, 14); fill-opacity: 1; white-space: pre; opacity: 1;" transform="translate(0,102.6)">1</text></g></g><g class="xy3-x"/><g class="xy3-y"><g class="y3tick"><text text-anchor="start" x="975" y="4.199999999999999" transform="translate(0,509.4)" style="font-family: 'Open Sans', verdana, arial, sans-serif; font-size: 12px; fill: rgb(44, 160, 44); fill-opacity: 1; white-space: pre; opacity: 1;">0</text></g><g class="y3tick"><text text-anchor="start" x="975" y="4.199999999999999" style="font-family: 'Open Sans', verdana, arial, sans-serif; font-size: 12px; fill: rgb(44, 160, 44); fill-opacity: 1; white-space: pre; opacity: 1;" transform="translate(0,428.04)">0.2</text></g><g class="y3tick"><text text-anchor="start" x="975" y="4.199999999999999" style="font-family: 'Open Sans', verdana, arial, sans-serif; font-size: 12px; fill: rgb(44, 160, 44); fill-opacity: 1; white-space: pre; opacity: 1;" transform="translate(0,346.68)">0.4</text></g><g class="y3tick"><text text-anchor="start" x="975" y="4.199999999999999" style="font-family: 'Open Sans', verdana, arial, sans-serif; font-size: 12px; fill: rgb(44, 160, 44); fill-opacity: 1; white-space: pre; opacity: 1;" transform="translate(0,265.32)">0.6</text></g><g class="y3tick"><text text-anchor="start" x="975" y="4.199999999999999" style="font-family: 'Open Sans', verdana, arial, sans-serif; font-size: 12px; fill: rgb(44, 160, 44); fill-opacity: 1; white-space: pre; opacity: 1;" transform="translate(0,183.95999999999998)">0.8</text></g><g class="y3tick"><text text-anchor="start" x="975" y="4.199999999999999" style="font-family: 'Open Sans', verdana, arial, sans-serif; font-size: 12px; fill: rgb(44, 160, 44); fill-opacity: 1; white-space: pre; opacity: 1;" transform="translate(0,102.6)">1</text></g></g><g class="xy4-x"/><g class="xy4-y"><g class="y4tick"><text text-anchor="start" x="1051" y="4.199999999999999" transform="translate(0,509.4)" style="font-family: 'Open Sans', verdana, arial, sans-serif; font-size: 12px; fill: rgb(214, 39, 40); fill-opacity: 1; white-space: pre; opacity: 1;">0</text></g><g class="y4tick"><text text-anchor="start" x="1051" y="4.199999999999999" style="font-family: 'Open Sans', verdana, arial, sans-serif; font-size: 12px; fill: rgb(214, 39, 40); fill-opacity: 1; white-space: pre; opacity: 1;" transform="translate(0,449.55)">5</text></g><g class="y4tick"><text text-anchor="start" x="1051" y="4.199999999999999" style="font-family: 'Open Sans', verdana, arial, sans-serif; font-size: 12px; fill: rgb(214, 39, 40); fill-opacity: 1; white-space: pre; opacity: 1;" transform="translate(0,389.7)">10</text></g><g class="y4tick"><text text-anchor="start" x="1051" y="4.199999999999999" style="font-family: 'Open Sans', verdana, arial, sans-serif; font-size: 12px; fill: rgb(214, 39, 40); fill-opacity: 1; white-space: pre; opacity: 1;" transform="translate(0,329.86)">15</text></g><g class="y4tick"><text text-anchor="start" x="1051" y="4.199999999999999" style="font-family: 'Open Sans', verdana, arial, sans-serif; font-size: 12px; fill: rgb(214, 39, 40); fill-opacity: 1; white-space: pre; opacity: 1;" transform="translate(0,270.01)">20</text></g><g class="y4tick"><text text-anchor="start" x="1051" y="4.199999999999999" style="font-family: 'Open Sans', verdana, arial, sans-serif; font-size: 12px; fill: rgb(214, 39, 40); fill-opacity: 1; white-space: pre; opacity: 1;" transform="translate(0,210.16)">25</text></g><g class="y4tick"><text text-anchor="start" x="1051" y="4.199999999999999" style="font-family: 'Open Sans', verdana, arial, sans-serif; font-size: 12px; fill: rgb(214, 39, 40); fill-opacity: 1; white-space: pre; opacity: 1;" transform="translate(0,150.31)">30</text></g><g class="y4tick"><text text-anchor="start" x="1051" y="4.199999999999999" style="font-family: 'Open Sans', verdana, arial, sans-serif; font-size: 12px; fill: rgb(214, 39, 40); fill-opacity: 1; white-space: pre; opacity: 1;" transform="translate(0,90.46000000000001)">35</text></g></g></g></g><g class="subplot xy2"/><g class="subplot xy3"/><g class="subplot xy4"/></g><g class="polarlayer"/><g class="smithlayer"/><g class="ternarylayer"/><g class="geolayer"/><g class="funnelarealayer"/><g class="pielayer"/><g class="iciclelayer"/><g class="treemaplayer"/><g class="sunburstlayer"/><g class="glimages"/><defs id="topdefs-b146c0"><g class="clips"/><clipPath id="legendb146c0"><rect width="527" height="29" x="0" y="0"/></clipPath></defs><g class="layer-above"><g class="imagelayer"/><g class="shapelayer"><g class="shape-group" data-index="0" clip-path="url(#clipb146c0x)"><path data-index="0" fill-rule="evenodd" d="M179.17000000000002,532H482.48V306H179.17000000000002Z" style="opacity: 0.2; stroke: rgb(0, 0, 0); stroke-opacity: 0; fill: rgb(144, 238, 144); fill-opacity: 1; stroke-width: 0px;"/></g><g class="shape-group" data-index="1" clip-path="url(#clipb146c0x)"><path data-index="1" fill-rule="evenodd" d="M482.48,532H794.1V306H482.48Z" style="opacity: 0.2; stroke: rgb(0, 0, 0); stroke-opacity: 0; fill: rgb(255, 255, 0); fill-opacity: 1; stroke-width: 0px;"/></g><g class="shape-group" data-index="2" clip-path="url(#clipb146c0x)"><path data-index="2" fill-rule="evenodd" d="M794.1,532H970.83V306H794.1Z" style="opacity: 0.2; stroke: rgb(0, 0, 0); stroke-opacity: 0; fill: rgb(144, 238, 144); fill-opacity: 1; stroke-width: 0px;"/></g><g class="shape-group" data-index="3" clip-path="url(#clipb146c0x)"><path data-index="3" fill-rule="evenodd" d="M179.17000000000002,306H482.48V80H179.17000000000002Z" style="opacity: 0.2; stroke: rgb(0, 0, 0); stroke-opacity: 0; fill: rgb(0, 100, 0); fill-opacity: 1; stroke-width: 0px;"/></g><g class="shape-group" data-index="4" clip-path="url(#clipb146c0x)"><path data-index="4" fill-rule="evenodd" d="M482.48,306H708.47V80H482.48Z" style="opacity: 0.2; stroke: rgb(0, 0, 0); stroke-opacity: 0; fill: rgb(128, 128, 128); fill-opacity: 1; stroke-width: 0px;"/></g><g class="shape-group" data-index="5" clip-path="url(#clipb146c0x)"><path data-index="5" fill-rule="evenodd" d="M708.47,306H760.18V80H708.47Z" style="opacity: 0.2; stroke: rgb(0, 0, 0); stroke-opacity: 0; fill: rgb(250, 128, 114); fill-opacity: 1; stroke-width: 0px;"/></g><g class="shape-group" data-index="6" clip-path="url(#clipb146c0x)"><path data-index="6" fill-rule="evenodd" d="M760.18,306H794.1V80H760.18Z" style="opacity: 0.2; stroke: rgb(0, 0, 0); stroke-opacity: 0; fill: rgb(128, 128, 128); fill-opacity: 1; stroke-width: 0px;"/></g><g class="shape-group" data-index="7" clip-path="url(#clipb146c0x)"><path data-index="7" fill-rule="evenodd" d="M794.1,306H970.83V80H794.1Z" style="opacity: 0.2; stroke: rgb(0, 0, 0); stroke-opacity: 0; fill: rgb(255, 0, 255); fill-opacity: 1; stroke-width: 0px;"/></g></g></g><g class="infolayer"><g class="legend" pointer-events="all" transform="translate(311.5,41.959999999999994)"><rect class="bg" shape-rendering="crispEdges" width="527" height="29" x="0" y="0" style="stroke: rgb(68, 68, 68); stroke-opacity: 1; fill: rgb(255, 255, 255); fill-opacity: 1; stroke-width: 0px;"/><g class="scrollbox" transform="" clip-path="url(#legendb146c0)"><text class="legendtitletext" text-anchor="start" x="2" y="18.2" style="font-family: 'Open Sans', verdana, arial, sans-serif; font-size: 14px; fill: rgb(42, 63, 95); fill-opacity: 1; white-space: pre;">Variables:</text><g class="groups"><g class="traces" transform="translate(81.078125,14.5)" style="opacity: 1;"><text class="legendtext" text-anchor="start" x="40" y="4.680000000000001" style="font-family: 'Open Sans', verdana, arial, sans-serif; font-size: 12px; fill: rgb(42, 63, 95); fill-opacity: 1; white-space: pre;">ABER-CKP</text><g class="layers" style="opacity: 1;"><g class="legendfill"/><g class="legendlines"><path class="js-line" d="M5,0h30" style="fill: none; stroke: rgb(31, 119, 180); stroke-opacity: 1; stroke-width: 2px;"/></g><g class="legendsymbols"><g class="legendpoints"/></g></g><rect class="legendtoggle" x="0" y="-9.5" width="105.41796875" height="19" style="fill: rgb(0, 0, 0); fill-opacity: 0;"/></g><g class="traces" transform="translate(188.99609375,14.5)" style="opacity: 1;"><text class="legendtext" text-anchor="start" x="40" y="4.680000000000001" style="font-family: 'Open Sans', verdana, arial, sans-serif; font-size: 12px; fill: rgb(42, 63, 95); fill-opacity: 1; white-space: pre;">ESTADO-SDV-P</text><g class="layers" style="opacity: 1;"><g class="legendfill"/><g class="legendlines"><path class="js-line" d="M5,0h30" style="fill: none; stroke: rgb(255, 127, 14); stroke-opacity: 1; stroke-width: 2px;"/></g><g class="legendsymbols"><g class="legendpoints"/></g></g><rect class="legendtoggle" x="0" y="-9.5" width="136.017578125" height="19" style="fill: rgb(0, 0, 0); fill-opacity: 0;"/></g><g class="traces" transform="translate(327.513671875,14.5)" style="opacity: 1;"><text class="legendtext" text-anchor="start" x="40" y="4.680000000000001" style="font-family: 'Open Sans', verdana, arial, sans-serif; font-size: 12px; fill: rgb(42, 63, 95); fill-opacity: 1; white-space: pre;">ESTADO-W1</text><g class="layers" style="opacity: 1;"><g class="legendfill"/><g class="legendlines"><path class="js-line" d="M5,0h30" style="fill: none; stroke: rgb(44, 160, 44); stroke-opacity: 1; stroke-width: 2px;"/></g><g class="legendsymbols"><g class="legendpoints"/></g></g><rect class="legendtoggle" x="0" y="-9.5" width="116.53125" height="19" style="fill: rgb(0, 0, 0); fill-opacity: 0;"/></g><g class="traces" transform="translate(446.544921875,14.5)" style="opacity: 1;"><text class="legendtext" text-anchor="start" x="40" y="4.680000000000001" style="font-family: 'Open Sans', verdana, arial, sans-serif; font-size: 12px; fill: rgb(42, 63, 95); fill-opacity: 1; white-space: pre;">T-TPT</text><g class="layers" style="opacity: 1;"><g class="legendfill"/><g class="legendlines"><path class="js-line" d="M5,0h30" style="fill: none; stroke: rgb(214, 39, 40); stroke-opacity: 1; stroke-width: 2px;"/></g><g class="legendsymbols"><g class="legendpoints"/></g></g><rect class="legendtoggle" x="0" y="-9.5" width="77.216796875" height="19" style="fill: rgb(0, 0, 0); fill-opacity: 0;"/></g></g></g><rect class="scrollbar" rx="20" ry="3" width="0" height="0" x="0" y="0" style="fill: rgb(128, 139, 164); fill-opacity: 1;"/></g><g class="g-gtitle"/><g class="g-xtitle"/><g class="g-ytitle"><text class="ytitle" transform="rotate(-90,56.709375,306)" x="56.709375" y="306" text-anchor="middle" style="opacity: 1; font-family: 'Open Sans', verdana, arial, sans-serif; font-size: 14px; fill: rgb(31, 119, 180); fill-opacity: 1; white-space: pre;">ABER-CKP (%)</text></g><g class="g-y2title"><text class="y2title" transform="rotate(-90,135.975,306)" x="135.975" y="306" text-anchor="middle" style="opacity: 1; font-family: 'Open Sans', verdana, arial, sans-serif; font-size: 14px; fill: rgb(255, 127, 14); fill-opacity: 1; white-space: pre;">ESTADO-SDV-P (0, 0.5, or 1)</text></g><g class="g-y3title"><text class="y3title" transform="rotate(-90,1019.294140625,306)" x="1019.294140625" y="306" text-anchor="middle" style="opacity: 1; font-family: 'Open Sans', verdana, arial, sans-serif; font-size: 14px; fill: rgb(44, 160, 44); fill-opacity: 1; white-space: pre;">ESTADO-W1 (0, 0.5, or 1)</text></g><g class="g-y4title"><text class="y4title" transform="rotate(-90,1090.92890625,306)" x="1090.92890625" y="306" text-anchor="middle" style="opacity: 1; font-family: 'Open Sans', verdana, arial, sans-serif; font-size: 14px; fill: rgb(214, 39, 40); fill-opacity: 1; white-space: pre;">T-TPT (°C)</text></g></g></svg>