<svg class="main-svg" xmlns="http://www.w3.org/2000/svg" xmlns:xlink="http://www.w3.org/1999/xlink" width="1200" height="600" style="" viewBox="0 0 1200 600"><rect x="0" y="0" width="1200" height="600" style="fill: rgb(255, 255, 255); fill-opacity: 1;"/><defs id="defs-8dba0a"><g class="clips"><clipPath id="clip8dba0axyplot" class="plotclip"><rect width="950" height="452"/></clipPath><clipPath id="clip8dba0axy2plot" class="plotclip"><rect width="950" height="452"/></clipPath><clipPath id="clip8dba0axy3plot" class="plotclip"><rect width="950" height="452"/></clipPath><clipPath id="clip8dba0axy4plot" class="plotclip"><rect width="950" height="452"/></clipPath><clipPath class="axesclip" id="clip8dba0ax"><rect x="100" y="0" width="950" height="600"/></clipPath><clipPath class="axesclip" id="clip8dba0ay"><rect x="0" y="80" width="1200" height="452"/></clipPath><clipPath class="axesclip" id="clip8dba0axy"><rect x="100" y="80" width="950" height="452"/></clipPath><clipPath class="axesclip" id="clip8dba0ay2"><rect x="0" y="80" width="1200" height="452"/></clipPath><clipPath class="axesclip" id="clip8dba0axy2"><rect x="100" y="80" width="950" height="452"/></clipPath><clipPath class="axesclip" id="clip8dba0ay3"><rect x="0" y="80" width="1200" height="452"/></clipPath><clipPath class="axesclip" id="clip8dba0axy3"><rect x="100" y="80" width="950" height="452"/></clipPath><clipPath class="axesclip" id="clip8dba0ay4"><rect x="0" y="80" width="1200" height="452"/></clipPath><clipPath class="axesclip" id="clip8dba0axy4"><rect x="100" y="80" width="950" height="452"/></clipPath></g><g class="gradients"/><g class="patterns"/></defs><g class="bglayer"/><g class="layer-below"><g class="imagelayer"/><g class="shapelayer"/></g><g class="cartesianlayer"><g class="subplot xy"><g class="layer-subplot"><g class="shapelayer"/><g class="imagelayer"/></g><g class="minor-gridlayer"><g class="x"/><g class="y"/><g class="y2"/><g class="y3"/><g class="y4"/></g><g class="gridlayer"><g class="x"><path class="xgrid crisp" transform="translate(171.14,0)" d="M0,80v452" style="stroke: rgb(255, 255, 255); stroke-opacity: 1; stroke-width: 1px;"/><path class="xgrid crisp" transform="translate(351.76,0)" d="M0,80v452" style="stroke: rgb(255, 255, 255); stroke-opacity: 1; stroke-width: 1px;"/><path class="xgrid crisp" transform="translate(532.38,0)" d="M0,80v452" style="stroke: rgb(255, 255, 255); stroke-opacity: 1; stroke-width: 1px;"/><path class="xgrid crisp" transform="translate(713,0)" d="M0,80v452" style="stroke: rgb(255, 255, 255); stroke-opacity: 1; stroke-width: 1px;"/><path class="xgrid crisp" transform="translate(893.62,0)" d="M0,80v452" style="stroke: rgb(255, 255, 255); stroke-opacity: 1; stroke-width: 1px;"/></g><g class="y"><path class="ygrid crisp" transform="translate(0,518.25)" d="M100,0h950" style="stroke: rgb(255, 255, 255); stroke-opacity: 1; stroke-width: 1px;"/><path class="ygrid crisp" transform="translate(0,446.17)" d="M100,0h950" style="stroke: rgb(255, 255, 255); stroke-opacity: 1; stroke-width: 1px;"/><path class="ygrid crisp" transform="translate(0,374.09)" d="M100,0h950" style="stroke: rgb(255, 255, 255); stroke-opacity: 1; stroke-width: 1px;"/><path class="ygrid crisp" transform="translate(0,302.02)" d="M100,0h950" style="stroke: rgb(255, 255, 255); stroke-opacity: 1; stroke-width: 1px;"/><path class="ygrid crisp" transform="translate(0,229.94)" d="M100,0h950" style="stroke: rgb(255, 255, 255); stroke-opacity: 1; stroke-width: 1px;"/><path class="ygrid crisp" transform="translate(0,157.86)" d="M100,0h950" style="stroke: rgb(255, 255, 255); stroke-opacity: 1; stroke-width: 1px;"/><path class="ygrid crisp" transform="translate(0,85.78)" d="M100,0h950" style="stroke: rgb(255, 255, 255); stroke-opacity: 1; stroke-width: 1px;"/></g><g class="y2"><path class="y2grid crisp" transform="translate(0,512.0699999999999)" d="M100,0h950" style="stroke: rgb(255, 255, 255); stroke-opacity: 1; stroke-width: 1px;"/><path class="y2grid crisp" transform="translate(0,444.95)" d="M100,0h950" style="stroke: rgb(255, 255, 255); stroke-opacity: 1; stroke-width: 1px;"/><path class="y2grid crisp" transform="translate(0,377.82)" d="M100,0h950" style="stroke: rgb(255, 255, 255); stroke-opacity: 1; stroke-width: 1px;"/><path class="y2grid crisp" transform="translate(0,310.7)" d="M100,0h950" style="stroke: rgb(255, 255, 255); stroke-opacity: 1; stroke-width: 1px;"/><path class="y2grid crisp" transform="translate(0,243.57)" d="M100,0h950" style="stroke: rgb(255, 255, 255); stroke-opacity: 1; stroke-width: 1px;"/><path class="y2grid crisp" transform="translate(0,176.44)" d="M100,0h950" style="stroke: rgb(255, 255, 255); stroke-opacity: 1; stroke-width: 1px;"/><path class="y2grid crisp" transform="translate(0,109.32)" d="M100,0h950" style="stroke: rgb(255, 255, 255); stroke-opacity: 1; stroke-width: 1px;"/></g><g class="y3"><path class="y3grid crisp" transform="translate(0,466.71)" d="M100,0h950" style="stroke: rgb(255, 255, 255); stroke-opacity: 1; stroke-width: 1px;"/><path class="y3grid crisp" transform="translate(0,383.25)" d="M100,0h950" style="stroke: rgb(255, 255, 255); stroke-opacity: 1; stroke-width: 1px;"/><path class="y3grid crisp" transform="translate(0,299.78)" d="M100,0h950" style="stroke: rgb(255, 255, 255); stroke-opacity: 1; stroke-width: 1px;"/><path class="y3grid crisp" transform="translate(0,216.32)" d="M100,0h950" style="stroke: rgb(255, 255, 255); stroke-opacity: 1; stroke-width: 1px;"/><path class="y3grid crisp" transform="translate(0,132.86)" d="M100,0h950" style="stroke: rgb(255, 255, 255); stroke-opacity: 1; stroke-width: 1px;"/></g><g class="y4"><path class="y4grid crisp" transform="translate(0,474.63)" d="M100,0h950" style="stroke: rgb(255, 255, 255); stroke-opacity: 1; stroke-width: 1px;"/><path class="y4grid crisp" transform="translate(0,393.04)" d="M100,0h950" style="stroke: rgb(255, 255, 255); stroke-opacity: 1; stroke-width: 1px;"/><path class="y4grid crisp" transform="translate(0,311.45)" d="M100,0h950" style="stroke: rgb(255, 255, 255); stroke-opacity: 1; stroke-width: 1px;"/><path class="y4grid crisp" transform="translate(0,229.85)" d="M100,0h950" style="stroke: rgb(255, 255, 255); stroke-opacity: 1; stroke-width: 1px;"/><path class="y4grid crisp" transform="translate(0,148.26)" d="M100,0h950" style="stroke: rgb(255, 255, 255); stroke-opacity: 1; stroke-width: 1px;"/></g></g><g class="zerolinelayer"/><g class="layer-between"><g class="shapelayer"/><g class="imagelayer"/></g><path class="xlines-below"/><path class="ylines-below"/><g class="overlines-below"><path class="xy2-x"/><path class="xy2-y"/><path class="xy3-x"/><path class="xy3-y"/><path class="xy4-x"/><path class="xy4-y"/></g><g class="xaxislayer-below"/><g class="yaxislayer-below"/><g class="overaxes-below"><g class="xy2-x"/><g class="xy2-y"/><g class="xy3-x"/><g class="xy3-y"/><g class="xy4-x"/><g class="xy4-y"/></g><g class="overplot"><g class="xy" transform="translate(100,80)" clip-path="url(#clip8dba0axyplot)"><g class="scatterlayer mlayer"><g class="trace scatter trace2eeda5" style="stroke-miterlimit: 2; opacity: 1;"><g class="fills"/><g class="errorbars"/><g class="lines"><path class="js-line" d="M79.17,23.48L81.57,23.22L81.63,23.2L83.58,22.93L83.63,22.96L90.2,23.83L90.25,23.86L91.96,23.64L92.01,23.65L94.27,23.62L94.32,23.62L97.23,22.9L97.28,22.84L97.98,22.72L98.13,22.95L98.18,23.03L99.19,23.24L99.24,23.23L102.15,23.39L102.2,23.41L103.2,23.09L103.25,23.07L105.41,22.85L105.46,22.89L106.56,22.95L106.61,22.94L109.32,23.13L109.37,23.17L111.38,23.74L111.43,23.71L113.18,23.8L113.23,23.8L117.1,23.48L117.15,23.42L118.2,23.39L118.25,23.37L119.76,23.54L119.81,23.56L122.67,23.39L122.72,23.36L125.88,23.28L125.93,23.21L126.73,23.2L126.78,23.25L126.83,23.3L127.28,23.74L127.68,23.17L127.73,23.1L128.39,22.84L128.64,23.11L128.69,23.17L129.44,23.32L129.59,23.14L129.64,23.08L130.59,23L130.64,23.05L130.69,23.09L132.05,23.31L132.1,23.29L133.8,23.33L133.85,23.26L135.06,23.98L135.36,23.58L135.41,23.52L136.31,23.55L136.36,23.58L137.22,23.2L137.27,23.2L149.16,23.05L149.21,23.02L150.41,23.01L150.46,23.02L154.27,23.05L154.32,23.02L155.43,24.04L155.73,23.71L155.78,23.66L156.73,23.7L156.78,23.69L158.64,23.44L158.69,23.47L161.7,23.62L161.75,23.66L163,23.77L163.05,23.76L176.85,23.17L176.9,23.16L179.66,23.53L179.71,23.56L183.73,23.47L183.78,23.52L185.28,23.92L185.33,23.92L190.4,23.3L190.45,23.26L191.15,23.35L191.25,23.45L191.3,23.5L192.96,23.32L193.01,23.38L194.21,23.6L194.26,23.6L200.78,23.24L200.83,23.27L202.94,23.32L202.99,23.32L222.66,23.91L222.71,23.98L223.96,24.06L224.01,24.04L226.97,23.47L227.02,23.5L229.63,23.74L229.68,23.74L242.03,23.89L242.08,23.92L243.58,23.8L243.63,23.82L245.79,24.04L245.84,24.04L250.96,23.27L251.01,23.27L259.03,23.69L259.08,23.66L260.59,23.69L260.64,23.7L265.31,23.89L265.36,23.86L266.71,23.81L266.76,23.84L268.37,23.86L268.42,23.87L270.47,23.77L270.52,23.77L275.09,23.66L275.14,23.7L278,23.06L278.05,23.1L279.86,23.51L279.91,23.5L282.06,23.68L282.11,23.69L285.83,23.81L285.88,23.77L287.18,23.63L287.23,23.66L288.23,23.5L288.28,23.44L289.24,23.44L289.29,23.44L295.16,24L295.21,24.04L296.16,23.86L296.21,23.85L301.23,23.47L301.28,23.49L303.84,23.61L303.89,23.62L327.12,23.42L327.17,23.4L328.97,23.36L329.02,23.4L330.58,23.56L330.63,23.54L333.19,23.47L333.24,23.5L335.2,23.7L335.25,23.68L337.15,23.49L337.2,23.51L339.86,23.62L339.91,23.62L351.95,24.25L352,24.28L353.41,24.27L353.46,24.21L355.16,23.87L355.21,23.86L358.02,23.5L358.07,23.55L359.53,24.05L359.58,24.05L362.99,23.91L363.04,23.89L365.45,23.85L365.5,23.89L366.95,24.09L367,24.08L371.37,24.23L371.42,24.25L373.83,24.43L373.88,24.42L380.5,24.29L380.55,24.31L388.53,24.18L388.58,24.19L391.49,23.86L391.54,23.86L394.85,24.2L394.9,24.21L396.71,23.99L396.76,23.96L398.71,23.74L398.76,23.74L400.62,23.94L400.67,23.97L403.03,24.4L403.08,24.4L410.85,24.49L410.91,24.51L414.22,23.89L414.27,23.92L418.58,24.06L418.63,24.08L425.76,23.97L425.81,23.94L429.87,23.34L429.92,23.37L432.13,23.71L432.18,23.69L433.78,23.84L433.83,23.83L440.31,24.11L440.36,24.14L442.16,24.46L442.21,24.46L444.92,23.71L444.97,23.66L445.72,23.92L445.77,23.94L448.94,24.17L448.99,24.13L450.99,24.21L451.04,24.19L453.35,23.93L453.4,23.99L454.5,23.6L454.55,23.56L455.51,23.93L455.56,24.01L456.21,23.92L456.31,23.83L456.36,23.79L457.36,23.89L457.41,23.92L458.47,23.63L458.52,23.64L462.08,24.31L462.13,24.29L463.39,24.52L463.44,24.53L465.74,24.4L465.79,24.37L468.7,23.77L468.75,23.8L470.96,24.15L471.01,24.15L477.23,24.21L477.28,24.19L481.2,23.58L481.25,23.61L483.1,24.13L483.15,24.14L484.26,24.22L484.31,24.16L485.16,24.54L485.21,24.63L486.01,25.06L486.16,24.83L486.21,24.76L486.56,24.22L487.12,24.64L487.17,24.64L504.58,23.91L504.63,23.88L505.78,24.09L505.83,24.1L511.7,24.43L511.75,24.48L512.7,24.46L512.75,24.46L521.08,24.46L521.13,24.51L521.89,24.64L522.04,24.45L522.09,24.38L523.19,24.14L523.24,24.13L533.88,24.15L533.93,24.21L534.58,24.1L534.68,24.01L534.73,23.97L535.58,24.11L535.63,24.17L535.68,24.22L537.69,24.16L537.74,24.22L538.54,24.09L538.59,24.05L539.45,24.23L539.5,24.29L541.8,24.3L541.85,24.25L543.16,24.05L543.21,24.07L544.41,23.85L544.46,23.82L545.72,24.17L545.77,24.2L547.93,24.74L547.98,24.73L552.14,24.45L552.19,24.46L559.87,24.07L559.92,24.06L562.83,24.45L562.88,24.45L565.49,24.76L565.54,24.89L566.79,29.94L566.84,30.27L572.31,62.38L572.36,62.61L583.3,111.11L583.35,111.27L592.78,141.93L592.83,142.09L596.49,150.71L596.54,150.82L606.18,171.15L606.23,171.23L606.98,173.64L607.03,173.83L609.79,181.85L609.84,181.97L612.45,190.77L612.5,190.99L620.83,224.37L620.88,224.53L626.09,239.77L626.14,239.87L629.66,245.57L629.71,245.62L633.52,249.73L633.57,249.78L643.1,258.37L643.15,258.38L643.9,259.31L643.95,259.37L654.14,270.14L654.19,270.23L658.2,275.59L658.25,275.62L659.21,276.77L659.26,276.87L664.53,284.38L664.58,284.41L667.18,287.43L667.23,287.49L674.11,294.28L674.16,294.31L675.96,295.57L676.01,295.59L679.08,297.12L679.13,297.17L681.13,297.14L681.18,297.15L685.05,297.67L685.1,297.63L686.45,297.54L686.5,297.55L688.21,297.15L688.26,297.14L692.57,296.47L692.62,296.48L694.68,296.14L694.73,296.14L697.04,295.41L697.09,295.37L702.41,292.53L702.46,292.53L719.11,292.86L719.16,292.88L722.02,293.42L722.07,293.4L723.18,293.58L723.23,293.61L726.84,294.25L726.89,294.25L729.6,294.62L729.65,294.65L731.71,294.91L731.76,294.92L734.47,296.19L734.52,296.28L746.81,316.44L746.86,316.5L754.58,326.92L754.63,327.01L759.15,332.84L759.2,332.9L780.47,357.61L780.52,357.65L786.39,363.71L786.44,363.77L792.16,369.48L792.21,369.52L802.8,379.69L802.85,379.74L816.85,391.81L816.9,391.85L854.38,419.28L854.43,419.3L858.84,422.18L858.89,422.23L861.25,423.66L861.3,423.69L866.52,426.91L866.57,426.93L870.83,429.4" style="vector-effect: none; fill: none; stroke: rgb(31, 119, 180); stroke-opacity: 1; stroke-width: 2px; opacity: 1;"/></g><g class="points"/><g class="text"/></g></g></g><g class="xy2" transform="translate(100,80)" clip-path="url(#clip8dba0axy2plot)"><g class="scatterlayer mlayer"><g class="trace scatter trace03ca04" style="stroke-miterlimit: 2; opacity: 1;"><g class="fills"/><g class="errorbars"/><g class="lines"><path class="js-line" d="M79.17,423.08L92.81,423.25L92.86,423.24L106.91,423.43L106.96,423.43L110.37,423.92L110.42,424.38L111.38,423.41L111.43,423.41L120.76,423.53L120.81,423.54L130.64,423.6L130.69,423.62L145.39,423.87L145.44,423.86L155.13,423.96L155.18,423.95L158.69,423.89L158.74,423.89L201.34,424.63L201.39,424.7L202.59,424.55L202.64,424.55L208.51,424.58L208.56,424.58L245.39,424.95L245.44,425.44L245.49,425.92L245.79,424.94L246.14,424.97L246.19,424.98L251.26,425.06L251.31,425.06L265.61,425.28L265.66,425.26L270.72,425.33L270.77,425.34L275.54,426L275.59,426.23L276.54,425.3L276.59,425.31L279.2,425.39L279.25,425.39L288.38,425.52L288.43,425.53L346.94,426.01L346.99,426.47L347.04,426.93L347.24,426L347.69,425.98L347.74,425.97L366.4,426.16L366.45,426.15L381.86,426.48L381.91,426.46L398.76,426.76L398.81,426.74L442.97,427.22L443.02,427.45L443.17,428.14L443.27,427.2L443.72,427.16L443.77,427.15L512.15,427.85L512.2,427.88L516.12,427.86L516.17,427.86L520.28,428.68L520.33,428.92L521.28,427.97L521.33,427.97L525.25,428.39L525.3,428.63L525.35,428.87L525.45,427.94L525.9,427.96L525.95,427.96L540.75,428.34L540.8,428.22L553.39,428.34L553.44,428.32L556.76,428.45L556.81,428.43L558.56,428.44L558.61,428.68L558.66,428.92L558.76,429.4L558.86,428.45L559.31,428.45L559.36,428.45L563.88,428.53L563.93,422.24L564.78,369.98L564.93,377.57L564.98,378.44L565.08,380.18L565.33,371.67L565.39,371.12L565.74,366.79L565.79,364.74L567.09,348.27L567.14,347.95L568.19,336.76L568.24,336.05L570.2,321.31L570.25,321.14L571.1,315.93L571.15,315.34L573.21,302.35L573.26,302.1L580.54,267.59L580.59,267.47L582.04,261.87L582.09,261.6L584.2,254.21L584.25,254.12L585.15,250.99L585.2,250.8L589.37,237.83L589.42,237.72L592.38,229.38L592.43,229.31L594.84,222.97L594.89,222.91L596.59,218.62L596.64,218.56L598.65,213.67L598.7,213.53L601.66,207.02L601.71,206.84L605.12,200.05L605.17,199.87L606.83,196.68L606.88,196.6L610.49,189.85L610.54,189.78L612.45,186.36L612.5,186.3L615.66,180.99L615.71,180.9L627.3,163.62L627.35,163.56L631.56,157.85L631.61,157.8L635.58,152.82L635.63,152.7L639.79,147.8L639.84,147.74L643.75,143.23L643.8,143.42L643.85,143.6L643.95,143.98L644.31,142.66L644.36,142.57L648.62,137.9L648.67,137.82L651.03,135.53L651.08,135.47L674.46,114.11L674.51,114.1L675.91,112.97L675.96,112.92L685,105.92L685.15,106.55L685.2,106.76L686.1,105.18L686.15,105.11L704.01,92.84L704.06,92.82L713.04,87.12L713.09,87.1L746.61,68.69L746.66,69.15L746.71,69.61L747.71,68.14L747.76,68.12L751.72,66.19L751.77,66.28L751.82,66.37L753.48,65.33L753.53,65.32L760.55,61.97L760.61,61.96L762.86,60.91L762.91,60.88L766.12,59.43L766.17,59.42L770.54,57.48L770.59,57.46L789.4,49.49L789.45,49.47L793.32,47.94L793.37,47.91L808.97,41.95L809.02,41.91L813.74,40.22L813.79,40.19L827.64,35.41L827.69,35.46L829.34,34.85L829.39,34.84L836.92,32.63L836.97,32.63L840.88,31.37L840.93,31.34L846.05,29.94L846.1,29.93L870.78,22.63L870.83,22.6" style="vector-effect: none; fill: none; stroke: rgb(255, 127, 14); stroke-opacity: 1; stroke-width: 2px; opacity: 1;"/></g><g class="points"/><g class="text"/></g></g></g><g class="xy3" transform="translate(100,80)" clip-path="url(#clip8dba0axy3plot)"><g class="scatterlayer mlayer"><g class="trace scatter tracec57bc8" style="stroke-miterlimit: 2; opacity: 1;"><g class="fills"/><g class="errorbars"/><g class="lines"><path class="js-line" d="M79.17,22.63L90.25,22.64L90.3,22.64L143.04,23.35L143.09,23.36L146.05,23.39L146.1,23.38L152.42,23.21L152.47,23.23L153.67,22.98L153.72,22.95L155.63,22.98L155.68,22.99L159.54,23L159.59,22.99L166.12,22.86L166.17,22.87L175.4,23.63L175.45,23.6L177.75,23.28L177.81,23.3L179.46,23.26L179.51,23.25L182.27,23.27L182.32,23.3L183.88,23.32L183.93,23.31L185.58,23.61L185.63,23.63L186.64,23.22L186.69,23.18L188.04,23.12L188.09,23.16L189.65,23.24L189.7,23.22L191.15,23.24L191.2,23.27L193.36,23.6L193.41,23.6L202.64,23.49L202.69,23.47L205.2,22.98L205.25,22.99L217.84,23.58L217.89,23.56L220.05,23.5L220.1,23.51L222.31,23.62L222.36,23.6L224.82,23.65L224.87,23.67L227.73,23.66L227.78,23.66L492.89,24.34L492.94,24.36L495.95,23.77L496,23.77L498.86,24.32L498.91,24.34L506.18,24.12L506.23,24.14L508.29,24.18L508.34,24.16L510.5,24.1L510.55,24.12L512,23.91L512.05,23.89L514.56,23.68L514.61,23.68L519.93,23.94L519.98,23.91L524.49,24.48L524.55,24.48L537.69,24.62L537.74,24.62L543.96,24.68L544.01,24.68L562.27,25.13L562.32,25.4L563.68,32.68L563.73,38.45L564.98,96.97L565.03,98.06L566.64,119.01L566.69,119.36L571.41,147.15L571.46,147.42L580.59,191.61L580.64,191.79L584.2,207.4L584.25,207.59L592.13,238.75L592.18,238.96L597.9,259.78L597.95,259.94L611.89,303.13L611.94,303.26L618.32,320.24L618.37,320.39L623.89,334.88L623.94,334.98L626.29,341.35L626.34,341.46L630.86,349.24L630.91,349.3L640.74,360.87L640.79,360.93L649.32,370.79L649.37,370.85L653.94,375.17L653.99,375.21L656,377.41L656.05,377.48L662.32,384.45L662.37,384.48L665.28,386.88L665.33,386.92L682.59,402.19L682.64,402.22L684.39,404.12L684.44,404.19L686.7,405.74L686.75,405.77L700.4,415.15L700.45,415.16L717.16,417.88L717.21,417.87L721.62,418.59L721.67,418.61L723.88,418.82L723.93,418.82L726.64,419.38L726.69,419.39L734.62,420.73L734.67,420.73L745.85,422.09L745.9,422.11L750.17,422.69L750.22,422.68L752.58,423.41L752.63,423.42L757.49,423.63L757.54,423.63L761.86,424.09L761.91,424.11L764.87,424.84L764.92,424.85L776.31,426.46L776.36,426.49L779.42,426.53L779.47,426.54L799.89,428.8L799.94,428.77L806.26,423.94L806.31,423.87L808.12,422.59L808.17,422.56L814.99,418.91L815.04,418.9L817.1,417.88L817.15,417.84L827.03,411.52L827.08,411.49L828.44,409.71L828.49,409.63L829.99,408.42L830.04,408.41L832.2,407.23L832.25,407.16L836.87,402.35L836.92,402.32L839.12,400.33L839.17,400.27L843.79,393.65L843.84,393.56L845.45,392.1L845.5,392.06L846.3,390.59L846.35,390.48L848.81,387.03L848.86,386.99L850.97,384.54L851.02,384.45L855.28,378.66L855.33,378.59L864.31,366.66L864.36,366.57L868.07,361.43L868.12,361.36L870.83,358.32" style="vector-effect: none; fill: none; stroke: rgb(44, 160, 44); stroke-opacity: 1; stroke-width: 2px; opacity: 1;"/></g><g class="points"/><g class="text"/></g></g></g><g class="xy4" transform="translate(100,80)" clip-path="url(#clip8dba0axy4plot)"><g class="scatterlayer mlayer"><g class="trace scatter trace737934" style="stroke-miterlimit: 2; opacity: 1;"><g class="fills"/><g class="errorbars"/><g class="lines"><path class="js-line" d="M79.17,22.61L563.08,23.34L563.13,23.38L564.98,25.7L565.03,25.96L566.34,36.02L566.39,37.07L567.59,50.21L567.64,51.75L569.6,89.73L569.65,90.14L570.1,100.01L570.15,100.58L575.47,155.77L575.52,156.12L583,205.67L583.05,205.87L585.86,220.2L585.91,220.46L589.92,237.38L589.97,237.58L594.69,254.2L594.74,254.35L603.01,276.38L603.06,276.47L609.99,290.47L610.04,290.58L620.52,309L620.57,309.08L640.19,333.71L640.24,333.77L652.53,346.57L652.58,346.61L673.91,364.5L673.96,364.53L698.44,380.75L698.49,380.77L716.6,390.77L716.65,390.79L725.23,395.01L725.28,395.04L730.35,397.22L730.4,397.24L739.03,400.8L739.08,400.82L761.51,408.08L761.56,408.08L770.74,411.3L770.79,411.32L796.68,419.21L796.73,419.22L835.11,428.99L835.16,429L843.34,429.35L843.39,429.34L865.41,427.15L865.46,427.15L870.83,427.25" style="vector-effect: none; fill: none; stroke: rgb(214, 39, 40); stroke-opacity: 1; stroke-width: 2px; opacity: 1;"/></g><g class="points"/><g class="text"/></g></g></g></g><path class="xlines-above crisp" d="M0,0" style="fill: none;"/><path class="ylines-above crisp" d="M0,0" style="fill: none;"/><g class="overlines-above"><path class="xy2-x crisp" d="M0,0" style="fill: none;"/><path class="xy2-y crisp" d="M0,0" style="fill: none;"/><path class="xy3-x crisp" d="M0,0" style="fill: none;"/><path class="xy3-y crisp" d="M0,0" style="fill: none;"/><path class="xy4-x crisp" d="M0,0" style="fill: none;"/><path class="xy4-y crisp" d="M0,0" style="fill: none;"/></g><g class="xaxislayer-above"><g class="xtick"><text text-anchor="middle" x="0" y="545" transform="translate(171.14,0)" style="font-family: 'Open Sans', verdana, arial, sans-serif; font-size: 12px; fill: rgb(42, 63, 95); fill-opacity: 1; white-space: pre; opacity: 1;"><tspan class="line" dy="0em" x="0" y="545">13:00</tspan><tspan class="line" dy="1.3em" x="0" y="545">Jul 28, 2017</tspan></text></g><g class="xtick"><text text-anchor="middle" x="0" y="545" style="font-family: 'Open Sans', verdana, arial, sans-serif; font-size: 12px; fill: rgb(42, 63, 95); fill-opacity: 1; white-space: pre; opacity: 1;" transform="translate(351.76,0)">14:00</text></g><g class="xtick"><text text-anchor="middle" x="0" y="545" style="font-family: 'Open Sans', verdana, arial, sans-serif; font-size: 12px; fill: rgb(42, 63, 95); fill-opacity: 1; white-space: pre; opacity: 1;" transform="translate(532.38,0)">15:00</text></g><g class="xtick"><text text-anchor="middle" x="0" y="545" style="font-family: 'Open Sans', verdana, arial, sans-serif; font-size: 12px; fill: rgb(42, 63, 95); fill-opacity: 1; white-space: pre; opacity: 1;" transform="translate(713,0)">16:00</text></g><g class="xtick"><text text-anchor="middle" x="0" y="545" style="font-family: 'Open Sans', verdana, arial, sans-serif; font-size: 12px; fill: rgb(42, 63, 95); fill-opacity: 1; white-space: pre; opacity: 1;" transform="translate(893.62,0)">17:00</text></g></g><g class="yaxislayer-above"><g class="ytick"><text text-anchor="end" x="100" y="4.199999999999999" transform="translate(0,518.25)" style="font-family: 'Open Sans', verdana, arial, sans-serif; font-size: 12px; fill: rgb(31, 119, 180); fill-opacity: 1; white-space: pre; opacity: 1;">2M</text></g><g class="ytick"><text text-anchor="end" x="100" y="4.199999999999999" style="font-family: 'Open Sans', verdana, arial, sans-serif; font-size: 12px; fill: rgb(31, 119, 180); fill-opacity: 1; white-space: pre; opacity: 1;" transform="translate(0,446.17)">3M</text></g><g class="ytick"><text text-anchor="end" x="100" y="4.199999999999999" style="font-family: 'Open Sans', verdana, arial, sans-serif; font-size: 12px; fill: rgb(31, 119, 180); fill-opacity: 1; white-space: pre; opacity: 1;" transform="translate(0,374.09)">4M</text></g><g class="ytick"><text text-anchor="end" x="100" y="4.199999999999999" style="font-family: 'Open Sans', verdana, arial, sans-serif; font-size: 12px; fill: rgb(31, 119, 180); fill-opacity: 1; white-space: pre; opacity: 1;" transform="translate(0,302.02)">5M</text></g><g class="ytick"><text text-anchor="end" x="100" y="4.199999999999999" style="font-family: 'Open Sans', verdana, arial, sans-serif; font-size: 12px; fill: rgb(31, 119, 180); fill-opacity: 1; white-space: pre; opacity: 1;" transform="translate(0,229.94)">6M</text></g><g class="ytick"><text text-anchor="end" x="100" y="4.199999999999999" style="font-family: 'Open Sans', verdana, arial, sans-serif; font-size: 12px; fill: rgb(31, 119, 180); fill-opacity: 1; white-space: pre; opacity: 1;" transform="translate(0,157.86)">7M</text></g><g class="ytick"><text text-anchor="end" x="100" y="4.199999999999999" style="font-family: 'Open Sans', verdana, arial, sans-serif; font-size: 12px; fill: rgb(31, 119, 180); fill-opacity: 1; white-space: pre; opacity: 1;" transform="translate(0,85.78)">8M</text></g></g><g class="overaxes-above"><g class="xy2-x"/><g class="xy2-y"><g class="y2tick"><text text-anchor="end" x="176" y="4.199999999999999" transform="translate(0,512.0699999999999)" style="font-family: 'Open Sans', verdana, arial, sans-serif; font-size: 12px; fill: rgb(255, 127, 14); fill-opacity: 1; white-space: pre; opacity: 1;">31.5M</text></g><g class="y2tick"><text text-anchor="end" x="176" y="4.199999999999999" style="font-family: 'Open Sans', verdana, arial, sans-serif; font-size: 12px; fill: rgb(255, 127, 14); fill-opacity: 1; white-space: pre; opacity: 1;" transform="translate(0,444.95)">32M</text></g><g class="y2tick"><text text-anchor="end" x="176" y="4.199999999999999" style="font-family: 'Open Sans', verdana, arial, sans-serif; font-size: 12px; fill: rgb(255, 127, 14); fill-opacity: 1; white-space: pre; opacity: 1;" transform="translate(0,377.82)">32.5M</text></g><g class="y2tick"><text text-anchor="end" x="176" y="4.199999999999999" style="font-family: 'Open Sans', verdana, arial, sans-serif; font-size: 12px; fill: rgb(255, 127, 14); fill-opacity: 1; white-space: pre; opacity: 1;" transform="translate(0,310.7)">33M</text></g><g class="y2tick"><text text-anchor="end" x="176" y="4.199999999999999" style="font-family: 'Open Sans', verdana, arial, sans-serif; font-size: 12px; fill: rgb(255, 127, 14); fill-opacity: 1; white-space: pre; opacity: 1;" transform="translate(0,243.57)">33.5M</text></g><g class="y2tick"><text text-anchor="end" x="176" y="4.199999999999999" style="font-family: 'Open Sans', verdana, arial, sans-serif; font-size: 12px; fill: rgb(255, 127, 14); fill-opacity: 1; white-space: pre; opacity: 1;" transform="translate(0,176.44)">34M</text></g><g class="y2tick"><text text-anchor="end" x="176" y="4.199999999999999" style="font-family: 'Open Sans', verdana, arial, sans-serif; font-size: 12px; fill: rgb(255, 127, 14); fill-opacity: 1; white-space: pre; opacity: 1;" transform="translate(0,109.32)">34.5M</text></g></g><g class="xy3-x"/><g class="xy3-y"><g class="y3tick"><text text-anchor="start" x="975" y="4.199999999999999" transform="translate(0,466.71)" style="font-family: 'Open Sans', verdana, arial, sans-serif; font-size: 12px; fill: rgb(44, 160, 44); fill-opacity: 1; white-space: pre; opacity: 1;">8M</text></g><g class="y3tick"><text text-anchor="start" x="975" y="4.199999999999999" style="font-family: 'Open Sans', verdana, arial, sans-serif; font-size: 12px; fill: rgb(44, 160, 44); fill-opacity: 1; white-space: pre; opacity: 1;" transform="translate(0,383.25)">10M</text></g><g class="y3tick"><text text-anchor="start" x="975" y="4.199999999999999" style="font-family: 'Open Sans', verdana, arial, sans-serif; font-size: 12px; fill: rgb(44, 160, 44); fill-opacity: 1; white-space: pre; opacity: 1;" transform="translate(0,299.78)">12M</text></g><g class="y3tick"><text text-anchor="start" x="975" y="4.199999999999999" style="font-family: 'Open Sans', verdana, arial, sans-serif; font-size: 12px; fill: rgb(44, 160, 44); fill-opacity: 1; white-space: pre; opacity: 1;" transform="translate(0,216.32)">14M</text></g><g class="y3tick"><text text-anchor="start" x="975" y="4.199999999999999" style="font-family: 'Open Sans', verdana, arial, sans-serif; font-size: 12px; fill: rgb(44, 160, 44); fill-opacity: 1; white-space: pre; opacity: 1;" transform="translate(0,132.86)">16M</text></g></g><g class="xy4-x"/><g class="xy4-y"><g class="y4tick"><text text-anchor="start" x="1051" y="4.199999999999999" transform="translate(0,474.63)" style="font-family: 'Open Sans', verdana, arial, sans-serif; font-size: 12px; fill: rgb(214, 39, 40); fill-opacity: 1; white-space: pre; opacity: 1;">20</text></g><g class="y4tick"><text text-anchor="start" x="1051" y="4.199999999999999" style="font-family: 'Open Sans', verdana, arial, sans-serif; font-size: 12px; fill: rgb(214, 39, 40); fill-opacity: 1; white-space: pre; opacity: 1;" transform="translate(0,393.04)">40</text></g><g class="y4tick"><text text-anchor="start" x="1051" y="4.199999999999999" style="font-family: 'Open Sans', verdana, arial, sans-serif; font-size: 12px; fill: rgb(214, 39, 40); fill-opacity: 1; white-space: pre; opacity: 1;" transform="translate(0,311.45)">60</text></g><g class="y4tick"><text text-anchor="start" x="1051" y="4.199999999999999" style="font-family: 'Open Sans', verdana, arial, sans-serif; font-size: 12px; fill: rgb(214, 39, 40); fill-opacity: 1; white-space: pre; opacity: 1;" transform="translate(0,229.85)">80</text></g><g class="y4tick"><text text-anchor="start" x="1051" y="4.199999999999999" style="font-family: 'Open Sans', verdana, arial, sans-serif; font-size: 12px; fill: rgb(214, 39, 40); fill-opacity: 1; white-space: pre; opacity: 1;" transform="translate(0,148.26)">100</text></g></g></g></g><g class="subplot xy2"/><g class="subplot xy3"/><g class="subplot xy4"/></g><g class="polarlayer"/><g class="smithlayer"/><g class="ternarylayer"/><g class="geolayer"/><g class="funnelarealayer"/><g class="pielayer"/><g class="iciclelayer"/><g class="treemaplayer"/><g class="sunburstlayer"/><g class="glimages"/><defs id="topdefs-8dba0a"><g class="clips"/><clipPath id="legend8dba0a"><rect width="441" height="29" x="0" y="0"/></clipPath></defs><g class="layer-above"><g class="imagelayer"/><g class="shapelayer"><g class="shape-group" data-index="0" clip-path="url(#clip8dba0ax)"><path data-index="0" fill-rule="evenodd" d="M179.17000000000002,532H657.41V306H179.17000000000002Z" style="opacity: 0.2; stroke: rgb(0, 0, 0); stroke-opacity: 0; fill: rgb(144, 238, 144); fill-opacity: 1; stroke-width: 0px;"/></g><g class="shape-group" data-index="1" clip-path="url(#clip8dba0ax)"><path data-index="1" fill-rule="evenodd" d="M657.41,532H878.62V306H657.41Z" style="opacity: 0.2; stroke: rgb(0, 0, 0); stroke-opacity: 0; fill: rgb(255, 255, 0); fill-opacity: 1; stroke-width: 0px;"/></g><g class="shape-group" data-index="2" clip-path="url(#clip8dba0ax)"><path data-index="2" fill-rule="evenodd" d="M878.62,532H970.83V306H878.62Z" style="opacity: 0.2; stroke: rgb(0, 0, 0); stroke-opacity: 0; fill: rgb(255, 0, 0); fill-opacity: 1; stroke-width: 0px;"/></g><g class="shape-group" data-index="3" clip-path="url(#clip8dba0ax)"><path data-index="3" fill-rule="evenodd" d="M179.17000000000002,306H970.83V80H179.17000000000002Z" style="opacity: 0.2; stroke: rgb(0, 0, 0); stroke-opacity: 0; fill: rgb(0, 100, 0); fill-opacity: 1; stroke-width: 0px;"/></g></g></g><g class="infolayer"><g class="legend" pointer-events="all" transform="translate(354.5,41.959999999999994)"><rect class="bg" shape-rendering="crispEdges" width="441" height="29" x="0" y="0" style="stroke: rgb(68, 68, 68); stroke-opacity: 1; fill: rgb(255, 255, 255); fill-opacity: 1; stroke-width: 0px;"/><g class="scrollbox" transform="" clip-path="url(#legend8dba0a)"><text class="legendtitletext" text-anchor="start" x="2" y="18.2" style="font-family: 'Open Sans', verdana, arial, sans-serif; font-size: 14px; fill: rgb(42, 63, 95); fill-opacity: 1; white-space: pre;">Variables:</text><g class="groups"><g class="traces" transform="translate(81.078125,14.5)" style="opacity: 1;"><text class="legendtext" text-anchor="start" x="40" y="4.680000000000001" style="font-family: 'Open Sans', verdana, arial, sans-serif; font-size: 12px; fill: rgb(42, 63, 95); fill-opacity: 1; white-space: pre;">P-MON-CKP</text><g class="layers" style="opacity: 1;"><g class="legendfill"/><g class="legendlines"><path class="js-line" d="M5,0h30" style="fill: none; stroke: rgb(31, 119, 180); stroke-opacity: 1; stroke-width: 2px;"/></g><g class="legendsymbols"><g class="legendpoints"/></g></g><rect class="legendtoggle" x="0" y="-9.5" width="113.86328125" height="19" style="fill: rgb(0, 0, 0); fill-opacity: 0;"/></g><g class="traces" transform="translate(197.44140625,14.5)" style="opacity: 1;"><text class="legendtext" text-anchor="start" x="40" y="4.680000000000001" style="font-family: 'Open Sans', verdana, arial, sans-serif; font-size: 12px; fill: rgb(42, 63, 95); fill-opacity: 1; white-space: pre;">P-PDG</text><g class="layers" style="opacity: 1;"><g class="legendfill"/><g class="legendlines"><path class="js-line" d="M5,0h30" style="fill: none; stroke: rgb(255, 127, 14); stroke-opacity: 1; stroke-width: 2px;"/></g><g class="legendsymbols"><g class="legendpoints"/></g></g><rect class="legendtoggle" x="0" y="-9.5" width="80.984375" height="19" style="fill: rgb(0, 0, 0); fill-opacity: 0;"/></g><g class="traces" transform="translate(280.92578125,14.5)" style="opacity: 1;"><text class="legendtext" text-anchor="start" x="40" y="4.680000000000001" style="font-family: 'Open Sans', verdana, arial, sans-serif; font-size: 12px; fill: rgb(42, 63, 95); fill-opacity: 1; white-space: pre;">P-TPT</text><g class="layers" style="opacity: 1;"><g class="legendfill"/><g class="legendlines"><path class="js-line" d="M5,0h30" style="fill: none; stroke: rgb(44, 160, 44); stroke-opacity: 1; stroke-width: 2px;"/></g><g class="legendsymbols"><g class="legendpoints"/></g></g><rect class="legendtoggle" x="0" y="-9.5" width="76.9375" height="19" style="fill: rgb(0, 0, 0); fill-opacity: 0;"/></g><g class="traces" transform="translate(360.36328125,14.5)" style="opacity: 1;"><text class="legendtext" text-anchor="start" x="40" y="4.680000000000001" style="font-family: 'Open Sans', verdana, arial, sans-serif; font-size: 12px; fill: rgb(42, 63, 95); fill-opacity: 1; white-space: pre;">T-TPT</text><g class="layers" style="opacity: 1;"><g class="legendfill"/><g class="legendlines"><path class="js-line" d="M5,0h30" style="fill: none; stroke: rgb(214, 39, 40); stroke-opacity: 1; stroke-width: 2px;"/></g><g class="legendsymbols"><g class="legendpoints"/></g></g><rect class="legendtoggle" x="0" y="-9.5" width="77.216796875" height="19" style="fill: rgb(0, 0, 0); fill-opacity: 0;"/></g></g></g><rect class="scrollbar" rx="20" ry="3" width="0" height="0" x="0" y="0" style="fill: rgb(128, 139, 164); fill-opacity: 1;"/></g><g class="g-gtitle"/><g class="g-xtitle"/><g class="g-ytitle"><text class="ytitle" transform="rotate(-90,61.85,306)" x="61.85" y="306" text-anchor="middle" style="opacity: 1; font-family: 'Open Sans', verdana, arial, sans-serif; font-size: 14px; fill: rgb(31, 119, 180); fill-opacity: 1; white-space: pre;">P-MON-CKP (Pa)</text></g><g class="g-y2title"><text class="y2title" transform="rotate(-90,118.225,306)" x="118.225" y="306" text-anchor="middle" style="opacity: 1; font-family: 'Open Sans', verdana, arial, sans-serif; font-size: 14px; fill: rgb(255, 127, 14); fill-opacity: 1; white-space: pre;">P-PDG (Pa)</text></g><g class="g-y3title"><text class="y3title" transform="rotate(-90,1024.675,306)" x="1024.675" y="306" text-anchor="middle" style="opacity: 1; font-family: 'Open Sans', verdana, arial, sans-serif; font-size: 14px; fill: rgb(44, 160, 44); fill-opacity: 1; white-space: pre;">P-TPT (Pa)</text></g><g class="g-y4title"><text class="y4title" transform="rotate(-90,1098.5578125,306)" x="1098.5578125" y="306" text-anchor="middle" style="opacity: 1; font-family: 'Open Sans', verdana, arial, sans-serif; font-size: 14px; fill: rgb(214, 39, 40); fill-opacity: 1; white-space: pre;">T-TPT (°C)</text></g></g></svg>